<svg width="56" height="57" viewBox="0 0 56 57" fill="none" xmlns="http://www.w3.org/2000/svg">
<g filter="url(#filter0_d_483_1523)">
<circle cx="28" cy="28.9741" r="20" fill="#D4BFAF"/>
</g>
<path d="M37.2071 29.6812C37.5976 29.2907 37.5976 28.6575 37.2071 28.267L30.8431 21.9031C30.4526 21.5125 29.8195 21.5125 29.4289 21.9031C29.0384 22.2936 29.0384 22.9267 29.4289 23.3173L35.0858 28.9741L29.4289 34.631C29.0384 35.0215 29.0384 35.6547 29.4289 36.0452C29.8195 36.4357 30.4526 36.4357 30.8431 36.0452L37.2071 29.6812ZM19.5 27.9741C18.9477 27.9741 18.5 28.4218 18.5 28.9741C18.5 29.5264 18.9477 29.9741 19.5 29.9741L19.5 27.9741ZM36.5 27.9741L19.5 27.9741L19.5 29.9741L36.5 29.9741L36.5 27.9741Z" fill="#FFF8F0"/>
<defs>
<filter id="filter0_d_483_1523" x="0" y="0.974121" width="56" height="56" filterUnits="userSpaceOnUse" color-interpolation-filters="sRGB">
<feFlood flood-opacity="0" result="BackgroundImageFix"/>
<feColorMatrix in="SourceAlpha" type="matrix" values="0 0 0 0 0 0 0 0 0 0 0 0 0 0 0 0 0 0 127 0" result="hardAlpha"/>
<feOffset/>
<feGaussianBlur stdDeviation="4"/>
<feComposite in2="hardAlpha" operator="out"/>
<feColorMatrix type="matrix" values="0 0 0 0 0.407843 0 0 0 0 0.235294 0 0 0 0 0.0666667 0 0 0 0.05 0"/>
<feBlend mode="normal" in2="BackgroundImageFix" result="effect1_dropShadow_483_1523"/>
<feBlend mode="normal" in="SourceGraphic" in2="effect1_dropShadow_483_1523" result="shape"/>
</filter>
</defs>
</svg>
