<svg width="88" height="88" viewBox="0 0 88 88" fill="none" xmlns="http://www.w3.org/2000/svg">
<g filter="url(#filter0_d_483_1440)">
<circle cx="44.0957" cy="40.091" r="39.5" fill="#FFF8F0"/>
</g>
<path d="M60.8828 41.091C61.4351 41.091 61.8828 40.6433 61.8828 40.091C61.8828 39.5387 61.4351 39.091 60.8828 39.091L60.8828 41.091ZM26.6007 39.3839C26.2102 39.7744 26.2102 40.4076 26.6007 40.7981L32.9647 47.1621C33.3552 47.5526 33.9884 47.5526 34.3789 47.1621C34.7694 46.7715 34.7694 46.1384 34.3789 45.7479L28.722 40.091L34.3789 34.4342C34.7694 34.0436 34.7694 33.4105 34.3789 33.0199C33.9884 32.6294 33.3552 32.6294 32.9647 33.0199L26.6007 39.3839ZM60.8828 39.091L27.3078 39.091L27.3078 41.091L60.8828 41.091L60.8828 39.091Z" fill="#410B13"/>
<defs>
<filter id="filter0_d_483_1440" x="0.595703" y="0.591003" width="87" height="87" filterUnits="userSpaceOnUse" color-interpolation-filters="sRGB">
<feFlood flood-opacity="0" result="BackgroundImageFix"/>
<feColorMatrix in="SourceAlpha" type="matrix" values="0 0 0 0 0 0 0 0 0 0 0 0 0 0 0 0 0 0 127 0" result="hardAlpha"/>
<feOffset dy="4"/>
<feGaussianBlur stdDeviation="2"/>
<feComposite in2="hardAlpha" operator="out"/>
<feColorMatrix type="matrix" values="0 0 0 0 0.407843 0 0 0 0 0.235294 0 0 0 0 0.0666667 0 0 0 0.2 0"/>
<feBlend mode="normal" in2="BackgroundImageFix" result="effect1_dropShadow_483_1440"/>
<feBlend mode="normal" in="SourceGraphic" in2="effect1_dropShadow_483_1440" result="shape"/>
</filter>
</defs>
</svg>
