<?xml version="1.0" encoding="UTF-8"?>
<svg id="Layer_2" xmlns="http://www.w3.org/2000/svg" viewBox="0 0 319.55 396.91">
  <defs>
    <style>
      .cls-1 {
        fill: none;
        stroke: #253327;
        stroke-miterlimit: 10;
        stroke-width: 35px;
      }
    </style>
  </defs>
  <g id="Layer_3">
    <path class="cls-1" d="M174.91,379.88c-.25-.45-.51-.9-.76-1.36-15.03-26.97-31.31-67.73-22.56-114.6,3.29-17.64,9.26-31.49,15.91-43.84,16.92-31.42,24.74-67.05,21.18-102.56-2.5-24.93-9.89-51.7-27.43-72.33-6.99-8.56-15.15-17.49-24.64-26.76-.32-.31-.63-.62-.95-.93"/>
    <path class="cls-1" d="M233.51,40.81c-27.15-18.11-63.05-26.22-96.9-22.38-19.52,2.22-38.35,8.41-54.43,18.96C-14.5,100.83,1.21,313.51,102.66,366.23c21.79,11.32,47.16,15.08,71.49,12.29,18.17-2.1,35.76-7.85,50.83-16.84,95.93-57.23,106.31-255.67,8.53-320.87h0Z"/>
  </g>
</svg>