<svg width="612" height="276" viewBox="0 0 612 276" fill="none" xmlns="http://www.w3.org/2000/svg">
<path d="M82.4336 197.362H82.4092C76.9041 189.797 69.4231 186.007 59.9824 186.007C54.7538 186.007 50.5091 186.946 45.7929 189.323C45.0204 189.716 44.256 190.124 43.4998 190.582C40.3529 192.493 36.3196 195.687 34.2054 198.702C34.0346 198.122 34.1566 187.722 34.0265 182.004C34.5469 161.499 33.6687 150.054 32.758 140.43C32.0587 132.963 29.1557 128.094 26.0739 124.819C22.992 121.543 19.4792 119.827 14.6247 120.374C9.77014 120.922 6.24106 122.27 2.7201 126.289C2.7201 126.289 1.67926 127.269 1.02061 128.233C0.654689 128.773 0.492058 129.058 0.39448 129.892C0.337559 130.423 0.50019 131.281 1.0694 131.575C1.40279 131.738 2.11837 131.607 2.16716 131.591C2.57373 131.428 3.19173 131.117 3.28118 131.06C4.43585 130.415 6.60697 129.009 8.98951 127.874C10.1361 127.327 14.6084 126.951 16.8446 129.181C19.4304 131.771 19.7394 137.53 20.3411 144.793C20.9835 152.504 21.3007 172.585 21.3088 172.748C21.5527 182.069 21.4145 204.42 21.3088 212.32C21.2275 218.284 21.2031 232.645 21.0648 238.944C20.8128 251.026 20.3899 255.977 19.5849 259.906C19.1539 261.989 18.1782 266.654 13.4212 268.165C11.9819 268.623 8.92446 268.803 7.50144 268.01C6.71268 267.569 6.18413 266.924 6.01337 265.968C5.85887 265.102 6.21666 264.383 5.33845 264.334C5.1433 264.326 4.57409 264.767 4.3708 265.265C4.16751 265.764 4.15938 266.442 4.2163 266.965C4.46025 269.26 5.95645 271.744 9.33917 273.141C11.6892 274.113 16.869 274.529 21.382 273.745C25.895 272.961 28.1962 269.758 29.6355 267.994C31.2049 266.058 31.9123 264.988 32.7255 263.966C32.8474 263.811 33.6037 265.625 34.2867 266.646C35.3682 268.272 37.3767 270.959 39.5478 272.111C41.8978 273.353 43.1664 273.933 46.3214 274.619C48.8503 275.175 51.2328 275.371 53.9732 275.436C57.2258 275.51 60.332 275.526 63.5196 274.872C70.0086 273.549 77.0993 268.754 81.2626 263.689C87.6703 255.887 90.8741 245.43 90.8741 232.31V228.92C90.8741 215.351 88.0606 204.837 82.4417 197.37L82.4336 197.362ZM74.8712 237.547C74.6598 244.131 73.8223 254.155 69.7321 259.571C65.6501 264.955 56.868 267.749 50.4604 268.018C46.7198 268.174 42.7842 267.536 39.743 265.314C36.6367 263.051 34.799 259.367 33.9859 255.593C31.9367 246.092 32.3677 234.222 32.7499 224.484C33.132 214.795 35.3926 204.968 43.1501 198.514C45.1179 196.872 47.3297 195.491 49.7854 194.797C53.3389 193.776 57.299 194.29 60.4784 196.161C72.4155 203.228 75.2859 225.187 74.8712 237.547Z" fill="#410B13"/>
<path d="M197.292 268.443C196.007 268.345 194.844 267.757 193.909 266.393C192.901 264.922 192.388 261.303 192.388 255.536V216.356C192.388 211.037 191.429 206.062 189.526 201.43C187.729 196.79 184.468 193.065 179.744 190.238C175.019 187.412 168.335 185.999 159.675 185.999C152.032 185.999 145.738 187.412 140.786 190.238C134.557 193.653 128.556 198.775 128.271 206.332C128.214 207.86 128.369 209.42 128.889 210.858C130.101 214.223 133.24 216.633 136.647 217.687C139.078 218.602 140.387 218.186 142.908 218.071C144.323 217.867 146.039 217.573 146.177 217.312C146.876 216.821 146.779 216.111 146.518 215.302C145.583 212.361 144.071 210.523 144.079 207.108C144.079 204.249 144.819 201.39 146.34 198.955C151.284 191.039 163.643 189.487 169.27 197.215C173.995 203.693 173.507 215.269 173.027 222.85C172.913 224.55 172.621 226.347 171.507 227.621C170.279 229.026 168.327 229.508 166.49 229.827C155.032 231.779 141.778 228.16 131.996 236.395C127.157 240.463 124.742 245.839 124.742 252.513C124.742 259.187 126.653 264.555 130.475 268.966C134.297 273.263 140.086 275.412 147.844 275.412C152.454 275.412 156.951 274.505 161.334 272.699C165.831 270.78 169.937 267.781 173.645 263.713C174.654 267.447 176.678 270.33 179.72 272.364C182.866 274.399 186.745 275.42 191.356 275.42C195.682 275.42 200.788 274.48 204.041 271.36C205.749 269.718 206.83 267.299 206.448 264.963C206.358 264.424 206.18 263.868 205.781 263.484C205.391 263.1 204.724 262.962 204.277 263.28C203.724 263.672 203.756 264.481 203.602 265.135C203.317 266.336 202.301 267.234 201.171 267.692C199.837 268.231 198.503 268.574 197.284 268.468L197.292 268.443ZM173.019 255.56C172.775 256.05 172.491 256.524 172.198 256.973C168.083 263.19 159.529 266.303 152.308 266.368C148.812 266.401 145.071 265.845 142.453 263.517C139.387 260.805 138.566 256.214 139.257 252.162C141.461 239.213 154.512 235.407 165.758 234.925C168.482 234.81 171.49 233.813 173.044 236.926C173.718 238.274 173.8 239.842 173.857 241.346C173.995 244.654 174.101 247.946 174.263 251.271L174.231 250.503C174.312 252.252 173.824 253.975 173.027 255.544L173.019 255.56Z" fill="#410B13"/>
<path d="M610.854 197.215V197.182C609.65 194.103 607.569 191.439 604.975 189.471C602.096 187.298 598.575 185.999 594.916 185.999C583.8 185.999 576.839 193.335 570.489 201.529C570.554 198.179 569.546 196.055 567.935 193.171C566.553 190.696 562.243 188.27 559.593 187.51C552.884 185.598 548.672 185.443 541.906 187.151C540.89 187.412 538.117 188.417 537.158 189.201C536.434 189.806 535.06 191.113 534.165 192.452C533.71 193.139 533.547 193.833 533.742 194.675C533.921 195.467 534.482 195.924 535.222 195.72C536.32 195.426 537.019 194.282 537.898 193.604C538.947 192.787 539.8 192.003 541.069 191.619C543.427 190.892 545.232 190.925 547.517 191.864C548.013 192.068 550.713 193.253 552.404 196.807C553.965 200.279 554.201 201.667 554.201 204.519V262.978C554.201 263.354 554.096 263.656 553.917 263.893C553.087 266.63 551.168 268.942 548.273 269.505C547.078 269.742 545.875 269.718 544.696 269.53C544.281 269.538 543.866 269.53 543.46 269.456C542.394 269.285 541.703 268.688 540.646 269.04C539.638 269.375 538.703 270.551 538.434 271.548C538.353 271.834 538.337 272.16 538.491 272.397C538.605 272.569 538.792 272.659 538.987 272.749C541.744 273.99 544.883 273.721 547.826 273.721H575.01C578.807 273.721 582.483 273.451 586.264 273.271C587.378 273.214 588.525 273.157 589.533 272.683C590.549 272.209 591.403 271.213 591.362 270.094C591.362 269.775 591.249 269.44 590.972 269.301C590.834 269.236 590.679 269.236 590.533 269.219C585.296 269.072 577.417 270.404 573.075 266.679C572.57 266.246 572.099 265.764 571.806 265.167C571.546 264.636 571.448 264.056 571.359 263.468C571.09 261.761 571.147 260.29 571.302 258.706V214.934C571.302 214.142 571.44 213.456 571.684 212.835C571.896 206.43 577.848 200.45 579.808 199.151C580.987 198.367 583.215 197.517 586.37 197.428C587.874 197.387 589.525 197.664 590.354 197.844C592.509 198.293 594.566 199.454 595.9 201.226C597.461 203.334 597.892 206.063 597.957 208.693C597.965 209.289 597.99 209.951 598.404 210.392C598.64 210.637 598.982 210.776 599.307 210.882C601.104 211.462 603.121 211.332 604.836 210.556C606.048 210 607.097 209.142 608.073 208.236C609.13 207.255 610.122 206.177 610.772 204.886C611.943 202.55 611.821 199.699 610.862 197.256L610.854 197.215Z" fill="#410B13"/>
<path d="M299.895 262.627C298.814 259.539 297.895 256.401 297.049 253.24C296 250.977 295.008 248.682 294.228 246.329C292.219 247.636 290.796 250.087 290.446 252.341C290.097 254.588 290.902 256.867 290.967 259.106C291.097 263.492 288.739 266.164 285.185 267.577C283.73 268.533 282.16 268.762 280.388 268.762C272.549 268.737 264.718 268.729 256.879 268.704C256.058 268.704 255.237 268.704 254.432 268.606C253.757 268.525 253.09 268.378 252.44 268.165C252.505 267.553 252.643 267.316 252.944 266.785C253.407 265.951 253.879 265.11 254.334 264.285C254.757 263.517 255.204 262.733 255.627 261.965C256.823 259.841 258.002 257.717 259.189 255.585C261.449 251.541 263.71 247.481 265.979 243.429L273.728 229.565C276.306 224.95 278.875 220.35 281.453 215.735C283.689 211.724 285.942 207.704 288.178 203.693C289.349 201.602 290.503 199.519 291.674 197.427C292.203 196.48 292.731 195.606 293.358 194.748C293.984 193.89 294.496 192.844 294.854 191.856C295.285 190.688 295.472 189.413 295.179 188.212C295.146 188.098 295.114 187.975 295.033 187.886C294.602 187.42 292.707 187.673 292.073 187.657H288.568C285.372 187.657 282.185 187.657 278.989 187.665C272.817 187.665 266.637 187.706 260.465 187.706H234.575C231.509 187.706 228.452 187.918 225.394 188.155C223.817 190.434 224.557 193.555 225.752 197.182C227.224 201.659 229.183 206.07 229.606 210.784C229.818 211.266 230.021 211.756 230.216 212.238C230.411 212.459 230.623 212.606 230.859 212.614C231.558 212.639 232.233 212.14 232.851 211.552C232.981 211.258 233.078 210.996 233.144 210.825C233.249 210.539 233.331 210.245 233.412 209.943C233.298 206.561 232.875 203.17 233.688 199.845C235.071 194.217 239.982 192.027 245.398 192.64C245.503 192.648 245.593 192.681 245.69 192.705C245.991 192.689 246.292 192.673 246.585 192.656C255.643 192.33 264.507 193.637 273.5 193.637C273.419 193.637 273.094 194.372 273.053 194.437L269.532 200.744L263.393 211.732L255.725 225.456L247.61 239.998L240.12 253.412L234.339 263.754C232.607 266.85 230.541 269.93 230.371 273.606C230.346 274.186 232.046 273.99 232.526 273.99H279.014C285.104 273.99 291.146 274.137 297.212 273.729C299.033 273.606 300.879 273.475 302.676 273.132C302.733 272.895 302.823 272.65 302.928 272.405C304.018 270.028 300.692 264.865 299.895 262.586V262.627Z" fill="#410B13"/>
<path d="M399.653 268.778C398.368 268.68 397.205 268.092 396.27 266.728C395.262 265.257 394.75 261.638 394.75 255.871V216.691C394.75 211.372 393.79 206.397 391.887 201.765C390.09 197.133 386.83 193.4 382.105 190.573C377.381 187.747 370.697 186.333 362.037 186.333C354.393 186.333 348.099 187.747 343.147 190.573C336.918 193.988 330.917 199.11 330.633 206.667C330.576 208.195 330.73 209.755 331.251 211.193C332.462 214.558 335.601 216.968 339.008 218.022C341.439 218.937 344.123 218.455 346.644 218.341C347.213 218.316 347.823 218.284 348.286 217.957C348.985 217.467 349.14 216.454 348.88 215.637C347.945 212.696 346.432 210.85 346.44 207.443C346.44 204.584 347.18 201.724 348.701 199.29C353.645 191.374 366.005 189.822 371.632 197.55C376.356 204.028 375.868 215.612 375.389 223.185C375.275 224.884 374.982 226.682 373.868 227.956C372.64 229.361 370.689 229.843 368.851 230.162C357.393 232.114 344.139 228.503 334.357 236.73C329.519 240.798 327.104 246.174 327.104 252.84C327.104 259.506 329.014 264.881 332.836 269.293C336.658 273.59 342.448 275.738 350.205 275.738C354.816 275.738 359.313 274.832 363.695 273.026C368.192 271.106 372.299 268.108 376.007 264.04C377.015 267.773 379.04 270.657 382.081 272.691C385.228 274.725 389.106 275.747 393.717 275.747C398.043 275.747 403.15 274.807 406.402 271.686C408.11 270.044 409.191 267.626 408.809 265.282C408.72 264.743 408.541 264.187 408.142 263.803C407.752 263.419 407.085 263.28 406.638 263.599C406.085 263.991 406.118 264.8 405.963 265.453C405.679 266.654 404.662 267.561 403.532 268.01C402.19 268.558 400.865 268.893 399.645 268.795L399.653 268.778ZM375.38 255.895C375.136 256.385 374.852 256.859 374.559 257.308C370.445 263.525 361.89 266.638 354.669 266.703C351.173 266.736 347.432 266.18 344.814 263.852C341.748 261.14 340.927 256.549 341.618 252.497C343.822 239.548 356.873 235.741 368.119 235.259C370.843 235.145 373.852 234.148 375.405 237.261C376.08 238.609 376.161 240.177 376.21 241.681C376.348 244.997 376.454 248.281 376.616 251.606L376.584 250.838C376.665 252.587 376.177 254.31 375.38 255.879V255.895Z" fill="#410B13"/>
<path d="M507.925 269.039C506.64 268.941 505.477 268.345 504.542 266.989C503.534 265.518 503.021 261.899 503.021 256.132V216.952C503.021 211.634 502.07 206.659 500.159 202.027C498.362 197.386 495.101 193.661 490.377 190.835C485.652 188.008 478.968 186.595 470.308 186.595C462.664 186.595 456.371 188.008 451.419 190.835C445.19 194.249 439.189 199.372 438.904 206.928C438.847 208.456 439.002 210.016 439.522 211.454C440.734 214.82 443.872 217.23 447.28 218.283C449.711 219.198 452.394 218.716 454.915 218.602C455.492 218.578 456.094 218.545 456.558 218.218C457.257 217.728 457.411 216.715 457.151 215.898C456.216 212.957 454.704 211.111 454.712 207.696C454.712 204.837 455.452 201.978 456.972 199.543C461.916 191.627 474.276 190.075 479.903 197.803C484.628 204.281 484.14 215.865 483.66 223.438C483.546 225.138 483.253 226.935 482.139 228.209C480.912 229.614 478.96 230.096 477.122 230.415C465.665 232.367 452.411 228.748 442.628 236.983C437.79 241.051 435.375 246.427 435.375 253.101C435.375 259.775 437.286 265.143 441.108 269.554C444.93 273.851 450.719 276 458.477 276C463.087 276 467.584 275.093 471.967 273.287C476.464 271.368 480.57 268.369 484.278 264.293C485.286 268.026 487.311 270.91 490.352 272.944C493.499 274.978 497.378 276 501.989 276C506.315 276 511.421 275.06 514.674 271.939C516.381 270.297 517.463 267.879 517.081 265.543C516.991 265.004 516.812 264.448 516.414 264.064C516.024 263.68 515.357 263.541 514.91 263.86C514.357 264.26 514.389 265.061 514.235 265.714C513.95 266.915 512.934 267.822 511.803 268.271C510.462 268.811 509.136 269.154 507.916 269.056L507.925 269.039ZM483.652 256.156C483.408 256.647 483.123 257.12 482.831 257.57C478.716 263.787 470.162 266.899 462.941 266.964C459.444 266.997 455.704 266.442 453.085 264.113C450.012 261.401 449.199 256.81 449.89 252.758C452.093 239.81 465.145 236.003 476.39 235.521C479.115 235.406 482.123 234.41 483.676 237.522C484.351 238.87 484.433 240.439 484.481 241.942C484.62 245.259 484.725 248.543 484.888 251.867L484.855 251.1C484.937 252.856 484.449 254.572 483.652 256.14V256.156Z" fill="#410B13"/>
<path d="M465.429 118.487C465.006 116.159 462.982 114.517 461.087 113.12C460.005 112.327 458.672 111.494 457.42 111.992C456.598 112.319 456.078 113.177 455.891 114.051C455.704 114.925 455.777 115.824 455.801 116.723C455.989 123.25 453.126 128.29 448.67 131.501C445.003 134.148 440.27 135.561 435.294 135.561C426.642 135.561 420.397 133.02 416.575 127.931C414.664 125.251 413.485 122.098 412.688 118.928C411.891 115.759 411.444 112.327 411.216 108.978C411.013 105.939 410.102 101.234 413.013 99.1749C414.989 97.7697 417.03 97.9168 419.283 97.9576L425.503 98.023C429.764 98.072 434.074 98.3498 438.351 98.3252C441.27 98.3007 448.979 97.7616 450.02 97.6472C451.191 97.5247 457.769 96.2666 460.721 93.2929C463.681 90.3193 464.519 86.5614 464.567 85.867C464.6 85.2135 464.738 82.6892 464.421 80.2139C463.657 74.2421 460.404 68.9157 460.404 68.9157C457.485 64.1694 453.606 60.6075 448.768 58.2303C443.929 55.853 438.652 54.6685 432.919 54.6685C422.015 54.6685 413.696 58.459 407.964 66.032C402.345 73.4987 399.531 83.4489 399.531 95.8826V99.2729C399.531 111.821 402.402 121.886 408.134 129.467C413.981 136.933 422.747 140.659 434.44 140.659C440.327 140.659 446.556 139.417 451.728 136.484C456.013 134.066 459.623 129.548 462.575 125.684C464.185 123.585 465.885 121.118 465.405 118.503H465.413L465.429 118.487ZM410.858 89.3227C411.411 81.9294 411.997 73.6049 416.404 67.3636C419.998 62.2741 425.512 59.7334 432.927 59.7334C439.221 59.7334 444.336 61.7676 448.272 65.8359C451.744 69.3324 454.126 79.013 454.086 82.4686C454.045 85.9324 453.053 87.9992 452.175 88.8652C450.784 90.254 447.141 91.3405 444.743 91.6673C442.352 91.994 437.335 91.9695 435.465 91.9859C431.944 92.0349 428.431 92.0676 424.91 92.1084C421.893 92.1411 418.892 92.1411 415.884 92.4107C413.192 92.6639 410.59 92.7374 410.85 89.2982H410.858V89.3227Z" fill="#88837F"/>
<path d="M388.822 6.674C381.967 -0.000320983 372.152 -0.678374 367.119 0.432652C361.662 1.63354 356.369 4.58266 353.002 9.1248C348.506 15.1619 347.587 23.3312 346.985 30.6346C346.839 32.44 346.806 48.893 347.066 54.7667C347.123 56.0575 346.148 56.8336 344.562 56.8336C341.098 56.8336 337.593 56.6293 334.137 57.0051C332.893 57.144 331.633 57.4789 330.665 58.2795C330.275 58.6063 329.925 59.0393 329.795 59.5458C329.673 60.0523 329.795 60.6405 330.21 60.9591C330.567 61.2286 331.055 61.2613 331.503 61.2777C332.974 61.3267 334.462 61.3675 335.934 61.4002C337.056 61.4329 338.13 61.2532 339.26 61.3022C340.935 61.3839 342.602 61.4492 344.277 61.5309C346.188 61.6453 346.725 62.0047 347.009 63.3527C347.302 64.7006 347.253 66.2936 347.253 70.2476V126.052C347.253 130.014 347.083 132.326 346.749 133.004C346.408 133.682 345.343 134.132 343.545 134.36L334.275 135.21V139.45H373.738V135.21L361.093 134.36C359.296 134.246 358.231 133.854 357.889 133.176C357.556 132.383 357.385 130.006 357.385 126.052C357.385 126.052 357.328 67.0289 357.385 64.2431C357.418 62.454 358.003 62.0292 358.743 61.9394C358.955 61.8413 359.207 61.7842 359.483 61.7842H359.565C359.735 61.727 359.906 61.6943 360.085 61.6943C362.207 61.7188 364.338 61.6126 366.444 61.4901C368.599 61.3675 370.77 61.2858 372.933 61.1715C373.055 61.1715 373.177 61.1715 373.291 61.2041C374.34 61.1551 375.389 61.1224 376.446 61.0898C377.763 61.0244 379.08 60.9672 380.389 60.8937C381.536 60.812 382.674 60.6895 383.797 60.5342H383.756C384.732 60.33 385.699 59.9542 386.464 59.3007C387.22 58.6471 387.748 57.6587 387.675 56.6538C387.651 56.3271 387.578 56.0003 387.358 55.7389C387.033 55.3304 386.456 55.216 385.943 55.1834C384.935 55.1262 383.919 55.2814 382.918 55.4203C375.811 56.4169 368.493 56.8417 361.321 56.8417H360.231C358.028 56.8417 357.402 57.2502 357.166 54.7749C356.719 50.2409 354.824 36.7616 356.255 25.1693C356.84 20.3984 357.377 15.0639 360.012 10.9139C362.825 6.47794 368.867 4.90943 373.844 5.59565C380.69 6.54329 386.252 11.7717 387.513 18.6094C388.83 25.7902 387.724 30.5937 385.203 37.3661C385.049 37.7827 384.902 38.2729 385.089 38.6814C385.236 39 385.553 39.1878 385.854 39.3676C386.74 39.8741 387.667 40.3479 388.667 40.544C389.668 40.74 390.765 40.6093 391.587 40.0048C392.408 39.3921 392.847 38.3954 393.221 37.4396C396.986 27.5139 395.888 14.9332 388.822 6.69034V6.66583V6.674Z" fill="#88837F"/>
<path d="M313.385 130.447C312.816 130.251 312.296 130.807 311.922 131.281C311.076 132.359 310.092 133.307 308.986 134.099C307.75 135.006 306.376 135.708 304.929 136.19C303.392 136.697 301.668 136.95 300.172 136.329C299.31 135.978 298.472 135.333 297.846 134.589C297.838 134.581 297.822 134.556 297.805 134.548C297.781 134.516 297.749 134.483 297.724 134.45C295.228 131.656 295.634 127.147 296.049 122.997C296.464 118.847 297.48 111.609 298.041 105.269C298.602 98.9219 298.041 83.4983 298.041 83.4983C298.041 78.4088 297.196 73.7196 295.512 69.4226C293.935 65.0111 291.016 61.5065 286.747 58.9087C282.583 56.1964 276.631 54.8403 268.873 54.8403C259.205 54.8403 252.009 57.4382 247.292 62.642C243.788 66.4162 240.657 72.4452 241.348 77.7798C241.56 79.4218 241.852 81.1047 242.755 82.4853C243.641 83.8414 245.097 84.8054 246.658 85.222C246.983 85.222 247.382 85.3935 247.707 85.4507C248.081 85.5079 248.447 85.5488 248.821 85.5651C249.447 85.5896 250.081 85.5651 250.699 85.4507C250.984 85.3935 251.309 85.3119 251.456 85.0586C251.667 84.6828 251.366 84.2335 251.139 83.8577C250.602 82.9754 250.456 81.9134 250.236 80.8923C250.236 80.8432 250.212 80.8024 250.171 80.8024V80.3939C250.13 78.4496 250.114 76.6606 250.488 74.7653C250.862 72.8537 251.342 70.9339 252.041 69.1039C253.391 65.5993 255.53 63.222 258.449 61.9803C261.368 60.6242 264.743 59.9461 268.564 59.9461C274.525 59.9461 279.241 61.6454 282.73 65.0356C286.218 68.3115 287.958 74.4793 287.958 83.5228V88.31C287.958 91.0467 288.259 93.9877 287.747 96.6672C287.722 96.7652 287.698 96.8796 287.625 96.9613C287.576 97.0103 287.511 97.043 287.446 97.0757C286.454 97.5413 285.039 97.2799 283.925 97.2799H266.532C255.961 97.2799 248.488 99.1425 244.105 102.876C239.722 106.609 237.526 111.813 237.526 118.479C237.526 124.476 239.323 129.728 242.926 134.254C246.634 138.666 252.423 140.871 260.295 140.871C265.019 140.871 269.792 139.85 274.631 137.816C279.469 135.667 283.966 132.22 288.121 127.465C288.682 131.428 290.202 134.532 292.674 136.795C295.342 139.115 298.928 140.373 302.44 140.022C305.254 139.736 307.929 138.551 310.222 136.877C310.979 136.321 311.686 135.725 312.328 135.047C313.19 134.14 313.963 133.037 314.036 131.779C314.069 131.272 313.914 130.66 313.426 130.488H313.418L313.385 130.447ZM287.909 116.445C287.909 117.63 287.82 118.839 287.446 119.974C287.299 120.407 287.121 120.824 286.893 121.216C286.454 121.976 285.811 122.515 285.299 123.193C284.689 123.985 284.031 124.729 283.323 125.456C280.827 128.021 278.013 130.439 274.744 131.95C274.574 132.032 274.419 132.097 274.248 132.163C270.085 133.968 266.377 134.875 263.116 134.875C258.058 134.875 254.294 133.347 251.822 130.292C249.35 127.237 248.114 122.997 248.114 117.572C248.114 112.148 249.683 108.415 252.838 106.037C255.164 104.281 257.928 103.358 260.774 102.86C264.718 102.173 268.792 102.247 272.785 101.969C277.525 101.626 282.274 101.381 287.015 101.201C287.243 101.201 287.478 101.193 287.665 101.299C287.95 101.471 288.023 101.847 288.007 102.173C287.747 106.903 287.909 111.682 287.909 116.437H287.917L287.909 116.445Z" fill="#88837F"/>
<path d="M185.948 140.83C192.242 140.83 198.088 139.303 203.488 136.247C208.993 133.192 212.766 127.882 214.791 120.301L207.033 118.095C205.569 124.655 203.154 129.23 199.78 131.836C196.519 134.434 192.193 135.741 186.794 135.741C178.361 135.741 172.295 133.2 168.579 128.111C164.985 122.907 163.18 114.484 163.18 102.835V92.6559C163.18 80.8921 165.091 72.5268 168.912 67.5516C172.848 62.4622 178.239 59.9215 185.102 59.9215C192.413 59.9215 197.69 62.2416 200.951 66.8736C204.211 71.3994 205.22 78.0084 203.984 86.7168L213.595 85.1892C214.498 79.4216 213.937 74.275 211.912 69.7574C209.887 65.1172 206.57 61.5064 201.959 58.9003C197.462 56.1881 191.843 54.832 185.094 54.832C174.19 54.832 165.871 58.6226 160.138 66.1955C154.52 73.6623 151.706 83.6125 151.706 96.0462V99.4365C151.706 111.993 154.52 122.049 160.138 129.63C165.871 137.097 174.474 140.822 185.94 140.822L185.948 140.83Z" fill="#88837F"/>
</svg>
