<svg width="542" height="226" viewBox="0 0 542 226" fill="none" xmlns="http://www.w3.org/2000/svg">
<path d="M72.7562 155.787H72.7346C67.8531 149.032 61.2194 145.648 52.848 145.648C48.2117 145.648 44.4478 146.487 40.2657 148.609C39.5807 148.959 38.9029 149.324 38.2323 149.733C35.4419 151.44 31.8655 154.292 29.9907 156.983C29.8393 156.465 29.9475 147.18 29.8321 142.074C30.2936 123.765 29.5148 113.546 28.7073 104.953C28.0872 98.2859 25.513 93.9385 22.7802 91.0135C20.0475 88.0885 16.9325 86.5567 12.6279 87.0454C8.32319 87.5341 5.19383 88.7377 2.07168 92.3265C2.07168 92.3265 1.14874 93.2018 0.564689 94.0625C0.240216 94.544 0.096006 94.7993 0.00948002 95.5433C-0.0409935 96.0174 0.103217 96.7833 0.607952 97.0459C0.903582 97.1918 1.53811 97.0751 1.58137 97.0605C1.94189 96.9146 2.48989 96.6374 2.56921 96.5864C3.5931 96.0101 5.5183 94.7555 7.63098 93.7416C8.64766 93.2529 12.6134 92.9173 14.5963 94.9087C16.8893 97.221 17.1633 102.363 17.6968 108.848C18.2665 115.734 18.5477 133.663 18.5549 133.809C18.7712 142.132 18.6486 162.089 18.5549 169.143C18.4828 174.468 18.4612 187.291 18.3386 192.915C18.115 203.703 17.7401 208.124 17.0263 211.632C16.6441 213.492 15.7788 217.657 11.5607 219.007C10.2844 219.415 7.57329 219.576 6.31146 218.868C5.61204 218.474 5.14336 217.898 4.99194 217.045C4.85494 216.271 5.1722 215.629 4.39346 215.586C4.22041 215.578 3.71568 215.972 3.53541 216.417C3.35515 216.862 3.34794 217.468 3.39841 217.934C3.61473 219.984 4.94146 222.202 7.94103 223.449C10.0249 224.317 14.618 224.689 18.6198 223.989C22.6216 223.288 24.6622 220.429 25.9384 218.854C27.3301 217.125 27.9574 216.169 28.6784 215.257C28.7866 215.119 29.4572 216.738 30.0628 217.65C31.0218 219.102 32.8028 221.501 34.728 222.53C36.8119 223.639 37.9367 224.156 40.7344 224.769C42.9769 225.265 45.0895 225.44 47.5195 225.499C50.4037 225.564 53.1581 225.579 55.9846 224.995C61.7386 223.814 68.0261 219.532 71.7179 215.009C77.3998 208.043 80.2407 198.707 80.2407 186.992V183.965C80.2407 171.849 77.7459 162.461 72.7634 155.794L72.7562 155.787ZM66.0505 191.668C65.863 197.547 65.1203 206.497 61.4934 211.333C57.8737 216.14 50.0864 218.635 44.4045 218.875C41.0877 219.014 37.5978 218.445 34.9011 216.461C32.1467 214.44 30.5171 211.151 29.7961 207.781C27.979 199.297 28.3612 188.699 28.7001 180.004C29.039 171.353 31.0435 162.578 37.9223 156.815C39.6672 155.349 41.6285 154.117 43.8061 153.497C46.957 152.585 50.4686 153.044 53.2879 154.715C63.8729 161.024 66.4182 180.631 66.0505 191.668Z" fill="#410B13"/>
<path d="M174.604 219.253C173.464 219.166 172.433 218.641 171.604 217.423C170.71 216.11 170.256 212.878 170.256 207.728V172.745C170.256 167.996 169.405 163.554 167.718 159.418C166.124 155.275 163.233 151.949 159.043 149.425C154.854 146.901 148.927 145.639 141.248 145.639C134.47 145.639 128.889 146.901 124.498 149.425C118.975 152.474 113.653 157.048 113.401 163.795C113.35 165.159 113.487 166.552 113.949 167.836C115.023 170.841 117.806 172.993 120.828 173.934C122.984 174.751 124.144 174.379 126.38 174.277C127.634 174.094 129.156 173.832 129.278 173.598C129.898 173.161 129.812 172.526 129.581 171.804C128.752 169.178 127.411 167.537 127.418 164.488C127.418 161.935 128.074 159.382 129.423 157.208C133.807 150.14 144.767 148.754 149.756 155.654C153.945 161.439 153.513 171.775 153.087 178.544C152.986 180.061 152.727 181.666 151.739 182.804C150.65 184.058 148.92 184.489 147.29 184.773C137.131 186.517 125.377 183.285 116.703 190.638C112.413 194.27 110.271 199.07 110.271 205.03C110.271 210.989 111.966 215.781 115.355 219.72C118.744 223.557 123.878 225.476 130.757 225.476C134.845 225.476 138.832 224.666 142.719 223.054C146.706 221.34 150.347 218.663 153.635 215.03C154.53 218.364 156.325 220.938 159.022 222.755C161.812 224.571 165.252 225.483 169.34 225.483C173.176 225.483 177.704 224.644 180.588 221.858C182.102 220.391 183.061 218.232 182.723 216.146C182.643 215.665 182.485 215.169 182.131 214.826C181.785 214.483 181.194 214.359 180.797 214.643C180.307 214.994 180.336 215.716 180.199 216.299C179.947 217.372 179.045 218.174 178.043 218.582C176.86 219.064 175.678 219.37 174.596 219.275L174.604 219.253ZM153.08 207.75C152.864 208.188 152.612 208.611 152.352 209.012C148.703 214.563 141.118 217.342 134.715 217.401C131.615 217.43 128.298 216.934 125.976 214.855C123.258 212.433 122.529 208.334 123.142 204.716C125.096 193.154 136.669 189.755 146.641 189.325C149.057 189.223 151.725 188.333 153.102 191.112C153.7 192.316 153.772 193.716 153.823 195.058C153.945 198.012 154.039 200.952 154.183 203.921L154.155 203.235C154.227 204.796 153.794 206.335 153.087 207.736L153.08 207.75Z" fill="#410B13"/>
<path d="M541.324 155.655V155.626C540.257 152.876 538.411 150.498 536.111 148.74C533.558 146.799 530.436 145.64 527.192 145.64C517.335 145.64 511.163 152.19 505.531 159.506C505.589 156.515 504.695 154.619 503.267 152.044C502.041 149.834 498.22 147.667 495.869 146.989C489.921 145.282 486.186 145.144 480.186 146.668C479.285 146.902 476.826 147.799 475.975 148.499C475.334 149.039 474.115 150.206 473.322 151.402C472.918 152.015 472.774 152.635 472.947 153.386C473.106 154.094 473.603 154.502 474.259 154.32C475.233 154.057 475.853 153.036 476.632 152.431C477.562 151.701 478.319 151.001 479.444 150.658C481.535 150.009 483.135 150.038 485.162 150.877C485.601 151.059 487.995 152.117 489.495 155.29C490.88 158.39 491.089 159.63 491.089 162.176V214.374C491.089 214.709 490.995 214.979 490.836 215.191C490.101 217.634 488.399 219.699 485.832 220.202C484.772 220.414 483.705 220.392 482.66 220.224C482.292 220.231 481.924 220.224 481.564 220.158C480.619 220.005 480.006 219.473 479.069 219.786C478.175 220.085 477.345 221.136 477.107 222.026C477.035 222.281 477.021 222.573 477.158 222.784C477.259 222.937 477.425 223.018 477.598 223.098C480.042 224.207 482.825 223.966 485.436 223.966H509.54C512.908 223.966 516.167 223.725 519.52 223.565C520.507 223.514 521.524 223.463 522.418 223.04C523.32 222.616 524.077 221.727 524.041 220.727C524.041 220.443 523.94 220.144 523.694 220.02C523.572 219.961 523.435 219.961 523.305 219.947C518.662 219.815 511.675 221.004 507.824 217.678C507.377 217.292 506.959 216.861 506.699 216.329C506.469 215.855 506.382 215.337 506.303 214.812C506.065 213.287 506.115 211.974 506.252 210.559V171.476C506.252 170.769 506.375 170.156 506.591 169.601C506.779 163.883 512.057 158.543 513.794 157.383C514.84 156.683 516.816 155.925 519.613 155.844C520.947 155.808 522.411 156.056 523.146 156.216C525.057 156.618 526.882 157.653 528.064 159.236C529.448 161.118 529.831 163.554 529.888 165.903C529.896 166.436 529.917 167.027 530.285 167.42C530.494 167.639 530.797 167.763 531.085 167.858C532.679 168.376 534.467 168.259 535.988 167.566C537.063 167.07 537.993 166.304 538.858 165.495C539.796 164.619 540.675 163.657 541.252 162.504C542.29 160.418 542.182 157.872 541.331 155.691L541.324 155.655Z" fill="#410B13"/>
<path d="M265.586 214.061C264.627 211.303 263.812 208.502 263.063 205.679C262.132 203.659 261.253 201.609 260.561 199.508C258.78 200.675 257.518 202.864 257.208 204.877C256.898 206.883 257.611 208.918 257.669 210.917C257.785 214.834 255.693 217.219 252.542 218.481C251.252 219.334 249.86 219.539 248.288 219.539C241.337 219.517 234.394 219.509 227.443 219.488C226.714 219.488 225.986 219.488 225.272 219.4C224.674 219.327 224.083 219.196 223.506 219.006C223.563 218.459 223.686 218.247 223.953 217.773C224.364 217.029 224.782 216.278 225.186 215.541C225.561 214.856 225.957 214.155 226.332 213.47C227.392 211.573 228.438 209.677 229.49 207.773C231.495 204.162 233.5 200.537 235.511 196.919L242.383 184.541C244.669 180.419 246.947 176.313 249.233 172.191C251.216 168.61 253.213 165.021 255.196 161.439C256.234 159.572 257.258 157.712 258.296 155.845C258.765 154.999 259.234 154.218 259.789 153.452C260.344 152.686 260.798 151.753 261.116 150.87C261.498 149.827 261.664 148.689 261.404 147.617C261.375 147.515 261.346 147.405 261.274 147.325C260.892 146.909 259.212 147.135 258.65 147.121H255.542C252.708 147.121 249.882 147.121 247.048 147.128C241.575 147.128 236.095 147.164 230.623 147.164H207.664C204.946 147.164 202.235 147.354 199.524 147.566C198.125 149.601 198.781 152.387 199.841 155.626C201.146 159.623 202.884 163.562 203.259 167.771C203.446 168.201 203.626 168.639 203.799 169.069C203.973 169.266 204.16 169.398 204.369 169.405C204.989 169.427 205.588 168.982 206.136 168.457C206.251 168.194 206.338 167.961 206.395 167.807C206.489 167.552 206.561 167.289 206.633 167.02C206.532 164 206.157 160.973 206.878 158.004C208.104 152.978 212.459 151.023 217.261 151.57C217.355 151.578 217.435 151.607 217.521 151.629C217.788 151.614 218.055 151.599 218.314 151.585C226.347 151.293 234.206 152.46 242.181 152.46C242.109 152.46 241.82 153.117 241.784 153.175L238.662 158.806L233.218 168.617L226.419 180.871L219.223 193.855L212.582 205.833L207.455 215.067C205.919 217.832 204.088 220.582 203.936 223.864C203.915 224.382 205.422 224.207 205.847 224.207H247.07C252.47 224.207 257.828 224.338 263.207 223.974C264.822 223.864 266.459 223.747 268.052 223.441C268.103 223.229 268.182 223.011 268.276 222.792C269.242 220.669 266.293 216.059 265.586 214.024V214.061Z" fill="#410B13"/>
<path d="M354.045 219.553C352.906 219.465 351.875 218.94 351.045 217.722C350.151 216.409 349.697 213.177 349.697 208.028V173.044C349.697 168.296 348.846 163.853 347.159 159.717C345.565 155.582 342.674 152.248 338.485 149.724C334.295 147.2 328.368 145.939 320.689 145.939C313.911 145.939 308.33 147.2 303.939 149.724C298.416 152.773 293.095 157.347 292.842 164.094C292.792 165.458 292.929 166.851 293.39 168.135C294.465 171.14 297.248 173.292 300.269 174.233C302.425 175.05 304.804 174.62 307.04 174.518C307.544 174.496 308.085 174.467 308.496 174.175C309.116 173.737 309.253 172.833 309.023 172.103C308.193 169.477 306.852 167.829 306.859 164.787C306.859 162.234 307.516 159.681 308.864 157.507C313.248 150.439 324.208 149.053 329.198 155.954C333.387 161.738 332.954 172.081 332.529 178.843C332.428 180.36 332.168 181.965 331.18 183.103C330.092 184.358 328.361 184.788 326.732 185.072C316.572 186.816 304.819 183.592 296.145 190.937C291.854 194.57 289.713 199.369 289.713 205.321C289.713 211.274 291.407 216.073 294.796 220.012C298.185 223.849 303.319 225.767 310.198 225.767C314.286 225.767 318.274 224.958 322.16 223.346C326.148 221.632 329.789 218.955 333.077 215.322C333.971 218.655 335.766 221.23 338.463 223.047C341.254 224.863 344.693 225.775 348.781 225.775C352.617 225.775 357.145 224.936 360.03 222.149C361.544 220.683 362.503 218.524 362.164 216.431C362.085 215.949 361.926 215.453 361.573 215.11C361.227 214.768 360.635 214.644 360.239 214.928C359.748 215.278 359.777 216 359.64 216.584C359.388 217.656 358.487 218.466 357.484 218.867C356.295 219.356 355.119 219.655 354.038 219.567L354.045 219.553ZM332.522 208.05C332.305 208.487 332.053 208.91 331.793 209.311C328.145 214.862 320.559 217.642 314.156 217.7C311.056 217.729 307.739 217.233 305.417 215.154C302.699 212.733 301.971 208.633 302.584 205.015C304.538 193.454 316.111 190.055 326.083 189.624C328.498 189.522 331.166 188.632 332.543 191.411C333.142 192.615 333.214 194.015 333.257 195.357C333.38 198.319 333.473 201.251 333.618 204.22L333.589 203.534C333.661 205.095 333.228 206.634 332.522 208.035V208.05Z" fill="#410B13"/>
<path d="M450.054 219.787C448.914 219.699 447.883 219.167 447.054 217.956C446.16 216.643 445.706 213.411 445.706 208.262V173.278C445.706 168.53 444.862 164.087 443.168 159.951C441.574 155.808 438.683 152.482 434.494 149.958C430.304 147.434 424.377 146.173 416.698 146.173C409.92 146.173 404.339 147.434 399.948 149.958C394.425 153.007 389.103 157.581 388.851 164.328C388.801 165.692 388.938 167.085 389.399 168.369C390.473 171.374 393.257 173.526 396.278 174.467C398.434 175.284 400.813 174.854 403.048 174.752C403.56 174.73 404.094 174.701 404.505 174.409C405.125 173.971 405.262 173.067 405.031 172.337C404.202 169.711 402.861 168.063 402.868 165.014C402.868 162.461 403.524 159.908 404.873 157.734C409.257 150.666 420.217 149.28 425.206 156.18C429.396 161.965 428.963 172.308 428.538 179.07C428.437 180.587 428.177 182.192 427.189 183.33C426.1 184.584 424.37 185.015 422.74 185.299C412.581 187.043 400.828 183.811 392.153 191.164C387.863 194.796 385.722 199.596 385.722 205.556C385.722 211.515 387.416 216.307 390.805 220.246C394.194 224.083 399.328 226.001 406.207 226.001C410.295 226.001 414.282 225.192 418.169 223.58C422.156 221.866 425.798 219.189 429.086 215.549C429.98 218.882 431.775 221.457 434.472 223.273C437.262 225.09 440.702 226.001 444.79 226.001C448.626 226.001 453.154 225.163 456.038 222.376C457.553 220.91 458.512 218.751 458.173 216.665C458.093 216.183 457.935 215.687 457.582 215.344C457.235 215.002 456.644 214.878 456.248 215.162C455.757 215.52 455.786 216.234 455.649 216.818C455.397 217.89 454.495 218.7 453.493 219.101C452.303 219.582 451.128 219.889 450.047 219.801L450.054 219.787ZM428.53 208.284C428.314 208.721 428.062 209.144 427.802 209.545C424.154 215.096 416.568 217.876 410.165 217.934C407.065 217.963 403.748 217.467 401.426 215.388C398.701 212.967 397.98 208.867 398.592 205.249C400.546 193.688 412.119 190.289 422.091 189.858C424.507 189.756 427.175 188.866 428.552 191.645C429.151 192.849 429.223 194.249 429.266 195.591C429.388 198.553 429.482 201.485 429.626 204.454L429.598 203.768C429.67 205.337 429.237 206.868 428.53 208.269V208.284Z" fill="#410B13"/>
<path d="M336.687 105.797C336.312 103.718 334.516 102.252 332.836 101.004C331.877 100.297 330.695 99.5529 329.584 99.9979C328.856 100.29 328.395 101.056 328.229 101.836C328.063 102.617 328.128 103.419 328.15 104.221C328.315 110.049 325.777 114.55 321.826 117.417C318.574 119.78 314.378 121.042 309.965 121.042C302.293 121.042 296.755 118.773 293.366 114.229C291.672 111.837 290.626 109.021 289.92 106.191C289.213 103.361 288.816 100.297 288.614 97.3063C288.434 94.5928 287.627 90.3913 290.208 88.5531C291.96 87.2985 293.77 87.4298 295.767 87.4663L301.283 87.5246C305.062 87.5684 308.883 87.8164 312.676 87.7945C315.264 87.7726 322.1 87.2912 323.023 87.1891C324.061 87.0797 329.895 85.9563 332.512 83.3012C335.137 80.6461 335.879 77.2907 335.923 76.6707C335.951 76.0871 336.074 73.8332 335.793 71.623C335.115 66.2909 332.231 61.535 332.231 61.535C329.642 57.297 326.203 54.1167 321.912 51.994C317.622 49.8714 312.943 48.8137 307.859 48.8137C298.19 48.8137 290.814 52.1983 285.73 58.9601C280.748 65.6271 278.253 74.5116 278.253 85.6135V88.6406C278.253 99.8447 280.798 108.831 285.882 115.6C291.066 122.267 298.839 125.594 309.208 125.594C314.428 125.594 319.951 124.485 324.537 121.866C328.337 119.707 331.539 115.673 334.156 112.223C335.584 110.348 337.091 108.146 336.665 105.811H336.672L336.687 105.797ZM288.297 79.7562C288.787 73.1548 289.307 65.7219 293.215 60.1491C296.402 55.6047 301.29 53.3362 307.866 53.3362C313.447 53.3362 317.983 55.1525 321.473 58.785C324.552 61.907 326.664 70.5508 326.628 73.6362C326.592 76.729 325.712 78.5745 324.934 79.3477C323.701 80.5877 320.47 81.5579 318.343 81.8496C316.223 82.1414 311.775 82.1195 310.116 82.1341C306.994 82.1779 303.879 82.2071 300.757 82.2435C298.082 82.2727 295.421 82.2727 292.753 82.5134C290.367 82.7395 288.059 82.8052 288.29 79.7343H288.297V79.7562Z" fill="#88837F"/>
<path d="M268.757 5.95916C262.678 -0.000286612 253.975 -0.605714 249.512 0.386311C244.674 1.45857 239.98 4.09182 236.995 8.14745C233.007 13.5379 232.192 20.8323 231.659 27.3534C231.529 28.9654 231.5 43.6561 231.731 48.9007C231.781 50.0532 230.916 50.7462 229.51 50.7462C226.438 50.7462 223.331 50.5638 220.266 50.8994C219.163 51.0234 218.045 51.3225 217.187 52.0373C216.841 52.3291 216.531 52.7157 216.416 53.1679C216.308 53.6202 216.416 54.1454 216.784 54.4298C217.101 54.6705 217.534 54.6997 217.93 54.7143C219.235 54.7581 220.555 54.7945 221.86 54.8237C222.855 54.8529 223.807 54.6924 224.809 54.7362C226.294 54.8091 227.772 54.8675 229.258 54.9404C230.952 55.0426 231.428 55.3635 231.681 56.5671C231.94 57.7706 231.897 59.193 231.897 62.7235V112.551C231.897 116.089 231.745 118.153 231.45 118.758C231.147 119.364 230.202 119.765 228.609 119.969L220.389 120.728V124.514H255.381V120.728L244.169 119.969C242.576 119.867 241.631 119.517 241.328 118.912C241.033 118.204 240.881 116.081 240.881 112.551C240.881 112.551 240.831 59.8495 240.881 57.3621C240.91 55.7647 241.429 55.3854 242.085 55.3052C242.273 55.2176 242.496 55.1666 242.741 55.1666H242.814C242.965 55.1155 243.116 55.0863 243.275 55.0863C245.157 55.1082 247.046 55.0134 248.914 54.904C250.824 54.7945 252.75 54.7216 254.668 54.6195C254.776 54.6195 254.884 54.6195 254.985 54.6487C255.915 54.6049 256.845 54.5757 257.783 54.5465C258.951 54.4882 260.119 54.4371 261.28 54.3715C262.296 54.2985 263.306 54.1891 264.301 54.0505H264.265C265.13 53.8682 265.988 53.5326 266.666 52.9491C267.336 52.3655 267.805 51.4829 267.74 50.5857C267.719 50.294 267.654 50.0022 267.459 49.7688C267.171 49.4041 266.659 49.3019 266.204 49.2728C265.31 49.2217 264.409 49.3603 263.522 49.4843C257.22 50.3742 250.731 50.7535 244.371 50.7535H243.405C241.451 50.7535 240.896 51.1182 240.686 48.908C240.29 44.8597 238.61 32.8241 239.879 22.4735C240.398 18.2136 240.874 13.4504 243.21 9.74491C245.705 5.7841 251.062 4.38359 255.475 4.99631C261.546 5.84245 266.478 10.5108 267.596 16.6161C268.764 23.0278 267.783 27.3169 265.548 33.3639C265.411 33.7359 265.281 34.1735 265.447 34.5383C265.577 34.8227 265.858 34.9905 266.125 35.151C266.911 35.6032 267.733 36.0263 268.62 36.2014C269.507 36.3764 270.48 36.2597 271.208 35.7199C271.937 35.1729 272.326 34.283 272.658 33.4295C275.996 24.5669 275.023 13.3337 268.757 5.97375V5.95187V5.95916Z" fill="#88837F"/>
<path d="M201.864 116.475C201.36 116.3 200.898 116.796 200.567 117.219C199.817 118.181 198.944 119.028 197.964 119.735C196.868 120.545 195.649 121.172 194.365 121.603C193.003 122.055 191.474 122.281 190.147 121.727C189.383 121.413 188.64 120.837 188.085 120.173C188.078 120.166 188.064 120.144 188.049 120.136C188.027 120.107 187.999 120.078 187.977 120.049C185.763 117.554 186.124 113.528 186.492 109.822C186.859 106.117 187.761 99.654 188.258 93.9936C188.756 88.3259 188.258 74.5542 188.258 74.5542C188.258 70.0099 187.508 65.823 186.016 61.9862C184.617 58.0472 182.028 54.918 178.243 52.5984C174.551 50.1767 169.273 48.9658 162.394 48.9658C153.821 48.9658 147.44 51.2854 143.257 55.9319C140.15 59.3019 137.374 64.6851 137.987 69.4482C138.174 70.9144 138.434 72.417 139.234 73.6498C140.02 74.8606 141.311 75.7213 142.695 76.0933C142.983 76.0933 143.337 76.2465 143.625 76.2976C143.957 76.3486 144.281 76.3851 144.613 76.3997C145.168 76.4216 145.731 76.3997 146.279 76.2976C146.531 76.2465 146.819 76.1736 146.949 75.9475C147.137 75.6119 146.87 75.2107 146.668 74.8752C146.192 74.0874 146.062 73.1392 145.868 72.2274C145.868 72.1836 145.846 72.1471 145.81 72.1471V71.7824C145.774 70.0464 145.76 68.4489 146.091 66.7566C146.423 65.0498 146.848 63.3356 147.468 61.7017C148.665 58.5724 150.562 56.4498 153.15 55.341C155.739 54.1302 158.731 53.5248 162.12 53.5248C167.405 53.5248 171.588 55.042 174.681 58.0691C177.774 60.9941 179.317 66.5013 179.317 74.5761V78.8506C179.317 81.2942 179.584 83.9201 179.13 86.3127C179.108 86.4002 179.086 86.5023 179.022 86.5753C178.978 86.619 178.921 86.6482 178.863 86.6774C177.983 87.0932 176.729 86.8597 175.741 86.8597H160.317C150.944 86.8597 144.317 88.5228 140.431 91.8563C136.544 95.1898 134.598 99.8363 134.598 105.788C134.598 111.142 136.191 115.833 139.385 119.874C142.673 123.813 147.807 125.782 154.787 125.782C158.976 125.782 163.209 124.87 167.499 123.054C171.789 121.136 175.777 118.057 179.461 113.812C179.959 117.35 181.307 120.122 183.499 122.142C185.864 124.214 189.044 125.337 192.159 125.024C194.654 124.768 197.026 123.711 199.06 122.215C199.73 121.719 200.357 121.187 200.927 120.581C201.691 119.772 202.376 118.787 202.441 117.664C202.47 117.211 202.333 116.664 201.9 116.511H201.893L201.864 116.475ZM179.274 103.972C179.274 105.03 179.195 106.109 178.863 107.123C178.733 107.51 178.574 107.882 178.373 108.232C177.983 108.91 177.414 109.392 176.959 109.997C176.419 110.705 175.835 111.369 175.207 112.018C172.994 114.308 170.499 116.467 167.6 117.817C167.449 117.89 167.312 117.948 167.16 118.006C163.468 119.618 160.181 120.428 157.289 120.428C152.804 120.428 149.466 119.064 147.274 116.336C145.082 113.608 143.986 109.822 143.986 104.979C143.986 100.135 145.377 96.8019 148.175 94.6792C150.237 93.111 152.689 92.2867 155.212 91.8418C158.71 91.229 162.322 91.2947 165.862 91.0467C170.066 90.7403 174.277 90.5215 178.481 90.361C178.683 90.361 178.892 90.3537 179.058 90.4485C179.31 90.6017 179.375 90.9373 179.36 91.229C179.13 95.4524 179.274 99.7196 179.274 103.965H179.281L179.274 103.972Z" fill="#88837F"/>
<path d="M88.8615 125.746C94.4424 125.746 99.6267 124.382 104.415 121.654C109.296 118.926 112.642 114.185 114.437 107.415L107.558 105.446C106.26 111.303 104.119 115.388 101.127 117.715C98.2351 120.035 94.3991 121.202 89.6113 121.202C82.1341 121.202 76.755 118.933 73.4598 114.389C70.2728 109.742 68.6721 102.222 68.6721 91.8203V82.7316C68.6721 72.2278 70.3665 64.7584 73.7555 60.3162C77.2453 55.7718 82.0259 53.5033 88.1116 53.5033C94.5938 53.5033 99.2734 55.5749 102.165 59.7107C105.056 63.7518 105.95 69.6529 104.854 77.4286L113.377 76.0646C114.178 70.9148 113.68 66.3194 111.885 62.2856C110.089 58.1425 107.147 54.9184 103.059 52.5915C99.0715 50.1698 94.0891 48.9589 88.1044 48.9589C78.4351 48.9589 71.0587 52.3435 65.9753 59.1053C60.9929 65.7723 58.498 74.6568 58.498 85.7587V88.7858C58.498 99.9972 60.9929 108.976 65.9753 115.746C71.0587 122.413 78.6874 125.739 88.8543 125.739L88.8615 125.746Z" fill="#88837F"/>
</svg>
