<svg width="513" height="208" viewBox="0 0 513 208" fill="none" xmlns="http://www.w3.org/2000/svg">
<path d="M68.8634 142.929H68.843C64.2226 136.732 57.9439 133.626 50.0204 133.626C45.6321 133.626 42.0696 134.396 38.1113 136.344C37.463 136.665 36.8214 136.999 36.1867 137.374C33.5456 138.94 30.1605 141.557 28.3861 144.026C28.2428 143.551 28.3452 135.032 28.236 130.347C28.6727 113.55 27.9357 104.174 27.1713 96.2904C26.5844 90.1737 24.148 86.1851 21.5614 83.5015C18.9748 80.8179 16.0266 79.4126 11.9522 79.861C7.87786 80.3093 4.91594 81.4135 1.96084 84.7061C1.96084 84.7061 1.08728 85.5092 0.534475 86.2989C0.227363 86.7406 0.0908693 86.9748 0.0089728 87.6574C-0.0388002 88.0924 0.0976943 88.7951 0.575424 89.036C0.855237 89.1699 1.45581 89.0628 1.49676 89.0494C1.83799 88.9156 2.35667 88.6613 2.43174 88.6144C3.40085 88.0857 5.22305 86.9347 7.22269 86.0044C8.18497 85.5561 11.9386 85.2482 13.8154 87.0752C15.9856 89.1966 16.245 93.9147 16.75 99.8641C17.2891 106.182 17.5553 122.631 17.5621 122.765C17.7669 130.401 17.6508 148.711 17.5621 155.182C17.4939 160.068 17.4734 171.833 17.3574 176.992C17.1458 186.89 16.7909 190.946 16.1153 194.165C15.7536 195.871 14.9346 199.692 10.9422 200.93C9.73418 201.305 7.16809 201.452 5.97377 200.803C5.31177 200.442 4.86816 199.913 4.72485 199.13C4.59518 198.421 4.89546 197.832 4.15839 197.792C3.9946 197.785 3.51687 198.146 3.34625 198.555C3.17564 198.963 3.16881 199.518 3.21658 199.947C3.42133 201.827 4.67707 203.862 7.51615 205.006C9.48849 205.802 13.8358 206.144 17.6235 205.501C21.4113 204.859 23.3426 202.235 24.5506 200.79C25.8678 199.204 26.4615 198.327 27.144 197.491C27.2464 197.363 27.8811 198.849 28.4544 199.686C29.362 201.017 31.0477 203.219 32.8699 204.163C34.8423 205.18 35.9069 205.655 38.5549 206.217C40.6774 206.672 42.677 206.833 44.977 206.887C47.7069 206.947 50.3139 206.96 52.9892 206.425C58.4353 205.341 64.3864 201.412 67.8807 197.263C73.2586 190.872 75.9475 182.306 75.9475 171.558V168.781C75.9475 157.665 73.5861 149.052 68.8703 142.935L68.8634 142.929ZM62.5165 175.848C62.339 181.242 61.6361 189.453 58.2033 193.89C54.7773 198.3 47.4066 200.589 42.0287 200.81C38.8893 200.937 35.5862 200.415 33.0337 198.595C30.4267 196.741 28.8843 193.723 28.2018 190.631C26.482 182.848 26.8437 173.124 27.1645 165.147C27.4852 157.21 29.3825 149.159 35.8933 143.872C37.5449 142.527 39.4012 141.396 41.4622 140.827C44.4446 139.991 47.7683 140.412 50.4367 141.945C60.4554 147.734 62.8645 165.723 62.5165 175.848Z" fill="#410B13"/>
<path d="M165.262 201.157C164.184 201.077 163.208 200.595 162.423 199.477C161.577 198.272 161.147 195.308 161.147 190.583V158.487C161.147 154.13 160.341 150.055 158.745 146.26C157.236 142.459 154.5 139.407 150.534 137.092C146.569 134.776 140.959 133.619 133.691 133.619C127.276 133.619 121.993 134.776 117.837 137.092C112.609 139.889 107.573 144.085 107.334 150.276C107.286 151.527 107.416 152.805 107.853 153.983C108.87 156.74 111.504 158.715 114.363 159.578C116.404 160.327 117.503 159.986 119.618 159.892C120.806 159.725 122.246 159.484 122.362 159.27C122.949 158.869 122.867 158.286 122.649 157.624C121.864 155.215 120.594 153.709 120.601 150.911C120.601 148.569 121.222 146.227 122.498 144.233C126.648 137.748 137.021 136.476 141.744 142.807C145.709 148.114 145.3 157.597 144.897 163.807C144.802 165.199 144.556 166.672 143.621 167.716C142.59 168.867 140.953 169.262 139.41 169.523C129.794 171.122 118.67 168.157 110.46 174.903C106.399 178.236 104.372 182.639 104.372 188.107C104.372 193.575 105.976 197.971 109.183 201.585C112.391 205.105 117.25 206.865 123.761 206.865C127.631 206.865 131.405 206.122 135.083 204.644C138.857 203.071 142.304 200.615 145.416 197.282C146.262 200.34 147.961 202.703 150.514 204.369C153.155 206.035 156.41 206.872 160.28 206.872C163.911 206.872 168.197 206.102 170.927 203.546C172.36 202.201 173.268 200.22 172.947 198.306C172.872 197.864 172.722 197.409 172.387 197.095C172.06 196.78 171.5 196.666 171.125 196.927C170.66 197.249 170.688 197.911 170.558 198.446C170.319 199.43 169.466 200.166 168.518 200.541C167.398 200.983 166.279 201.264 165.255 201.177L165.262 201.157ZM144.89 190.603C144.686 191.005 144.447 191.393 144.201 191.761C140.748 196.854 133.568 199.403 127.508 199.457C124.573 199.484 121.434 199.029 119.236 197.121C116.663 194.9 115.974 191.139 116.554 187.819C118.404 177.212 129.357 174.093 138.796 173.699C141.082 173.605 143.607 172.788 144.911 175.338C145.477 176.442 145.546 177.727 145.593 178.959C145.709 181.669 145.798 184.366 145.935 187.09L145.907 186.461C145.975 187.893 145.566 189.305 144.897 190.59L144.89 190.603Z" fill="#410B13"/>
<path d="M512.36 142.807V142.781C511.35 140.258 509.603 138.076 507.426 136.463C505.01 134.683 502.055 133.619 498.984 133.619C489.654 133.619 483.812 139.629 478.482 146.341C478.537 143.597 477.691 141.857 476.339 139.495C475.179 137.467 471.562 135.479 469.337 134.857C463.707 133.291 460.172 133.164 454.493 134.563C453.64 134.777 451.313 135.6 450.508 136.242C449.9 136.738 448.747 137.808 447.996 138.906C447.614 139.468 447.478 140.037 447.641 140.726C447.792 141.375 448.262 141.75 448.883 141.583C449.805 141.342 450.392 140.405 451.129 139.849C452.009 139.18 452.726 138.538 453.79 138.223C455.77 137.628 457.285 137.654 459.202 138.424C459.619 138.591 461.885 139.562 463.304 142.473C464.614 145.317 464.812 146.455 464.812 148.79V196.68C464.812 196.988 464.724 197.235 464.573 197.43C463.877 199.671 462.267 201.565 459.837 202.027C458.834 202.221 457.824 202.201 456.834 202.047C456.486 202.054 456.138 202.047 455.797 201.987C454.903 201.846 454.323 201.358 453.436 201.646C452.589 201.92 451.804 202.884 451.579 203.7C451.511 203.934 451.497 204.202 451.627 204.396C451.723 204.537 451.88 204.61 452.043 204.684C454.357 205.701 456.991 205.48 459.462 205.48H482.277C485.464 205.48 488.549 205.259 491.722 205.112C492.657 205.065 493.619 205.019 494.466 204.63C495.319 204.242 496.035 203.426 496.001 202.509C496.001 202.248 495.906 201.974 495.674 201.86C495.558 201.806 495.428 201.806 495.305 201.793C490.91 201.672 484.297 202.763 480.653 199.712C480.229 199.357 479.834 198.962 479.588 198.474C479.369 198.039 479.288 197.563 479.212 197.082C478.987 195.683 479.035 194.478 479.165 193.18V157.323C479.165 156.674 479.281 156.112 479.486 155.603C479.663 150.356 484.659 145.458 486.303 144.393C487.293 143.751 489.163 143.055 491.811 142.981C493.073 142.948 494.459 143.175 495.155 143.323C496.964 143.691 498.69 144.641 499.809 146.093C501.12 147.82 501.482 150.055 501.536 152.21C501.543 152.699 501.563 153.241 501.911 153.602C502.109 153.803 502.396 153.917 502.669 154.004C504.177 154.479 505.87 154.372 507.31 153.736C508.327 153.281 509.207 152.578 510.026 151.835C510.913 151.032 511.746 150.149 512.292 149.091C513.275 147.177 513.172 144.842 512.367 142.841L512.36 142.807Z" fill="#410B13"/>
<path d="M251.376 196.392C250.468 193.863 249.697 191.293 248.987 188.703C248.107 186.849 247.274 184.969 246.619 183.041C244.934 184.112 243.739 186.12 243.446 187.967C243.152 189.807 243.828 191.674 243.883 193.508C243.992 197.102 242.013 199.29 239.03 200.448C237.809 201.231 236.491 201.418 235.004 201.418C228.425 201.398 221.852 201.392 215.273 201.371C214.584 201.371 213.895 201.371 213.219 201.291C212.653 201.224 212.093 201.104 211.547 200.93C211.602 200.428 211.718 200.234 211.97 199.799C212.359 199.116 212.755 198.427 213.137 197.751C213.492 197.122 213.868 196.479 214.222 195.85C215.226 194.11 216.215 192.37 217.212 190.624C219.109 187.311 221.006 183.985 222.91 180.666L229.414 169.309C231.578 165.528 233.734 161.76 235.898 157.979C237.774 154.693 239.665 151.4 241.542 148.115C242.524 146.401 243.494 144.695 244.476 142.982C244.92 142.205 245.364 141.489 245.889 140.787C246.415 140.084 246.845 139.227 247.145 138.417C247.507 137.46 247.663 136.416 247.418 135.433C247.39 135.339 247.363 135.239 247.295 135.165C246.933 134.784 245.343 134.991 244.811 134.978H241.869C239.187 134.978 236.512 134.978 233.83 134.984C228.65 134.984 223.463 135.018 218.283 135.018H196.553C193.98 135.018 191.414 135.192 188.848 135.386C187.524 137.253 188.145 139.809 189.148 142.781C190.384 146.448 192.028 150.062 192.383 153.923C192.561 154.318 192.731 154.72 192.895 155.115C193.059 155.295 193.236 155.416 193.434 155.422C194.021 155.443 194.588 155.034 195.106 154.552C195.216 154.312 195.298 154.097 195.352 153.957C195.441 153.723 195.509 153.482 195.577 153.234C195.482 150.464 195.127 147.686 195.809 144.963C196.97 140.352 201.092 138.558 205.637 139.06C205.726 139.067 205.801 139.093 205.883 139.113C206.135 139.1 206.388 139.087 206.633 139.073C214.236 138.806 221.675 139.876 229.223 139.876C229.155 139.876 228.882 140.479 228.848 140.532L225.893 145.699L220.74 154.7L214.304 165.943L207.493 177.855L201.208 188.844L196.355 197.316C194.902 199.852 193.168 202.375 193.025 205.387C193.004 205.862 194.431 205.701 194.833 205.701H233.85C238.962 205.701 244.033 205.822 249.124 205.487C250.653 205.387 252.202 205.28 253.71 204.999C253.758 204.805 253.833 204.604 253.922 204.403C254.836 202.456 252.045 198.226 251.376 196.359V196.392Z" fill="#410B13"/>
<path d="M335.102 201.431C334.024 201.351 333.048 200.869 332.263 199.752C331.417 198.547 330.987 195.582 330.987 190.858V158.762C330.987 154.405 330.181 150.329 328.584 146.535C327.076 142.74 324.339 139.682 320.374 137.366C316.409 135.051 310.799 133.893 303.531 133.893C297.116 133.893 291.833 135.051 287.677 137.366C282.449 140.164 277.413 144.36 277.174 150.55C277.126 151.802 277.256 153.08 277.692 154.258C278.709 157.015 281.344 158.989 284.203 159.852C286.244 160.602 288.496 160.207 290.612 160.113C291.089 160.093 291.601 160.067 291.99 159.799C292.577 159.397 292.707 158.568 292.488 157.898C291.704 155.489 290.434 153.977 290.441 151.186C290.441 148.844 291.062 146.501 292.338 144.507C296.488 138.022 306.861 136.751 311.584 143.082C315.549 148.389 315.14 157.878 314.737 164.082C314.641 165.474 314.396 166.946 313.461 167.99C312.43 169.141 310.792 169.536 309.25 169.797C299.634 171.397 288.51 168.439 280.3 175.178C276.239 178.51 274.212 182.914 274.212 188.375C274.212 193.836 275.816 198.239 279.023 201.853C282.231 205.373 287.09 207.133 293.601 207.133C297.471 207.133 301.245 206.39 304.923 204.911C308.697 203.339 312.144 200.883 315.256 197.55C316.102 200.608 317.801 202.971 320.354 204.637C322.995 206.303 326.25 207.14 330.12 207.14C333.751 207.14 338.037 206.37 340.766 203.814C342.2 202.469 343.107 200.488 342.787 198.567C342.711 198.125 342.561 197.67 342.227 197.356C341.899 197.041 341.34 196.928 340.964 197.189C340.5 197.51 340.528 198.172 340.398 198.708C340.159 199.691 339.306 200.434 338.357 200.802C337.231 201.251 336.119 201.525 335.095 201.445L335.102 201.431ZM314.73 190.878C314.525 191.279 314.287 191.667 314.041 192.035C310.588 197.128 303.408 199.678 297.348 199.732C294.413 199.758 291.274 199.303 289.076 197.396C286.503 195.174 285.814 191.413 286.394 188.094C288.243 177.487 299.197 174.368 308.636 173.973C310.922 173.879 313.447 173.063 314.751 175.613C315.317 176.717 315.385 178.002 315.426 179.233C315.542 181.95 315.631 184.641 315.768 187.364L315.74 186.735C315.808 188.167 315.399 189.579 314.73 190.864V190.878Z" fill="#410B13"/>
<path d="M425.973 201.646C424.895 201.566 423.919 201.077 423.134 199.966C422.288 198.762 421.858 195.797 421.858 191.072V158.976C421.858 154.62 421.059 150.544 419.455 146.75C417.947 142.948 415.21 139.897 411.245 137.581C407.28 135.266 401.67 134.108 394.402 134.108C387.987 134.108 382.704 135.266 378.548 137.581C373.32 140.379 368.284 144.575 368.045 150.765C367.997 152.016 368.127 153.295 368.564 154.472C369.58 157.23 372.215 159.204 375.074 160.067C377.115 160.817 379.367 160.422 381.483 160.328C381.967 160.308 382.472 160.281 382.861 160.014C383.448 159.612 383.578 158.782 383.36 158.113C382.575 155.704 381.305 154.191 381.312 151.394C381.312 149.052 381.933 146.709 383.209 144.715C387.359 138.23 397.732 136.959 402.455 143.29C406.42 148.597 406.011 158.086 405.608 164.29C405.513 165.682 405.267 167.154 404.332 168.198C403.301 169.349 401.663 169.744 400.121 170.005C390.505 171.605 379.381 168.64 371.171 175.386C367.11 178.718 365.083 183.122 365.083 188.59C365.083 194.057 366.687 198.454 369.894 202.068C373.102 205.588 377.961 207.348 384.472 207.348C388.342 207.348 392.116 206.605 395.794 205.126C399.568 203.553 403.015 201.097 406.127 197.758C406.973 200.816 408.672 203.179 411.225 204.845C413.866 206.511 417.121 207.348 420.991 207.348C424.622 207.348 428.908 206.578 431.638 204.022C433.071 202.677 433.978 200.696 433.658 198.782C433.583 198.34 433.432 197.885 433.098 197.571C432.77 197.256 432.211 197.142 431.835 197.403C431.371 197.731 431.399 198.387 431.269 198.922C431.03 199.906 430.177 200.649 429.228 201.017C428.102 201.459 426.99 201.74 425.966 201.659L425.973 201.646ZM405.601 191.092C405.397 191.494 405.158 191.882 404.912 192.25C401.459 197.343 394.279 199.893 388.219 199.946C385.284 199.973 382.145 199.518 379.947 197.611C377.367 195.389 376.685 191.628 377.265 188.308C379.115 177.701 390.068 174.583 399.507 174.188C401.793 174.094 404.318 173.278 405.622 175.827C406.188 176.932 406.256 178.217 406.297 179.448C406.413 182.165 406.502 184.855 406.639 187.579L406.611 186.95C406.68 188.389 406.27 189.794 405.601 191.079V191.092Z" fill="#410B13"/>
<path d="M318.673 97.0647C318.318 95.1574 316.618 93.8122 315.028 92.6678C314.121 92.0187 313.001 91.3361 311.95 91.7443C311.261 92.012 310.824 92.7147 310.667 93.4308C310.51 94.1468 310.572 94.883 310.592 95.6191C310.749 100.966 308.347 105.095 304.607 107.725C301.529 109.894 297.557 111.051 293.38 111.051C286.119 111.051 280.877 108.97 277.67 104.801C276.066 102.606 275.076 100.023 274.408 97.426C273.739 94.8294 273.363 92.0187 273.172 89.2749C273.002 86.7854 272.237 82.9306 274.681 81.2442C276.339 80.0931 278.052 80.2136 279.942 80.247L285.163 80.3006C288.739 80.3407 292.357 80.5683 295.946 80.5482C298.396 80.5281 304.866 80.0864 305.74 79.9927C306.723 79.8923 312.244 78.8617 314.721 76.4258C317.205 73.9898 317.908 70.9113 317.949 70.3425C317.977 69.8071 318.093 67.7392 317.826 65.7115C317.185 60.8194 314.455 56.4561 314.455 56.4561C312.005 52.5679 308.75 49.6501 304.689 47.7026C300.628 45.7552 296.199 44.7848 291.387 44.7848C282.236 44.7848 275.254 47.89 270.442 54.0937C265.727 60.2104 263.365 68.3616 263.365 78.5472V81.3245C263.365 91.6038 265.774 99.8486 270.586 106.059C275.493 112.176 282.85 115.227 292.664 115.227C297.605 115.227 302.833 114.21 307.173 111.808C310.77 109.827 313.8 106.126 316.277 102.961C317.628 101.241 319.055 99.2196 318.652 97.078H318.659L318.673 97.0647ZM272.872 73.1733C273.336 67.1168 273.828 60.2974 277.527 55.1845C280.543 51.0153 285.17 48.934 291.394 48.934C296.677 48.934 300.969 50.6004 304.273 53.9331C307.187 56.7974 309.186 64.7277 309.152 67.5585C309.118 70.396 308.285 72.0892 307.548 72.7986C306.381 73.9362 303.324 74.8263 301.311 75.094C299.304 75.3617 295.093 75.3416 293.524 75.355C290.569 75.3951 287.62 75.4219 284.665 75.4554C282.133 75.4821 279.615 75.4821 277.09 75.703C274.831 75.9105 272.647 75.9707 272.865 73.1532H272.872V73.1733Z" fill="#88837F"/>
<path d="M254.377 5.46731C248.624 -0.000262955 240.386 -0.55572 236.162 0.354426C231.583 1.33819 227.14 3.75409 224.314 7.47498C220.54 12.4206 219.769 19.1128 219.264 25.0957C219.141 26.5747 219.114 40.0529 219.332 44.8646C219.38 45.922 218.561 46.5577 217.23 46.5577C214.323 46.5577 211.381 46.3904 208.481 46.6983C207.437 46.812 206.379 47.0864 205.567 47.7422C205.239 48.0099 204.946 48.3646 204.837 48.7795C204.734 49.1945 204.837 49.6763 205.185 49.9373C205.485 50.1582 205.894 50.1849 206.27 50.1983C207.505 50.2385 208.754 50.2719 209.989 50.2987C210.931 50.3255 211.832 50.1782 212.781 50.2184C214.186 50.2853 215.586 50.3388 216.991 50.4058C218.595 50.4995 219.046 50.7939 219.284 51.8981C219.53 53.0024 219.489 54.3073 219.489 57.5464V103.261C219.489 106.507 219.346 108.401 219.066 108.956C218.779 109.512 217.885 109.88 216.377 110.067L208.597 110.763V114.236H241.717V110.763L231.105 110.067C229.597 109.973 228.703 109.652 228.416 109.097C228.136 108.448 227.993 106.5 227.993 103.261C227.993 103.261 227.945 54.9096 227.993 52.6276C228.02 51.162 228.512 50.814 229.133 50.7404C229.31 50.6601 229.522 50.6132 229.754 50.6132H229.822C229.965 50.5664 230.108 50.5396 230.259 50.5396C232.04 50.5597 233.828 50.4727 235.596 50.3723C237.404 50.2719 239.226 50.205 241.042 50.1113C241.144 50.1113 241.246 50.1113 241.342 50.1381C242.222 50.0979 243.103 50.0712 243.99 50.0444C245.096 49.9908 246.201 49.944 247.3 49.8838C248.262 49.8168 249.218 49.7165 250.159 49.5893H250.125C250.944 49.422 251.756 49.1142 252.398 48.5788C253.033 48.0434 253.476 47.2336 253.415 46.4105C253.394 46.1428 253.333 45.8751 253.149 45.661C252.876 45.3263 252.391 45.2327 251.961 45.2059C251.115 45.159 250.262 45.2862 249.422 45.4C243.458 46.2164 237.315 46.5644 231.296 46.5644H230.381C228.532 46.5644 228.006 46.899 227.809 44.8713C227.433 41.1571 225.843 30.1149 227.044 20.6186C227.536 16.7103 227.986 12.3402 230.197 8.94058C232.559 5.30669 237.629 4.02178 241.806 4.58393C247.552 5.36023 252.221 9.64327 253.278 15.2447C254.384 21.1272 253.456 25.0622 251.34 30.6101C251.21 30.9514 251.088 31.3529 251.245 31.6875C251.367 31.9485 251.634 32.1025 251.886 32.2497C252.63 32.6646 253.408 33.0528 254.247 33.2134C255.087 33.374 256.008 33.2669 256.698 32.7717C257.387 32.2698 257.755 31.4533 258.069 30.6703C261.229 22.5392 260.308 12.2332 254.377 5.48069V5.46061V5.46731Z" fill="#88837F"/>
<path d="M191.064 106.861C190.586 106.7 190.15 107.156 189.836 107.544C189.126 108.427 188.3 109.203 187.372 109.853C186.335 110.595 185.181 111.171 183.966 111.566C182.677 111.981 181.23 112.188 179.974 111.68C179.251 111.392 178.548 110.863 178.022 110.254C178.015 110.247 178.002 110.227 177.988 110.221C177.968 110.194 177.94 110.167 177.92 110.14C175.825 107.852 176.166 104.157 176.514 100.758C176.862 97.3581 177.715 91.4288 178.186 86.2356C178.657 81.0357 178.186 68.4007 178.186 68.4007C178.186 64.2315 177.476 60.3901 176.063 56.87C174.739 53.2562 172.289 50.3852 168.706 48.2571C165.212 46.0352 160.216 44.9243 153.706 44.9243C145.591 44.9243 139.551 47.0525 135.593 51.3154C132.651 54.4072 130.024 59.3461 130.604 63.7162C130.782 65.0613 131.027 66.4399 131.785 67.5709C132.529 68.6818 133.75 69.4715 135.061 69.8128C135.334 69.8128 135.668 69.9533 135.941 70.0002C136.255 70.047 136.562 70.0805 136.876 70.0939C137.401 70.1139 137.934 70.0939 138.452 70.0002C138.691 69.9533 138.964 69.8864 139.087 69.679C139.265 69.3711 139.012 69.003 138.821 68.6952C138.371 67.9724 138.248 67.1024 138.064 66.2659C138.064 66.2257 138.043 66.1923 138.009 66.1923V65.8577C137.975 64.2649 137.961 62.7993 138.275 61.2467C138.589 59.6807 138.992 58.1081 139.579 56.609C140.711 53.738 142.506 51.7906 144.956 50.7733C147.407 49.6624 150.239 49.107 153.446 49.107C158.449 49.107 162.407 50.499 165.335 53.2762C168.263 55.9598 169.723 61.0125 169.723 68.4208V72.3425C169.723 74.5844 169.976 76.9936 169.546 79.1886C169.525 79.269 169.505 79.3626 169.443 79.4296C169.403 79.4697 169.348 79.4965 169.293 79.5233C168.461 79.9047 167.273 79.6906 166.338 79.6906H151.74C142.868 79.6906 136.596 81.2164 132.918 84.2748C129.239 87.3331 127.396 91.5961 127.396 97.057C127.396 101.969 128.905 106.272 131.928 109.98C135.04 113.594 139.899 115.4 146.506 115.4C150.471 115.4 154.477 114.564 158.538 112.898C162.598 111.137 166.372 108.313 169.86 104.418C170.331 107.664 171.607 110.207 173.682 112.061C175.92 113.962 178.93 114.992 181.878 114.704C184.239 114.47 186.485 113.5 188.409 112.128C189.044 111.673 189.638 111.184 190.177 110.629C190.9 109.886 191.549 108.983 191.61 107.952C191.637 107.537 191.508 107.035 191.098 106.895H191.091L191.064 106.861ZM169.682 95.3906C169.682 96.361 169.607 97.3514 169.293 98.2816C169.171 98.6363 169.02 98.9776 168.829 99.2989C168.461 99.9212 167.922 100.363 167.492 100.918C166.98 101.568 166.427 102.177 165.833 102.772C163.738 104.874 161.377 106.854 158.633 108.092C158.49 108.159 158.36 108.213 158.217 108.266C154.723 109.745 151.611 110.488 148.874 110.488C144.629 110.488 141.469 109.237 139.394 106.734C137.32 104.231 136.282 100.758 136.282 96.3141C136.282 91.8705 137.599 88.8121 140.247 86.8647C142.199 85.4258 144.52 84.6696 146.908 84.2614C150.218 83.6992 153.637 83.7594 156.988 83.5319C160.967 83.2508 164.953 83.0501 168.932 82.9028C169.123 82.9028 169.321 82.8961 169.478 82.9832C169.716 83.1237 169.778 83.4315 169.764 83.6992C169.546 87.574 169.682 91.489 169.682 95.3839H169.689L169.682 95.3906Z" fill="#88837F"/>
<path d="M84.107 115.367C89.3893 115.367 94.2963 114.116 98.8279 111.613C103.448 109.11 106.615 104.76 108.314 98.5497L101.803 96.7428C100.575 102.117 98.5481 105.864 95.7158 107.999C92.9791 110.127 89.3484 111.198 84.8168 111.198C77.7395 111.198 72.6483 109.117 69.5294 104.947C66.5129 100.684 64.9978 93.7848 64.9978 84.2416V75.9031C64.9978 66.2662 66.6016 59.4134 69.8092 55.3378C73.1124 51.1685 77.6372 49.0872 83.3972 49.0872C89.5326 49.0872 93.9619 50.9878 96.6986 54.7823C99.4353 58.4899 100.282 63.9039 99.2442 71.0378L107.311 69.7864C108.069 65.0616 107.598 60.8455 105.898 57.1447C104.199 53.3435 101.414 50.3855 97.5449 48.2507C93.7708 46.0289 89.0549 44.918 83.3904 44.918C74.2385 44.918 67.2568 48.0232 62.4454 54.2269C57.7295 60.3436 55.3682 68.4948 55.3682 78.6804V81.4577C55.3682 91.7436 57.7295 99.9818 62.4454 106.192C67.2568 112.309 74.4773 115.361 84.1002 115.361L84.107 115.367Z" fill="#88837F"/>
</svg>
