<?xml version="1.0" encoding="UTF-8"?><svg id="Layer_1" xmlns="http://www.w3.org/2000/svg" viewBox="0 0 568.38 245.64"><defs><style>.cls-1{fill:#88837f;}.cls-1,.cls-2{stroke-width:0px;}.cls-2{fill:#432918;}</style></defs><path class="cls-2" d="m67.19,174.53h-.02c-4.9-6.69-11.55-10.04-19.95-10.04-4.65,0-8.43.83-12.62,2.93-.69.35-1.37.71-2.04,1.11-2.8,1.69-5.25,3.97-7.13,6.64-.15-.51-.12-1.07.07-1.56.8-15.01,2.85-29.68,2.15-44.82-.29-6.31-1.1-13.12-5.41-17.73-6.16-6.6-12.96-6.56-19.19-3.62-.36.22-.72.45-1.07.7,0,0,0,0,0,0,0,0,0,0,0,0-.09.08-.19.16-.28.24-.14.12-.27.25-.4.37-.31.32-.55.77-.8,1.14-.1.14-.19.28-.29.42-.07.24-.14.48-.19.72,0,.03,0,.03-.01.05,0,.02,0,.05,0,.09,0,.19-.01.38,0,.56,0,.09.06.44.03.35.02.11.04.23.07.34.03.13.08.26.12.38-.04-.13.11.24.15.31.08.14.16.26.25.39-.07-.13.19.24.24.28.05.05.1.09.14.13.06.04.12.08.19.11.02,0,.02.01.03.02.1.02.21.04.25.05,0,0,0,0,0,0,0,0,0,0,0,0,.29,0,.57,0,.86,0,.37-.16.75-.31,1.13-.44,1.04-.71,2.22-1.13,3.51-1.21,1.72-.11,3.42.55,4.61,1.76,4.26,8.67,2.31,33.74,1.81,51.11-.15,5.18-.23,45.37-.67,49.48-.96,8.94-3.04,16.17-9.34,22.6-2.7,2.76-5.35,5.57-.19,7.76,3.21,1.37,6.02-.48,8.41-2.57s4.83-7.68,8.77-6.93c2.08.4,4.48,2.86,6.42,3.89,2.54,1.35,5.22,2.44,8.03,3.05,2.25.49,4.56.67,6.86.8,2.89.16,5.82.24,8.66-.34,5.77-1.17,12.08-5.41,15.78-9.89,5.7-6.9,8.55-16.15,8.55-27.75v-3c0-12-2.5-21.3-7.5-27.9Zm-6.73,35.54h0c-.19,5.82-.93,14.69-4.57,19.48-3.63,4.76-11.44,7.23-17.14,7.47-3.33.14-6.83-.43-9.53-2.39-2.76-2-4.4-5.26-5.12-8.6-1.82-8.4-1.44-18.9-1.1-27.51.34-8.57,2.35-17.26,9.25-22.97,1.75-1.45,3.72-2.67,5.9-3.29,3.16-.9,6.68-.45,9.51,1.21,10.62,6.25,13.17,25.67,12.8,36.6Z"/><path class="cls-2" d="m169.36,237.39c-1.14-.09-2.18-.61-3.01-1.81-.9-1.3-1.35-4.5-1.35-9.6v-34.65c0-4.7-.85-9.1-2.55-13.2-1.6-4.1-4.5-7.4-8.7-9.9s-10.15-3.75-17.85-3.75c-6.8,0-12.4,1.25-16.8,3.75-5.54,3.02-10.88,7.55-11.13,14.23-.05,1.35.09,2.73.55,4,1.08,2.98,3.87,5.11,6.9,6.04,2.16.81,4.55.38,6.79.28.51-.02,1.05-.05,1.46-.34.62-.43.76-1.33.53-2.05-.83-2.6-2.18-4.23-2.17-7.25,0-2.53.66-5.06,2.01-7.21,4.4-7,15.39-8.37,20.4-1.54,4.2,5.73,3.77,15.97,3.34,22.67-.1,1.5-.36,3.09-1.35,4.22-1.09,1.24-2.83,1.67-4.46,1.95-10.19,1.73-21.98-1.47-30.68,5.81-4.3,3.6-6.45,8.35-6.45,14.25s1.7,10.65,5.1,14.55c3.4,3.8,8.55,5.7,15.45,5.7,4.1,0,8.1-.8,12-2.4,4-1.7,7.65-4.35,10.95-7.95.9,3.3,2.7,5.85,5.4,7.65,2.8,1.8,6.25,2.7,10.35,2.7,3.85,0,8.39-.83,11.28-3.59,1.52-1.45,2.48-3.59,2.14-5.66-.08-.48-.24-.97-.59-1.31s-.94-.46-1.34-.18c-.49.35-.46,1.06-.6,1.64-.25,1.06-1.16,1.86-2.16,2.26-1.19.48-2.37.78-3.46.69h0Zm-21.59-11.39c-.22.43-.47.85-.73,1.25-3.66,5.5-11.27,8.25-17.69,8.31-3.11.03-6.44-.46-8.77-2.52-2.73-2.4-3.46-6.46-2.84-10.04,1.96-11.45,13.57-14.82,23.57-15.24,2.42-.1,5.1-.98,6.48,1.77.6,1.19.67,2.58.72,3.91.12,2.93.22,5.84.36,8.78l-.03-.68c.07,1.55-.36,3.07-1.07,4.46h0Z"/><path class="cls-2" d="m537.23,174.37c-1.07-2.72-2.92-5.08-5.23-6.82-2.56-1.92-5.69-3.07-8.95-3.07-9.89,0-16.08,6.49-21.73,13.73.06-2.96-.99-5.49-2.42-8.04-1.23-2.19-3.62-3.27-5.98-3.94-5.97-1.69-12.38-1.74-18.4-.23-.21.06-.42.11-.63.15-.79.22-1.57.47-2.35.74-1.89,1.25-3.19,4.07-3.08,6.11.34.2.83.26,1.49.08.98-.26,1.6-1.27,2.38-1.87.93-.72,2-1.28,3.13-1.62,2.1-.64,4.43-.53,6.46.3.44.18.88.4,1.25.7,2.21,1.81,1.79,5.46,1.79,7.99v18.35c0,9.73-.03,19.45.2,29.18.04,1.92.09,3.85-.25,5.73-.3,1.67-.92,3.33-2.08,4.57-1.38,1.46-3.56,2.18-5.55,1.86-.95-.15-1.56-.68-2.5-.37-.9.3-1.73,1.34-1.97,2.22-.07.25-.09.54.05.75.1.15.27.23.44.31,2.45,1.1,5.24.86,7.86.86h24.18c3.38,0,6.65-.24,10.01-.4.99-.05,2.01-.1,2.91-.52.9-.42,1.66-1.3,1.63-2.29,0-.28-.1-.58-.35-.7-.12-.06-.26-.06-.39-.07-4.66-.13-11.67,1.05-15.53-2.25-.45-.38-.87-.81-1.13-1.34-.23-.47-.32-.98-.4-1.5-.24-1.51-.19-2.81-.05-4.21v-38.71c0-.7.12-1.31.34-1.86.19-5.66,5.24-11.12,10.22-13.07.62-.24,1.27-.3,1.9-.21,1.49-.26,3.01-.29,4.49.02,1.92.4,3.75,1.42,4.93,2.99,1.39,1.86,1.77,4.28,1.83,6.6.01.53.03,1.11.4,1.5.21.22.51.34.8.43,1.6.51,3.39.4,4.92-.29,1.08-.49,2.01-1.25,2.88-2.05.94-.87,1.82-1.82,2.4-2.96,1.04-2.07.93-4.59.08-6.75v-.03Z"/><path class="cls-2" d="m266.12,240.57c.11-.15.07-.36-.04-.78-.15-.55-.37-1.07-.62-1.58-.49-1.02-1.12-1.97-1.68-2.95-1.65-2.9-3.1-5.92-4.55-8.93-2.02-4.19-4.06-8.46-4.79-13.06-.17-1.11-.45-2.45-1.51-2.79-.85-.28-1.66.28-2.24,1.03-.21.27-.39.57-.53.87-1.78,3.7-1.55,8.04-.74,12.06.41,2.07.97,4.13.95,6.24s-.72,4.33-2.38,5.63c-1.42,1.11-2.95,1.36-4.71,1.36-6.97-.02-13.94-.03-20.91-.05-.73,0-1.46,0-2.18-.09-.6-.07-1.19-.2-1.77-.39.06-.54.18-.75.45-1.22.41-.74.83-1.48,1.24-2.21.38-.68.77-1.37,1.15-2.05,1.06-1.88,2.11-3.76,3.17-5.64,2.01-3.58,4.02-7.17,6.04-10.75l6.89-12.26c2.29-4.08,4.58-8.15,6.87-12.23,1.99-3.55,3.99-7.1,5.98-10.65,1.04-1.85,2.07-3.69,3.11-5.54.47-.84.94-1.61,1.5-2.37s1.01-1.68,1.33-2.56c.38-1.03.55-2.16.29-3.22-.03-.1-.06-.21-.13-.29-.38-.41-2.07-.19-2.63-.2h-3.12c-2.84,0-5.68,0-8.52,0-5.49,0-10.99.04-16.48.04h-23.03c-3.79,0-7.56.36-11.34.64l.48.02c-.62.09-1.25.2-1.77.54s-.89.99-.71,1.59c.2.67.76,1.43,1.09,2.06.38.71.78,1.4,1.18,2.1,1.66,2.92,3.12,5.95,4.57,8.97,2.03,4.22,4.08,8.51,4.81,13.13.18,1.11.45,2.46,1.52,2.81,1.17.38,2.25-.8,2.78-1.9,1.79-3.72,1.56-8.08.75-12.12-.42-2.08-.98-4.15-.96-6.27.02-2.12.72-4.35,2.39-5.66,1.62-1.27,3.82-1.45,5.88-1.52,8.06-.29,15.94.87,23.94.87-.07,0-.36.65-.4.71l-3.13,5.58-5.46,9.72-6.82,12.14-7.22,12.86-6.66,11.86-5.14,9.15c-1.54,2.74-3.38,5.46-3.53,8.71-.02.51,1.49.34,1.92.34h41.35c5.42,0,10.79.13,16.19-.23,2.43-.16,4.92-.33,7.23-1.16.34-.12.54-.2.63-.33l.02-.04Z"/><path class="cls-2" d="m349.36,237.69c-1.14-.09-2.18-.61-3.01-1.81-.9-1.3-1.35-4.5-1.35-9.6v-34.65c0-4.7-.85-9.1-2.55-13.2-1.6-4.1-4.5-7.4-8.7-9.9s-10.15-3.75-17.85-3.75c-6.8,0-12.4,1.25-16.8,3.75-5.54,3.02-10.88,7.55-11.13,14.23-.05,1.35.09,2.73.55,4,1.08,2.98,3.87,5.11,6.9,6.04,2.16.81,4.55.38,6.79.28.51-.02,1.05-.05,1.46-.34.62-.43.76-1.33.53-2.05-.83-2.6-2.18-4.23-2.17-7.25,0-2.53.66-5.06,2.01-7.21,4.4-7,15.39-8.37,20.4-1.54,4.2,5.73,3.77,15.97,3.34,22.67-.1,1.5-.36,3.09-1.35,4.22-1.09,1.24-2.83,1.67-4.46,1.95-10.19,1.73-21.98-1.47-30.68,5.81-4.3,3.6-6.45,8.35-6.45,14.25s1.7,10.65,5.1,14.55c3.4,3.8,8.55,5.7,15.45,5.7,4.1,0,8.1-.8,12-2.4,4-1.7,7.65-4.35,10.95-7.95.9,3.3,2.7,5.85,5.4,7.65,2.8,1.8,6.25,2.7,10.35,2.7,3.85,0,8.39-.83,11.28-3.59,1.52-1.45,2.48-3.59,2.14-5.66-.08-.48-.24-.97-.59-1.31s-.94-.46-1.34-.18c-.49.35-.46,1.06-.6,1.64-.25,1.06-1.16,1.86-2.16,2.26-1.19.48-2.37.78-3.46.69Zm-21.59-11.39c-.22.43-.47.85-.73,1.25-3.66,5.5-11.27,8.25-17.69,8.31-3.11.03-6.44-.46-8.77-2.52-2.73-2.4-3.46-6.46-2.84-10.04,1.96-11.45,13.57-14.82,23.57-15.24,2.42-.1,5.1-.98,6.48,1.77.6,1.19.67,2.58.72,3.91.12,2.93.22,5.84.36,8.78l-.03-.68c.07,1.55-.36,3.07-1.07,4.46h0Z"/><path class="cls-2" d="m445.67,237.92c-1.14-.09-2.18-.61-3.01-1.81-.9-1.3-1.35-4.5-1.35-9.6v-34.65c0-4.7-.85-9.1-2.55-13.2-1.6-4.1-4.5-7.4-8.7-9.9s-10.15-3.75-17.85-3.75c-6.8,0-12.4,1.25-16.8,3.75-5.54,3.02-10.88,7.55-11.13,14.23-.05,1.35.09,2.73.55,4,1.08,2.98,3.87,5.11,6.9,6.04,2.16.81,4.55.38,6.79.28.51-.02,1.05-.05,1.46-.34.62-.43.76-1.33.53-2.05-.83-2.6-2.18-4.23-2.17-7.25,0-2.53.66-5.06,2.01-7.21,4.4-7,15.39-8.37,20.4-1.54,4.2,5.73,3.77,15.97,3.34,22.67-.1,1.5-.36,3.09-1.35,4.22-1.09,1.24-2.83,1.67-4.46,1.95-10.19,1.73-21.98-1.47-30.68,5.81-4.3,3.6-6.45,8.35-6.45,14.25s1.7,10.65,5.1,14.55c3.4,3.8,8.55,5.7,15.45,5.7,4.1,0,8.1-.8,12-2.4,4-1.7,7.65-4.35,10.95-7.95.9,3.3,2.7,5.85,5.4,7.65,2.8,1.8,6.25,2.7,10.35,2.7,3.85,0,8.39-.83,11.28-3.59,1.52-1.45,2.48-3.59,2.14-5.66-.08-.48-.24-.97-.59-1.31s-.94-.46-1.34-.18c-.49.35-.46,1.06-.6,1.64-.25,1.06-1.16,1.86-2.16,2.26-1.19.48-2.37.78-3.46.69h0Zm-21.59-11.39c-.22.43-.47.85-.73,1.25-3.66,5.5-11.27,8.25-17.69,8.31-3.11.03-6.44-.46-8.77-2.52-2.73-2.4-3.46-6.46-2.84-10.04,1.96-11.45,13.57-14.82,23.57-15.24,2.42-.1,5.1-.98,6.48,1.77.6,1.19.67,2.58.72,3.91.12,2.93.22,5.84.36,8.78l-.03-.68c.07,1.55-.36,3.07-1.07,4.46h0Z"/><path class="cls-1" d="m407.87,104.78c-.38-2.06-2.18-3.51-3.86-4.75-.96-.7-2.15-1.44-3.26-1-.73.29-1.19,1.05-1.36,1.82-.17.77-.1,1.57-.08,2.36.17,5.77-2.38,10.23-6.34,13.07-3.26,2.34-7.47,3.59-11.9,3.59-7.7,0-13.25-2.25-16.65-6.75-1.7-2.37-2.75-5.16-3.46-7.96s-1.11-5.84-1.31-8.8c-.18-2.69-.99-6.85,1.6-8.67,1.76-1.24,3.57-1.11,5.58-1.08l5.53.06c3.79.04,7.62.29,11.43.27,2.6-.02,9.45-.5,10.38-.6,1.04-.11,6.89-1.22,9.52-3.85s3.38-5.95,3.42-6.57c.03-.58.15-2.81-.13-5-.68-5.28-3.57-9.99-3.57-9.99-2.6-4.2-6.05-7.35-10.35-9.45-4.3-2.1-9-3.15-14.1-3.15-9.7,0-17.1,3.35-22.2,10.05-5,6.6-7.5,15.4-7.5,26.4v3c0,11.1,2.55,20,7.65,26.7,5.2,6.6,13,9.9,23.4,9.9,5.24,0,10.78-1.1,15.38-3.69,3.81-2.14,7.02-6.13,9.65-9.55,1.43-1.86,2.94-4.04,2.52-6.35h.01Zm-48.54-25.79c.49-6.54,1.01-13.9,4.93-19.42,3.2-4.5,8.1-6.75,14.7-6.75,5.6,0,10.15,1.8,13.65,5.4,3.09,3.09,5.21,11.65,5.17,14.71s-.92,4.89-1.7,5.66c-1.24,1.23-4.48,2.19-6.61,2.48s-6.59.27-8.25.28c-3.13.04-6.26.07-9.39.11-2.68.03-5.35.03-8.03.27-2.39.22-4.71.29-4.48-2.75h.01Z"/><path class="cls-1" d="m339.73,5.9C333.63,0,324.9-.6,320.42.38c-4.85,1.06-9.56,3.67-12.56,7.69-4,5.34-4.82,12.56-5.35,19.02-.13,1.6-.16,16.15.07,21.34.05,1.14-.82,1.83-2.23,1.83-3.08,0-6.2-.18-9.27.15-1.11.12-2.23.42-3.09,1.13-.35.29-.66.67-.77,1.12s0,.97.37,1.25c.32.24.75.27,1.15.28,1.31.04,2.63.08,3.94.11,1,.03,1.95-.13,2.96-.09,1.49.07,2.97.13,4.46.2,1.7.1,2.18.42,2.43,1.61.26,1.19.22,2.6.22,6.1v49.35c0,3.5-.15,5.55-.45,6.15s-1.25,1-2.85,1.2l-8.25.75v3.75h35.1v-3.75l-11.25-.75c-1.6-.1-2.55-.45-2.85-1.05-.3-.7-.45-2.8-.45-6.3,0,0-.05-52.2,0-54.66.03-1.58.55-1.96,1.21-2.04.19-.09.41-.14.66-.14h.07c.15-.05.3-.08.46-.08,1.89.02,3.78-.07,5.66-.18,1.92-.11,3.85-.18,5.77-.28.11,0,.22,0,.32.03.93-.04,1.87-.07,2.81-.1,1.17-.06,2.34-.11,3.51-.17,1.02-.07,2.03-.18,3.03-.32h-.04c.87-.18,1.73-.51,2.41-1.09.67-.58,1.14-1.45,1.08-2.34-.02-.29-.09-.58-.28-.81-.29-.36-.8-.46-1.26-.49-.9-.05-1.8.09-2.69.21-6.32.88-12.83,1.26-19.21,1.26h-.97c-1.96,0-2.52.36-2.73-1.83-.4-4.01-2.08-15.93-.81-26.18.52-4.22,1-8.94,3.34-12.61,2.5-3.92,7.88-5.31,12.3-4.7,6.09.84,11.04,5.46,12.16,11.51,1.17,6.35.19,10.6-2.05,16.59-.14.37-.27.8-.1,1.16.13.28.41.45.68.61.79.45,1.61.87,2.5,1.04.89.17,1.87.06,2.6-.48s1.12-1.42,1.45-2.27c3.35-8.78,2.37-19.9-3.91-27.19v-.02Z"/><path class="cls-1" d="m272.63,115.36c-.51-.17-.97.32-1.3.74-.75.95-1.63,1.79-2.61,2.49-1.1.8-2.32,1.42-3.61,1.85-1.37.45-2.9.67-4.23.12-.77-.31-1.51-.88-2.07-1.54-.01-.01-.02-.03-.04-.04-.02-.03-.05-.06-.07-.09-2.22-2.47-1.86-6.46-1.49-10.13s1.27-10.07,1.77-15.68,0-19.25,0-19.25c0-4.5-.75-8.65-2.25-12.45-1.4-3.9-4-7-7.8-9.3-3.7-2.4-9-3.6-15.9-3.6-8.6,0-15,2.3-19.2,6.9-3.12,3.34-5.9,8.67-5.29,13.39.19,1.45.45,2.94,1.25,4.16.79,1.2,2.08,2.05,3.47,2.42.29,0,.64.15.93.2.33.05.66.09.99.1.56.02,1.12,0,1.67-.1.25-.05.54-.12.67-.35.19-.33-.08-.73-.28-1.06-.48-.78-.61-1.72-.8-2.62,0-.04-.02-.08-.06-.08v-.36c-.04-1.72-.05-3.3.28-4.98.33-1.69.76-3.39,1.38-5.01,1.2-3.1,3.1-5.2,5.7-6.3,2.6-1.2,5.6-1.8,9-1.8,5.3,0,9.5,1.5,12.6,4.5,3.1,2.9,4.65,8.35,4.65,16.35v4.23c0,2.42.27,5.02-.19,7.39-.02.09-.04.19-.11.26-.04.04-.1.07-.16.1-.88.41-2.14.18-3.13.18h-15.47c-9.4,0-16.05,1.65-19.95,4.95-3.9,3.3-5.85,7.9-5.85,13.8,0,5.3,1.6,9.95,4.8,13.95,3.3,3.9,8.45,5.85,15.45,5.85,4.2,0,8.45-.9,12.75-2.7,4.3-1.9,8.3-4.95,12-9.15.5,3.5,1.85,6.25,4.05,8.25,2.37,2.05,5.56,3.16,8.69,2.85,2.5-.25,4.88-1.3,6.92-2.78.67-.49,1.3-1.02,1.87-1.62.77-.8,1.45-1.78,1.52-2.89.03-.45-.11-.99-.54-1.14h-.01Zm-22.66-12.38c0,1.05-.08,2.12-.41,3.12-.13.38-.29.75-.49,1.1-.39.67-.96,1.15-1.42,1.75-.54.7-1.13,1.36-1.76,2-2.22,2.27-4.72,4.41-7.63,5.74-.15.07-.29.13-.44.19-3.7,1.6-7,2.4-9.9,2.4-4.5,0-7.85-1.35-10.05-4.05-2.2-2.7-3.3-6.45-3.3-11.25s1.4-8.1,4.2-10.2c2.07-1.55,4.53-2.37,7.06-2.81,3.51-.61,7.13-.54,10.68-.79,4.22-.3,8.44-.52,12.66-.68.2,0,.41-.01.58.09.25.15.32.48.3.77-.23,4.18-.09,8.41-.09,12.61h.01Z"/><path class="cls-1" d="m159.27,124.54c5.6,0,10.8-1.35,15.6-4.05,4.9-2.7,8.25-7.4,10.05-14.1l-6.9-1.95c-1.3,5.8-3.45,9.85-6.45,12.15-2.9,2.3-6.75,3.45-11.55,3.45-7.5,0-12.9-2.25-16.2-6.75-3.2-4.6-4.8-12.05-4.8-22.35v-9c0-10.4,1.7-17.8,5.1-22.2,3.5-4.5,8.3-6.75,14.4-6.75,6.5,0,11.2,2.05,14.1,6.15,2.9,4,3.8,9.85,2.7,17.55l8.55-1.35c.8-5.1.3-9.65-1.5-13.65-1.8-4.1-4.75-7.3-8.85-9.6-4-2.4-9-3.6-15-3.6-9.7,0-17.1,3.35-22.2,10.05-5,6.6-7.5,15.4-7.5,26.4v3c0,11.1,2.5,20,7.5,26.7,5.1,6.6,12.75,9.9,22.95,9.9h0Z"/></svg>