<svg width="225" height="208" viewBox="0 0 225 208" fill="none" xmlns="http://www.w3.org/2000/svg">
<path d="M208.075 13.6706C201.979 7.7093 189.838 6.19656 180.962 10.2903L175.773 12.6812C166.893 16.7749 164.639 24.9229 170.734 30.8842C176.83 36.8455 188.971 38.3583 197.847 34.2646L203.036 31.8736C204.198 31.3395 205.24 30.7301 206.168 30.0705L192.87 144.665C192.87 144.665 224.778 124.061 224.778 73.3447C224.778 22.6287 208.075 13.6706 208.075 13.6706Z" fill="#E9DFD7"/>
<path d="M171.322 187.126C163.517 195.984 147.223 202.866 127.069 205.644C120.73 206.537 114.025 207.007 107.055 207.007C95.0755 207.007 83.8304 205.608 73.9971 203.164C64.1819 200.719 55.7821 197.224 49.5646 192.98C49.1812 192.718 48.7978 192.456 48.4287 192.195C47.049 191.18 45.7733 190.151 44.6409 189.069C-7.92233 144.311 0.495381 52.317 0.495381 52.317H213.267C213.267 52.317 221.441 141.704 171.322 187.126Z" fill="#D4BFAF"/>
<path d="M171.322 187.126C167.219 191.782 160.772 195.89 152.652 199.145C142.647 203.157 132.312 193.915 135.279 183.552C148.04 138.977 149.126 76.32 149.126 76.32C149.126 76.32 146.051 71.219 162.066 52.317H213.267C213.267 52.317 221.441 141.704 171.322 187.126Z" fill="#BEA087"/>
<path d="M160.769 165.051C154.236 172.457 140.615 178.207 123.765 180.53C118.458 181.283 112.85 181.666 107.034 181.666C97.0106 181.666 87.5966 180.512 79.3904 178.469C71.1841 176.408 64.146 173.49 58.9571 169.945C58.6238 169.719 58.312 169.507 57.9967 169.281C56.8428 168.443 55.7785 167.586 54.836 166.679C49.4034 162.051 44.7591 156.828 40.7778 151.218C12.5074 111.421 17.9221 52.3242 17.9221 52.3242H195.855C195.855 52.3242 202.682 127.072 160.772 165.051H160.769Z" fill="#2B180D"/>
<path d="M25.4797 167.141C-5.66471 119.662 0.495381 52.317 0.495381 52.317H38.0759C35.2305 60.8055 32.0161 65.5229 32.0161 65.5229L41.8206 161.449C42.7739 170.773 30.6185 174.977 25.4797 167.141Z" fill="#E9DFD7"/>
<path d="M40.7814 151.215C12.5074 111.421 17.9221 52.3242 17.9221 52.3242H38.0758C35.2305 60.8127 32.0161 65.5301 32.0161 65.5301L40.7814 151.215Z" fill="#432918"/>
<path d="M213.615 49.6321C213.615 70.753 184.398 88.7265 143.5 95.5589C132.133 97.4624 119.856 98.4948 107.055 98.4948C48.2029 98.4948 0.491798 76.6211 0.491798 49.6321C0.491798 22.6431 48.2029 0.772949 107.052 0.772949C149.154 0.772949 185.549 11.9715 202.854 28.2172C209.752 34.6804 213.611 41.9465 213.611 49.6357L213.615 49.6321Z" fill="#FEFEFE"/>
<path d="M213.615 49.6321C213.615 68.4624 190.394 84.7906 156.372 92.9529C145.664 95.5195 134.738 88.5939 133.036 77.7144C132.853 76.5387 132.76 75.3557 132.76 74.1584C132.76 55.3174 155.995 38.9677 190.043 30.8089C200.245 28.3642 210.877 34.494 213.092 44.7533C213.439 46.3593 213.615 47.9867 213.615 49.6321Z" fill="#E9DFD7"/>
<path d="M197.46 49.6321C197.46 53.0196 196.378 56.3067 194.336 59.4326C183.961 75.3987 148.81 87.1565 107.055 87.1565C65.2999 87.1565 30.1455 75.3987 19.7748 59.4326C17.7322 56.3067 16.6499 53.0232 16.6499 49.6321C16.6499 28.9127 57.1295 12.1077 107.059 12.1077C156.988 12.1077 197.468 28.9127 197.468 49.6321H197.46Z" fill="#D4BFAF"/>
<path d="M183.463 49.1732C190.885 54.0341 190.885 64.8311 183.463 69.6919C167.438 80.1879 139.203 87.1565 107.055 87.1565C74.9074 87.1565 46.6727 80.1879 30.6472 69.6919C23.2257 64.8311 23.2257 54.0341 30.6472 49.1732C46.6727 38.6773 74.9074 31.7087 107.055 31.7087C139.203 31.7087 167.438 38.6773 183.463 49.1732Z" fill="#432918"/>
<path d="M42.5732 101.033C39.6168 97.3692 33.7039 100.111 34.5676 104.739C36.345 114.278 41.1613 133.334 52.6536 145.339C64.9093 158.144 53.5495 114.64 42.5732 101.029V101.033Z" fill="#936037"/>
</svg>
