<svg width="194" height="253" viewBox="0 0 194 253" fill="none" xmlns="http://www.w3.org/2000/svg">
<path d="M193.301 64.8198L185.12 122.772C184.542 126.963 183.023 130.963 180.68 134.474C178.686 137.444 177.325 140.779 176.659 144.289L165.543 202.279C165.543 208.984 163.795 215.377 160.595 221.23C152.432 236.218 134.867 247.658 113.318 251.533C108.845 252.353 104.214 252.842 99.4426 252.967C98.6222 252.985 97.8166 253 96.9963 253C95.4771 253 93.9542 252.967 92.4533 252.879C88.223 252.688 84.0809 252.199 80.097 251.445C73.2291 250.151 66.7806 248.092 60.906 245.401C60.4866 245.21 60.0672 245.015 59.6479 244.791C47.9206 239.185 38.658 230.939 33.3793 221.23C31.7901 218.296 30.5468 215.237 29.7081 212.076C28.8694 208.896 28.4316 205.631 28.4316 202.279L17.315 144.289C16.6492 140.779 15.2881 137.444 13.2943 134.474C10.9695 130.963 9.43183 126.963 8.8543 122.772L0.680534 64.8198L97 64.1727L193.301 64.8198Z" fill="#D4BFAF"/>
<path d="M56.1054 220.333C58.0514 230.498 45.1249 236.74 38.5145 228.773C36.5318 226.384 34.8102 223.862 33.3829 221.233C31.7938 218.3 30.5505 215.241 29.7117 212.08C28.9429 209.164 28.5089 206.172 28.4463 203.11C28.4353 202.562 28.3838 202.01 28.2808 201.474L17.3187 144.293C16.6529 140.782 15.2918 137.448 13.298 134.477C10.9732 130.967 9.43551 126.967 8.85798 122.776L2.29174 76.2272C1.43832 70.1871 6.10641 64.7793 12.2091 64.7389L16.8037 64.7058C20.8023 64.6764 24.4404 67.0145 26.0773 70.6577L27.9534 74.8339C28.2734 75.5471 28.5089 76.297 28.656 77.0654L56.1054 220.333Z" fill="#E9DFD7"/>
<path d="M193.301 64.8198L185.12 122.772C184.542 126.963 183.023 130.963 180.68 134.474C178.686 137.444 177.325 140.779 176.659 144.289L165.543 202.279C165.543 208.984 163.795 215.377 160.595 221.23C153.885 233.545 140.83 243.467 124.431 248.772C112.479 252.64 100.55 242.677 101.896 230.192L119.77 64.3271L193.297 64.8161L193.301 64.8198Z" fill="#BEA087"/>
<path d="M179.808 64.7132L172.782 114.563C172.274 118.162 170.965 121.603 168.953 124.625C168.007 126.059 167.224 127.577 166.609 129.165C166.12 130.423 165.752 131.731 165.491 133.062L155.949 182.931V182.949C155.949 188.695 154.43 194.198 151.686 199.227C144.939 211.627 130.714 221.2 113.149 224.884C108.01 225.968 102.591 226.542 97 226.542C72.2175 226.542 51.018 215.241 42.2961 199.224C39.5519 194.195 38.0327 188.691 38.0327 182.945V182.927L28.4905 133.058C28.2293 131.731 27.8614 130.437 27.3722 129.18C26.7763 127.592 25.9927 126.055 25.0289 124.621C23.0204 121.6 21.7072 118.159 21.1996 114.56L14.1735 64.7095L97 64.1691L179.808 64.7095V64.7132Z" fill="#683C11"/>
<path d="M179.808 64.7132L172.749 114.773C172.241 118.387 170.792 121.758 168.817 124.835C168.798 124.871 168.78 124.886 168.765 124.923C166.79 128.015 164.274 130.757 161.092 132.592C150.045 138.985 137.129 143.771 123.026 146.425C114.705 147.999 105.987 148.837 97 148.837C73.1261 148.837 51.1394 142.951 33.6956 133.066C30.4291 131.213 27.5267 128.698 25.5697 125.485C25.36 125.136 25.1319 124.787 24.8892 124.438C22.8807 121.504 21.6925 118.081 21.2032 114.571L14.1772 64.7205L97.0037 64.1801L179.812 64.7205L179.808 64.7132Z" fill="#936037"/>
<path d="M179.808 64.7132L172.753 114.769C172.241 118.387 170.796 121.765 168.817 124.838C167.934 126.21 167.194 127.658 166.613 129.169C166.124 130.426 165.756 131.735 165.495 133.066L155.953 182.934V182.953C155.953 188.699 154.433 194.202 151.689 199.231C147.584 206.778 140.709 213.278 131.994 218.039C123.949 222.436 114.304 215.715 115.448 206.62L131.656 77.8705L148.802 64.5073L179.808 64.7168V64.7132Z" fill="#432918"/>
<path d="M179.808 64.7132L172.749 114.773C172.241 118.387 170.792 121.758 168.817 124.835C168.798 124.871 168.78 124.886 168.765 124.923C166.79 128.015 164.274 130.757 161.092 132.592C150.045 138.985 137.129 143.771 123.026 146.425L131.659 77.8705L148.805 64.5073L179.812 64.7168L179.808 64.7132Z" fill="#683C11"/>
<path d="M194 57.9194C194 88.8367 153.4 114.093 102.312 115.732C100.546 115.784 98.7804 115.82 97 115.82C43.4144 115.82 0 89.8992 0 57.9194C0 25.9397 43.4144 0 97 0C147.179 0 188.46 22.7413 193.474 51.9271C193.823 53.9013 194 55.8938 194 57.9194Z" fill="#FEFEFE"/>
<path d="M194 57.9194C194 87.675 156.387 112.192 108.01 115.449C104.714 115.67 101.793 113.118 101.786 109.821C101.786 109.799 101.786 109.78 101.786 109.758C101.786 80.0027 139.399 55.471 187.772 52.2102C191.068 51.9896 193.989 54.5409 193.996 57.8386C193.996 57.8643 193.996 57.89 193.996 57.9157L194 57.9194Z" fill="#E9DFD7"/>
<path d="M177.675 57.9121C177.675 62.1398 176.766 66.2278 175.052 70.1209C174.195 72.0951 173.128 74.0325 171.855 75.9037C161.158 91.7447 136.776 103.431 107.432 105.667C104.026 105.946 100.528 106.086 97 106.086C63.0947 106.086 34.0635 93.5975 22.1266 75.9037C21.9169 75.5875 21.7256 75.2934 21.5306 74.9773C20.5153 73.4038 19.6435 71.7826 18.9262 70.1209C17.212 66.2241 16.3034 62.1398 16.3034 57.9121C16.3034 31.2923 52.4305 9.72002 96.9963 9.72002C98.0962 9.72002 99.1998 9.7384 100.281 9.77149C132.178 10.5214 159.304 22.348 171.222 38.9941C175.364 44.7915 177.671 51.1845 177.671 57.9121H177.675Z" fill="#936037"/>
<path d="M177.675 57.9121C177.675 62.1398 176.766 66.2278 175.052 70.1209C174.195 72.0951 173.128 74.0325 171.855 75.9037C161.897 90.6528 140.08 101.796 113.439 105.071C109.537 105.549 105.597 103.884 103.379 100.638C103.368 100.619 103.357 100.604 103.342 100.586C103.132 100.288 102.956 100.027 102.783 99.7295C101.837 98.2627 101.017 96.7591 100.355 95.204C98.7657 91.5719 97.927 87.7817 97.927 83.8334C97.927 59.434 130.574 39.5749 171.226 38.9977C175.368 44.7952 177.675 51.1882 177.675 57.9157V57.9121Z" fill="#683C11"/>
<path d="M40.913 115.765L44.6136 133.187C45.4229 136.992 47.1592 140.536 49.6679 143.506C51.4778 145.65 52.7028 148.219 53.2325 150.973L54.1227 155.616C54.5457 157.814 57.1538 158.778 58.9048 157.377C60.9354 155.752 61.6453 152.984 60.6448 150.583L55.9215 139.268C55.344 137.882 54.8731 136.455 54.5163 134.999L51.2755 121.791C50.3485 118.008 47.7845 114.835 44.2825 113.129C42.5021 112.266 40.5083 113.824 40.9166 115.758L40.913 115.765Z" fill="#FEFEFE"/>
<path d="M72.3021 241.729C70.805 241.309 69.3335 240.854 67.8879 240.357C63.3632 238.813 60.2659 234.626 59.9532 229.858L56.3041 174.045C56.2011 171.703 59.3462 170.865 60.413 172.946L61.6196 175.288C62.1787 176.372 62.5981 177.49 62.9144 178.659L77.8053 236.336C78.6587 239.644 75.5981 242.655 72.3058 241.732L72.3021 241.729Z" fill="#FEFEFE"/>
<path d="M172.105 49.7875C172.105 53.7211 171.259 57.5261 169.666 61.1545C168.868 62.9927 167.875 64.7977 166.69 66.5366C155.577 83.0099 128.569 94.6342 97.0037 94.6342C65.4379 94.6342 38.4152 83.0099 27.3023 66.5366C27.1073 66.2425 26.9271 65.9667 26.7505 65.6763C25.8051 64.2132 24.9921 62.7022 24.3263 61.1545C22.7335 57.5297 21.8874 53.7248 21.8874 49.7875C21.8874 25.0059 55.5169 4.92618 97.0074 4.92618C98.0337 4.92618 99.0563 4.94089 100.068 4.97398C140.124 5.91877 172.113 25.6235 172.113 49.7875H172.105Z" fill="#CA9E67"/>
<path d="M119.163 29.8696C119.163 31.432 118.829 32.9466 118.192 34.3877C117.876 35.1193 117.482 35.8362 117.008 36.5273C112.59 43.0747 101.856 47.6958 89.3118 47.6958C76.7679 47.6958 66.0265 43.0747 61.6086 36.5273C61.5313 36.4096 61.4614 36.2994 61.3878 36.1854C61.0126 35.6045 60.6889 35.0016 60.4241 34.3877C59.7913 32.9466 59.4529 31.4357 59.4529 29.8696C59.4529 20.0209 72.8208 12.0397 89.3081 12.0397C89.7164 12.0397 90.1248 12.0471 90.5221 12.0581C106.443 12.4331 119.156 20.2672 119.156 29.8696H119.163Z" fill="#936037"/>
<path d="M136.294 70.0253C136.294 71.0032 136.085 71.948 135.687 72.8524C135.489 73.3082 135.242 73.7567 134.948 74.1905C132.185 78.2859 125.472 81.1754 117.626 81.1754C109.779 81.1754 103.059 78.2859 100.296 74.1905C100.248 74.117 100.204 74.0508 100.16 73.9773C99.9245 73.6134 99.7221 73.2384 99.5566 72.8524C99.1593 71.9517 98.9496 71.0069 98.9496 70.0253C98.9496 63.8639 107.311 58.8716 117.626 58.8716C117.88 58.8716 118.137 58.8753 118.387 58.8826C128.345 59.1179 136.298 64.0147 136.298 70.0217L136.294 70.0253Z" fill="#936037"/>
<path d="M152.476 28.7005C142.875 24.0832 131.104 28.4836 131.104 28.4836C131.104 28.4836 138.571 22.0134 128.97 17.3924C119.369 12.775 88.0243 27.8918 111.861 39.3543C135.698 50.8169 162.077 33.3142 152.476 28.6969V28.7005Z" fill="#FEFEFE"/>
<path d="M137.085 49.1993C118.722 42.152 103.257 44.99 100.693 45.5415C101.539 44.1629 105.722 35.9023 90.7685 26.9249C88.1494 25.3515 83.4408 25.3772 80.8254 26.9506C73.0158 31.6526 61.3952 42.1299 85.6553 53.9086H85.6516C85.6921 53.9307 85.7362 53.9491 85.7767 53.9711C85.8172 53.9932 85.854 54.0116 85.8981 54.0336H85.9018C110.375 65.691 129.471 58.8091 137.832 54.3718C140.631 52.8866 140.3 50.4382 137.082 49.203L137.085 49.1993Z" fill="#FEFEFE"/>
<path d="M119.388 67.9299C95.0246 57.9966 77.5294 59.8568 74.6527 60.2612C75.1898 58.7356 77.3381 49.4934 56.385 37.6338C52.7138 35.5568 47.0966 35.145 44.5143 36.7332C37.7604 40.8947 29.0349 49.9456 49.1824 62.8824H49.1787C49.1787 62.8824 49.1934 62.8897 49.2008 62.8934C49.9218 63.3566 50.6796 63.8235 51.4778 64.2977C56.0576 67.9262 53.2619 72.5252 53.2619 72.5252C53.2619 72.5252 62.37 70.5988 69.8118 73.0105C70.3268 73.2053 70.8454 73.4038 71.3531 73.5876C71.5775 73.6832 71.8055 73.7678 72.0262 73.8707L71.9931 73.8119C98.1698 83.0908 114.679 77.8594 122.062 74.0288C124.895 72.5583 123.655 69.6724 119.388 67.9335V67.9299Z" fill="#FEFEFE"/>
</svg>
