<svg width="186" height="206" viewBox="0 0 186 206" fill="none" xmlns="http://www.w3.org/2000/svg">
<path d="M171.691 15.4245C166.469 10.6016 156.068 9.37945 148.464 12.6887L144.019 14.6223C136.415 17.9316 134.48 24.5251 139.702 29.348C144.924 34.1709 155.325 35.3931 162.929 32.0838L167.375 30.1502C168.37 29.7178 169.263 29.2258 170.059 28.6899L158.666 121.391C158.666 121.391 186 104.722 186 63.6975C186 22.673 171.691 15.4245 171.691 15.4245Z" fill="#2B180D"/>
<path d="M179.852 55.4086V139.457H179.434C179.434 139.457 179.016 159.093 159.024 180.052C147.638 194.374 123.874 204.593 95.8664 205.862C93.9123 205.944 91.9317 206 89.9345 206C61.7976 206 37.2372 197.009 23.9998 183.618L23.9567 183.578H23.9434C0.44788 161.347 0 139.454 0 139.454V55.4086H179.852Z" fill="#683C11"/>
<path d="M179.852 55.4086V123.537C179.852 133.117 176.236 142.434 169.465 149.554L169.336 149.692C158.328 163.546 137.251 174.042 111.675 177.909C106.844 178.645 101.851 179.137 96.7456 179.372C94.5029 179.454 92.2336 179.51 89.9312 179.51C57.6008 179.51 29.3644 169.194 14.1597 153.807C14.1464 153.794 14.1165 153.778 14.1033 153.753C13.0914 152.798 12.1061 151.826 11.1672 150.87C3.99112 143.569 0 133.989 0 124.029V55.4086H179.852Z" fill="#2B180D"/>
<path d="M179.852 55.4086V123.998C179.852 133.437 176.153 142.541 169.465 149.554L169.336 149.692C162.402 158.42 151.47 165.815 137.934 171.061C125.4 175.916 111.675 167.031 111.675 154.236V55.4086H179.852Z" fill="#683C11"/>
<path d="M179.852 53.099C179.852 81.0431 143.312 103.942 96.9214 106.06C94.6223 106.157 92.2933 106.211 89.9345 106.211C66.094 106.211 44.4265 100.733 28.326 91.7951C23.2334 88.9653 18.6916 85.7845 14.8298 82.3123C11.4724 79.3195 8.60927 76.0948 6.32342 72.7072C2.24272 66.6401 0 60.0247 0 53.099C0 26.2769 33.6773 4.099 77.4204 0.52021C81.5143 0.178626 85.6813 0 89.9345 0C116.436 0 140.276 6.7784 156.722 17.5461C171.1 26.96 179.852 39.4231 179.852 53.099Z" fill="#DDBD9E"/>
<path d="M179.852 53.1053C179.852 79.1816 148.033 100.864 106.085 105.368C99.9438 106.026 93.7332 104.196 89.1913 100.234C79.464 91.745 73.7743 81.5163 73.7743 70.4978C73.7743 44.4341 105.597 22.7482 147.565 18.2481C153.703 17.59 159.913 19.4201 164.452 23.3781C174.176 31.8613 179.852 42.0869 179.852 53.1053Z" fill="#CA9E67"/>
<path d="M161.539 53.1053C161.539 56.261 160.962 59.3353 159.83 62.2873C154.897 75.4743 139.52 86.3486 119.08 91.7324C110.169 94.0953 100.319 95.3959 89.9312 95.3959C62.2289 95.3959 38.2026 86.1041 26.3122 72.5098C23.5055 69.3258 21.3789 65.8974 20.0352 62.2904C18.9072 59.3384 18.3266 56.2642 18.3266 53.1084C18.3266 36.1389 35.2499 21.5041 59.6843 14.7821C68.8708 12.2406 79.1256 10.8335 89.9312 10.8335C101.473 10.8335 112.368 12.4474 122.016 15.3023C145.452 22.2562 161.536 36.5777 161.536 53.1116L161.539 53.1053Z" fill="#CA9E67"/>
<path d="M67.6864 34.1803C67.6864 37.336 67.1092 40.4103 65.9778 43.3623C62.0199 53.942 51.3471 63.0269 36.7229 68.9874C30.1938 71.648 22.4637 68.721 20.075 62.397C20.0618 62.3625 20.0485 62.3249 20.0352 62.2873C18.9072 59.3353 18.3266 56.261 18.3266 53.1053C18.3266 38.6836 30.5455 25.951 49.2105 18.3264C55.8391 15.6188 63.6091 18.6241 66.011 25.0547C67.1092 27.9942 67.6864 31.0465 67.6864 34.1803Z" fill="#683C11"/>
<path d="M161.539 53.1053C161.539 56.261 160.962 59.3353 159.83 62.2873C154.897 75.4743 139.52 86.3486 119.08 91.7324C100.116 86.1167 85.9666 75.6623 81.2655 63.1052C80.1375 60.1532 79.5569 57.0789 79.5569 53.9232C79.5569 39.5798 91.653 26.8974 110.162 19.254C117.64 16.1672 126.229 16.2425 133.581 19.5894C150.578 27.3236 161.532 39.4607 161.532 53.1022L161.539 53.1053Z" fill="#DDBD9E"/>
<path d="M153.862 52.4127C158.782 58.1601 158.782 66.4145 153.862 72.1619C142.065 85.9443 117.862 95.3959 89.9312 95.3959C62 95.3959 37.7912 85.9443 26.0003 72.1619C21.0836 66.4145 21.0836 58.1632 26.0003 52.4159C37.7945 38.6366 61.99 29.1944 89.9312 29.1944C117.872 29.1944 142.065 38.6366 153.859 52.4127H153.862Z" fill="#2B180D"/>
<path d="M147.393 54.8163C151.815 59.984 151.815 67.4017 147.393 72.5693C136.789 84.9572 115.036 93.4529 89.9312 93.4529C64.8266 93.4529 43.0662 84.9572 32.4697 72.5693C28.0506 67.4017 28.0506 59.9871 32.4697 54.8195C43.0696 42.4347 64.8167 33.9484 89.9312 33.9484C115.046 33.9484 136.786 42.4347 147.389 54.8195L147.393 54.8163Z" fill="#2B180D"/>
<path d="M144.685 53.8323C148.899 58.7555 148.902 65.8223 144.685 70.7486C134.583 82.5504 113.855 90.645 89.9345 90.645C66.0143 90.645 45.2791 82.5504 35.1802 70.7454C30.9668 65.8223 30.9668 58.7555 35.1802 53.8323C45.2791 42.0305 66.0043 33.9453 89.9311 33.9453C113.858 33.9453 134.58 42.0305 144.682 53.8323H144.685Z" fill="#2B180D"/>
<path d="M28.3227 91.7951V139.893C28.3227 143.418 25.3003 144.976 21.568 143.377C17.8489 141.779 14.8265 137.639 14.8265 134.114V82.3123C18.6882 85.7845 23.2301 88.9653 28.3227 91.7951Z" fill="#FEFEFE"/>
</svg>
