<svg width="134" height="142" viewBox="0 0 134 142" fill="none" xmlns="http://www.w3.org/2000/svg">
<path d="M131.339 42.3832C131.339 42.3832 122.454 101.024 108.373 123.345C108.3 123.483 108.215 123.61 108.14 123.737C107.453 124.782 106.766 125.744 106.07 126.609C98.7902 135.419 84.3515 141.546 67.5536 141.969C66.9311 141.989 66.2974 142 65.6726 142C53.6085 142 42.6338 139.063 34.4983 134.256C30.7808 132.07 27.6436 129.48 25.2645 126.607C24.5464 125.709 23.8393 124.717 23.1412 123.628C23.0678 123.521 23.0033 123.416 22.9411 123.31C15.9685 112.217 10.2655 92.1994 6.28111 74.8432C2.2612 57.2469 0 42.3832 0 42.3832H131.339Z" fill="#CBC9C7"/>
<path d="M23.1456 123.63C23.8438 124.717 24.5508 125.711 25.269 126.609C24.4663 125.649 23.7593 124.655 23.1456 123.63Z" fill="#EAEAEA"/>
<path d="M108.142 123.737C107.539 124.719 106.843 125.68 106.072 126.609C106.77 125.742 107.455 124.782 108.142 123.737Z" fill="#EAEAEA"/>
<path d="M131.339 42.3832C131.339 42.3832 122.454 101.024 108.373 123.345C108.3 123.483 108.215 123.61 108.14 123.737C107.453 124.782 106.766 125.744 106.07 126.609C101.59 132.032 94.3968 136.437 85.6121 139.123C79.0108 141.14 73.0833 134.516 75.9114 128.219C86.6327 104.35 87.4131 71.7815 87.4131 71.7815C87.4131 71.7815 70.7754 69.4047 74.9998 54.4987C76.7963 48.1708 78.8663 44.9602 81.7701 42.381H131.336L131.339 42.3832Z" fill="#AEA6A0"/>
<path d="M131.339 41.0514C131.339 62.6543 104.656 80.3596 70.7776 81.9982C69.0989 82.0716 67.398 82.1139 65.6749 82.1139C37.9668 82.1139 14.272 71.3924 4.61578 56.2108C1.63642 51.5215 0 46.4076 0 41.0514C0 20.3156 24.5931 3.1684 56.5367 0.402443C59.5272 0.137853 62.5688 0 65.6749 0C85.0274 0 102.437 5.24065 114.447 13.5652C124.949 20.8447 131.339 30.4789 131.339 41.0536V41.0514Z" fill="#EAEAEA"/>
<path d="M131.339 41.0514C131.339 61.2113 108.102 77.976 77.4678 81.4579C72.9832 81.9671 68.4475 80.553 65.1324 77.4891C58.0286 70.9255 53.8753 63.0167 53.8753 54.501C53.8753 34.3499 77.1143 17.5852 107.762 14.1055C112.244 13.5963 116.78 15.0104 120.093 18.0721C127.192 24.629 131.339 32.5378 131.339 41.0536V41.0514Z" fill="#CBC9C7"/>
<path d="M117.965 41.0514C117.965 43.4927 117.542 45.8696 116.718 48.1508C113.116 58.3453 101.885 66.7543 86.9595 70.9166C80.4516 72.7443 73.2589 73.7471 65.6726 73.7471C45.4441 73.7471 27.897 66.5631 19.2124 56.0529C17.1624 53.5916 15.6105 50.939 14.6278 48.1508C13.8029 45.8696 13.3804 43.4927 13.3804 41.0514C13.3804 27.9309 25.7403 16.618 43.5831 11.4196C50.2911 9.45407 57.7818 8.36681 65.6726 8.36681C74.1016 8.36681 82.0569 9.61415 89.1029 11.822C106.216 17.1983 117.963 28.271 117.963 41.0514H117.965Z" fill="#CBC9C7"/>
<path d="M49.4285 26.4211C49.4285 28.8625 49.006 31.2393 48.1811 33.5206C45.2907 41.7006 37.4955 48.7245 26.8165 53.3314C22.0495 55.3881 16.4043 53.1247 14.6611 48.2353C14.6522 48.2064 14.6411 48.1797 14.6322 48.1508C13.8073 45.8696 13.3849 43.4927 13.3849 41.0514C13.3849 29.903 22.3096 20.0577 35.9369 14.1633C40.7772 12.0688 46.4513 14.3923 48.2056 19.3662C49.006 21.6385 49.4285 23.9998 49.4285 26.4211Z" fill="#AEA6A0"/>
<path d="M117.965 41.0514C117.965 43.4927 117.542 45.8696 116.718 48.1508C113.116 58.3453 101.885 66.7543 86.9595 70.9166C73.1099 66.5742 62.78 58.4943 59.3448 48.7845C58.52 46.5032 58.0975 44.1264 58.0975 41.6851C58.0975 30.5968 66.9311 20.7914 80.4472 14.8815C85.9078 12.4935 92.1801 12.5535 97.5496 15.1416C109.963 21.1205 117.963 30.5034 117.963 41.0514H117.965Z" fill="#EAEAEA"/>
<path d="M112.36 40.5155C115.953 44.9602 115.953 51.3392 112.36 55.7839C103.746 66.4386 86.0702 73.7448 65.6749 73.7448C45.2796 73.7448 27.5991 66.4364 18.9879 55.7817C15.3971 51.337 15.3971 44.958 18.9879 40.5155C27.5991 29.863 45.2707 22.5635 65.6749 22.5635C86.079 22.5635 103.744 29.863 112.36 40.5155Z" fill="#936037"/>
<path d="M102.125 45.9363C104.931 49.4048 104.931 54.3876 102.125 57.8584C95.3996 66.1762 81.5989 71.8816 65.6749 71.8816C49.7509 71.8816 35.9458 66.1762 29.2222 57.8561C26.4185 54.3853 26.4185 49.4048 29.2222 45.9363C35.9458 37.6184 49.742 31.9197 65.6726 31.9197C81.6033 31.9197 95.3973 37.6184 102.123 45.9363H102.125Z" fill="#CA9E67"/>
<path d="M32.9464 125.522C33.6757 128.819 29.6402 131.127 27.2389 128.755C26.5341 128.059 25.876 127.343 25.269 126.607C24.5508 125.709 23.8438 124.717 23.1456 123.628C23.0723 123.521 23.0078 123.416 22.9455 123.31C17.9629 115.385 13.6295 102.901 10.1076 90.0893C9.08705 86.3784 14.0475 84.0483 16.2264 87.2211C22.5164 96.375 29.3534 109.275 32.9464 125.52V125.522Z" fill="#EAEAEA"/>
<path d="M97.1049 38.8235C91.9355 36.202 85.5988 38.7012 85.5988 38.7012C85.5988 38.7012 89.6187 35.0259 84.4515 32.4044C79.2821 29.783 62.4087 38.3655 75.2422 44.8757C88.0734 51.3859 102.274 41.4449 97.1071 38.8235H97.1049Z" fill="#EAEAEA"/>
<path d="M88.8205 50.461C78.9352 46.461 70.6108 48.0708 69.2301 48.3843C69.6859 47.6016 71.936 42.9102 63.8873 37.814C62.4776 36.9202 59.9429 36.9358 58.5355 37.8296C54.3311 40.5 48.0766 46.4477 61.1369 53.1358H61.1347C61.1569 53.1491 61.1792 53.158 61.2014 53.1713C61.2236 53.1825 61.2436 53.1936 61.2659 53.2069H61.2681C74.4417 59.8261 84.7228 55.9173 89.2229 53.3981C90.7304 52.5555 90.5503 51.1636 88.8183 50.4632L88.8205 50.461Z" fill="#EAEAEA"/>
<path d="M79.2932 61.0957C66.1774 55.457 56.759 56.5132 55.2115 56.74C55.5006 55.8728 56.6567 50.6277 45.3774 43.8929C43.4008 42.7123 40.377 42.4788 38.9874 43.3815C35.3521 45.7428 30.6541 50.8834 41.502 58.2297H41.4998C41.4998 58.2297 41.5065 58.2341 41.5132 58.2363C41.9023 58.4987 42.3091 58.7655 42.7383 59.0323C45.204 61.0935 43.6988 63.7038 43.6988 63.7038C43.6988 63.7038 48.6014 62.6098 52.6079 63.9773C52.8859 64.0884 53.1638 64.2018 53.4373 64.3063C53.5573 64.3597 53.6818 64.4086 53.7997 64.4686L53.7819 64.4353C67.8738 69.7026 76.7608 66.7321 80.734 64.5576C82.2592 63.7238 81.5922 62.0851 79.2932 61.0957Z" fill="#EAEAEA"/>
<path d="M133.707 93.8181C131.092 114.507 118.685 120.768 110.806 128.281C109.612 129.409 108.529 130.565 107.597 131.808C105.605 134.458 101.385 133.58 100.596 130.36C100.471 129.822 100.36 129.22 100.269 128.539C99.2016 120.497 109.97 114.274 109.97 114.274C109.97 114.274 124.657 103.043 122.927 90.0048C121.718 80.8843 114.183 82.7253 111.257 82.5274C110.192 82.4563 109.247 83.1144 108.867 84.1016C108.375 85.3712 106.999 87.1411 103.224 88.0682C102.459 88.255 101.778 88.3462 101.176 88.3817C96.7847 88.5374 96.26 84.8998 96.26 84.8998C96.26 84.8998 94.5124 76.3818 102.895 72.1706C108.498 69.3491 121.84 68.3041 129.1 75.7059C129.1 75.7059 129.1 75.717 129.102 75.7259C132.71 79.3924 134.807 85.1578 133.707 93.8181Z" fill="#EAEAEA"/>
<path d="M122.93 90.0048C121.72 80.8843 114.185 82.7253 111.259 82.5274C110.194 82.4563 109.249 83.1144 108.869 84.1016C108.378 85.3712 107.001 87.1411 103.226 88.0682C103.219 88.0682 103.21 88.0727 103.204 88.0749C102.181 88.3239 101.267 87.3812 101.498 86.354C102.114 83.6302 103.877 79.0522 108.818 78.3963C115.908 77.4558 121.347 78.045 122.932 90.0048H122.93Z" fill="#CBC9C7"/>
<path d="M133.707 93.8181C132.132 106.272 127.01 113.498 121.464 118.916C119.059 121.266 115.312 118.125 117.207 115.345C122.223 107.986 128.617 99.619 130.309 94.6318C131.214 91.9459 131.521 89.2845 131.49 86.8453C131.472 85.3356 133.727 85.2245 133.873 86.7275C134.08 88.8398 134.04 91.1966 133.707 93.8203V93.8181Z" fill="#CBC9C7"/>
</svg>
