<svg width="189" height="247" viewBox="0 0 189 247" fill="none" xmlns="http://www.w3.org/2000/svg">
<path d="M188.133 63.06L180.171 119.439C179.609 123.516 178.13 127.408 175.849 130.823C173.909 133.713 172.584 136.957 171.936 140.372L161.117 196.787C161.117 203.311 159.416 209.53 156.301 215.224C148.357 229.805 131.261 240.935 110.288 244.705C105.935 245.502 101.427 245.978 96.7839 246.099C95.9855 246.117 95.2014 246.132 94.4031 246.132C92.9244 246.132 91.4422 246.099 89.9815 246.014C85.8643 245.828 81.8329 245.352 77.9556 244.619C71.2713 243.36 64.9952 241.357 59.2776 238.739C58.8694 238.553 58.4613 238.364 58.0532 238.145C46.6394 232.691 37.6245 224.669 32.4869 215.224C30.9402 212.37 29.7301 209.394 28.9138 206.318C28.0975 203.225 27.6715 200.049 27.6715 196.787L16.8521 140.372C16.204 136.957 14.8794 133.713 12.9389 130.823C10.6762 127.408 9.17967 123.516 8.61757 119.439L0.662339 63.06L94.4066 62.4306L188.133 63.06Z" fill="#91837A"/>
<path d="M54.6054 214.351C56.4993 224.24 43.9185 230.313 37.4848 222.563C35.5551 220.238 33.8796 217.785 32.4904 215.227C30.9438 212.373 29.7337 209.398 28.9174 206.322C28.1691 203.486 27.7467 200.575 27.6858 197.596C27.675 197.063 27.6249 196.526 27.5247 196.004L16.8556 140.376C16.2076 136.96 14.8829 133.716 12.9425 130.827C10.6798 127.411 9.18325 123.52 8.62115 119.443L2.23047 74.1578C1.39986 68.2817 5.94315 63.0207 11.8827 62.9814L16.3544 62.9492C20.2461 62.9206 23.7869 65.1952 25.3801 68.7394L27.206 72.8023C27.5175 73.4961 27.7467 74.2257 27.8899 74.9732L54.6054 214.351Z" fill="#AEA6A0"/>
<path d="M188.133 63.06L180.171 119.439C179.609 123.516 178.13 127.408 175.849 130.823C173.909 133.713 172.584 136.957 171.936 140.372L161.117 196.787C161.117 203.311 159.416 209.53 156.301 215.224C149.771 227.205 137.065 236.858 121.104 242.019C109.472 245.781 97.8615 236.089 99.1719 223.943L116.568 62.5808L188.129 63.0565L188.133 63.06Z" fill="#77665C"/>
<path d="M175.001 62.9563L168.163 111.453C167.669 114.954 166.394 118.302 164.436 121.242C163.516 122.637 162.753 124.114 162.155 125.659C161.679 126.882 161.321 128.155 161.067 129.45L151.78 177.964V177.982C151.78 183.572 150.301 188.926 147.63 193.819C141.064 205.882 127.219 215.195 110.124 218.779C105.122 219.834 99.8486 220.392 94.4066 220.392C70.2867 220.392 49.654 209.398 41.1653 193.815C38.4945 188.923 37.0158 183.569 37.0158 177.979V177.961L27.7288 129.446C27.4746 128.155 27.1165 126.896 26.6404 125.673C26.0604 124.128 25.2978 122.633 24.3598 121.238C22.405 118.298 21.1268 114.951 20.6328 111.449L13.7946 62.9527L94.4066 62.427L175.001 62.9527V62.9563Z" fill="#432918"/>
<path d="M175.001 62.9563L168.13 111.657C167.636 115.173 166.226 118.452 164.303 121.446C164.285 121.481 164.267 121.496 164.253 121.531C162.33 124.539 159.882 127.207 156.785 128.992C146.033 135.211 133.463 139.868 119.737 142.45C111.638 143.981 103.153 144.796 94.4102 144.796C71.1746 144.796 49.7757 139.07 32.7983 129.453C29.6191 127.651 26.7943 125.205 24.8896 122.079C24.6856 121.739 24.4636 121.399 24.2273 121.059C22.2725 118.205 21.1161 114.876 20.6399 111.46L13.8017 62.9635L94.4138 62.4377L175.008 62.9635L175.001 62.9563Z" fill="#683C11"/>
<path d="M175.001 62.9563L168.134 111.653C167.636 115.173 166.229 118.459 164.303 121.449C163.444 122.783 162.724 124.192 162.159 125.662C161.682 126.885 161.324 128.159 161.07 129.453L151.783 177.968V177.986C151.783 183.576 150.305 188.93 147.634 193.822C143.638 201.165 136.947 207.488 128.465 212.119C120.635 216.397 111.248 209.859 112.361 201.011L128.136 75.7565L144.823 62.756L175.001 62.9599V62.9563Z" fill="#2B180D"/>
<path d="M175.001 62.9563L168.13 111.657C167.636 115.173 166.226 118.452 164.303 121.446C164.285 121.481 164.267 121.496 164.253 121.531C162.33 124.539 159.882 127.207 156.785 128.992C146.033 135.211 133.463 139.868 119.737 142.45L128.139 75.7565L144.827 62.756L175.004 62.9599L175.001 62.9563Z" fill="#432918"/>
<path d="M188.813 56.347C188.813 86.425 149.298 110.995 99.5765 112.59C97.858 112.64 96.1395 112.676 94.4066 112.676C42.2537 112.676 0 87.4586 0 56.347C0 25.2355 42.2537 0 94.4066 0C143.244 0 183.421 22.1239 188.301 50.5174C188.641 52.438 188.813 54.3764 188.813 56.347Z" fill="#FEFEFE"/>
<path d="M188.813 56.347C188.813 85.2949 152.206 109.146 105.122 112.315C101.914 112.53 99.0717 110.048 99.0645 106.839C99.0645 106.818 99.0645 106.8 99.0645 106.779C99.0645 77.8308 135.672 53.9651 182.752 50.7928C185.96 50.5782 188.803 53.0603 188.81 56.2684C188.81 56.2934 188.81 56.3184 188.81 56.3435L188.813 56.347Z" fill="#CBC9C7"/>
<path d="M172.924 56.347C172.924 60.46 172.04 64.437 170.372 68.2244C169.537 70.145 168.499 72.0298 167.26 73.8502C155.643 91.0637 127.405 103.213 94.4066 103.213C61.4078 103.213 33.1528 91.0637 21.535 73.8502C21.3309 73.5426 21.1447 73.2565 20.955 72.9489C19.9668 71.4182 19.1183 69.841 18.4202 68.2244C16.7518 64.4334 15.8675 60.46 15.8675 56.347C15.8675 30.4499 51.0288 9.46687 94.4031 9.46687C95.4735 9.46687 96.5476 9.48476 97.6002 9.51694C139.478 10.504 172.921 31.0973 172.921 56.347H172.924Z" fill="#CBC9C7"/>
<path d="M102.673 26.1188C102.673 30.2318 101.789 34.2088 100.121 37.9963C99.2865 39.9168 98.2482 41.8016 97.0095 43.622C85.3917 60.8355 57.1545 72.9847 24.1557 72.9847H24.1235C22.1078 72.9847 20.221 71.8796 19.3009 70.0842C18.9859 69.469 18.6923 68.8503 18.4238 68.2244C16.7554 64.4334 15.8711 60.46 15.8711 56.347C15.8711 30.4499 51.0324 9.46687 94.4066 9.46687H94.4389C96.4581 9.46687 98.3341 10.6006 99.2543 12.396C101.481 16.7378 102.673 21.3443 102.673 26.1188Z" fill="#AEA6A0"/>
<path d="M167.296 73.7966C167.296 73.7966 167.278 73.8323 167.26 73.8466C158.21 87.2548 139.059 97.6014 115.448 101.51C108.745 102.616 101.685 103.209 94.4066 103.209C72.2093 103.209 52.153 97.7051 37.8643 88.8498C30.908 84.5688 25.3264 79.4688 21.535 73.8466C21.5171 73.8109 21.4992 73.7966 21.4849 73.7608C19.2723 70.4633 19.2222 66.0786 21.4347 62.7668C32.9845 45.4675 61.3076 33.2503 94.4102 33.2503C101.009 33.2503 107.406 33.7438 113.514 34.6594C134.691 37.8031 152.449 46.0969 162.878 57.1732C164.579 58.9757 166.075 60.8248 167.368 62.7632C169.595 66.075 169.545 70.4955 167.3 73.793L167.296 73.7966Z" fill="#683C11"/>
<path d="M167.296 73.7966C167.296 73.7966 167.278 73.8323 167.26 73.8466C160.766 83.4673 149.066 91.5143 134.251 96.7359C127.617 99.0749 122.254 91.0315 126.872 85.7312C132.436 79.3436 139.002 73.2172 146.456 67.6451C149.943 65.0342 153.484 62.6523 157.042 60.4957C160.501 58.3999 165.073 59.3513 167.321 62.7095C167.336 62.7274 167.346 62.7489 167.361 62.7668C169.588 66.0786 169.537 70.4991 167.293 73.7966H167.296Z" fill="#936037"/>
<path d="M94.6035 33.2539C104.055 33.2682 109.164 44.4017 103.11 51.6511C93.0318 63.7145 77.7551 74.7551 59.163 82.2942C57.065 83.149 54.9634 83.9394 52.8654 84.6654C42.1499 88.3885 30.1919 85.0803 23.2105 76.1499C22.6198 75.3917 22.0613 74.6263 21.535 73.8466C21.4168 73.6142 21.3023 74.1828 21.1841 64.4978C21.1734 63.6358 21.4133 62.7811 21.9073 62.0765C33.7435 45.1456 61.7479 33.2539 94.4066 33.2539C94.4711 33.2539 94.5391 33.2539 94.6035 33.2539Z" fill="#432918"/>
<path d="M39.8191 112.623L43.4208 129.571C44.2085 133.273 45.8983 136.721 48.34 139.61C50.1015 141.696 51.2937 144.195 51.8093 146.874L52.6757 151.391C53.0874 153.53 55.6258 154.467 57.33 153.104C59.3062 151.524 59.9972 148.831 59.0234 146.495L54.4264 135.487C53.8643 134.138 53.406 132.751 53.0588 131.335L49.9046 118.484C49.0024 114.804 46.507 111.718 43.0986 110.058C41.3658 109.214 39.4253 110.734 39.8227 112.615L39.8191 112.623Z" fill="#FEFEFE"/>
<path d="M70.3691 235.166C68.9119 234.758 67.4799 234.315 66.0728 233.832C61.6692 232.33 58.6546 228.256 58.3503 223.618L54.7987 169.32C54.6949 167.042 57.7596 166.226 58.7978 168.251L59.9721 170.529C60.5163 171.584 60.9245 172.671 61.2324 173.809L75.7251 229.92C76.5557 233.138 73.577 236.067 70.3727 235.17L70.3691 235.166Z" fill="#FEFEFE"/>
</svg>
