<svg width="151" height="168" viewBox="0 0 151 168" fill="none" xmlns="http://www.w3.org/2000/svg">
<path d="M139.778 8.64774C135.683 4.65093 127.528 3.63627 121.565 6.38151L118.081 7.9859C112.115 10.7311 110.601 16.1958 114.697 20.1927C118.792 24.1895 126.948 25.2041 132.91 22.4589L136.395 20.8545C137.176 20.4965 137.875 20.0871 138.499 19.6441L129.565 96.4875C129.565 96.4875 151 82.6712 151 48.6622C151 14.6533 139.778 8.64774 139.778 8.64774Z" fill="#936037"/>
<path d="M142.412 134.555C142.412 149.337 122.163 161.871 94.09 166.3C87.0853 167.403 79.5904 168 71.8016 168C46.1914 168 23.7611 161.546 11.3867 151.871C4.9235 146.824 1.19157 140.906 1.19157 134.558C1.19157 125.328 9.09903 116.963 21.8861 110.919C34.6603 104.862 52.3167 101.126 71.8016 101.126C92.6483 101.126 111.383 105.4 124.299 112.194C135.562 118.133 142.412 125.959 142.412 134.555Z" fill="#432918"/>
<path d="M32.0786 128.217C32.0786 134.746 28.1326 140.831 21.3084 145.976C14.8478 150.849 5.5528 148.446 2.48369 140.965C1.63517 138.892 1.18899 136.752 1.18899 134.558C1.18899 127.929 5.26652 121.746 12.3022 116.549C18.4198 112.032 27.3151 114.203 30.477 121.112C31.5241 123.402 32.0761 125.779 32.0761 128.22L32.0786 128.217Z" fill="#683C11"/>
<path d="M142.412 134.555C142.412 147.885 125.949 159.386 102.132 164.765C96.4912 166.04 90.5851 164.722 86.0433 161.147C79.6523 156.115 75.9797 150.233 75.9797 143.926C75.9797 129.155 96.2281 116.621 124.301 112.194C135.564 118.133 142.414 125.959 142.414 134.555H142.412Z" fill="#2B180D"/>
<path d="M138.574 126.415C138.574 132.224 135.278 137.661 129.506 142.335C117.926 151.729 96.4241 158.044 71.799 158.044C57.8153 158.044 44.8296 156.007 34.0955 152.528C16.5345 146.824 5.01377 137.254 5.01377 126.417C5.01377 115.58 16.5448 106 34.1187 100.307C39.4084 98.5837 45.2397 97.2137 51.4682 96.2763C57.8746 95.3157 64.7117 94.7878 71.799 94.7878C108.682 94.7878 138.574 108.949 138.574 126.415Z" fill="#683C11"/>
<path d="M63.2004 126.415C63.2004 132.224 59.9043 137.661 54.1323 142.335C51.5945 144.393 48.5822 146.303 45.1649 148.029C38.1369 151.58 29.7729 151.477 22.763 147.887C11.7452 142.245 5.01119 134.699 5.01119 126.417C5.01119 118.135 11.7503 110.579 22.7785 104.939C29.8838 101.306 38.351 101.306 45.4563 104.942C56.4716 110.579 63.2004 118.125 63.2004 126.415Z" fill="#936037"/>
<path d="M138.574 126.415C138.574 128.23 138.252 130.01 137.633 131.74C135.327 138.191 129.245 142.551 122.416 143.2C118.145 143.607 113.725 143.821 109.196 143.821C72.3123 143.821 42.4104 129.659 42.4104 112.194C42.4104 106.384 45.7065 100.961 51.4682 96.2737C57.8746 95.3131 64.7117 94.7852 71.799 94.7852C108.682 94.7852 138.574 108.947 138.574 126.412V126.415Z" fill="#432918"/>
<path d="M115.499 126.415C115.499 136.571 100.073 145.005 79.7194 146.775C77.1506 146.996 74.4993 147.115 71.8016 147.115C47.6692 147.115 28.1017 137.849 28.1017 126.417C28.1017 114.986 47.6692 105.72 71.8016 105.72C74.4993 105.72 77.1506 105.836 79.7194 106.06C100.073 107.829 115.499 116.263 115.499 126.42V126.415Z" fill="#432918"/>
<path d="M115.499 126.415C115.499 133.306 108.396 139.404 97.4686 143.167C85.9969 147.117 73.4393 147.117 61.9676 143.167C51.0426 139.404 43.9372 133.306 43.9372 126.415C43.9372 116.258 59.3627 107.824 79.7168 106.055C100.071 107.824 115.496 116.258 115.496 126.415H115.499Z" fill="#2B180D"/>
<path d="M115.089 124.962C109.846 130.901 98.9 135.516 85.3624 137.38C81.1044 137.978 76.5987 138.294 71.9177 138.294C63.871 138.294 56.3142 137.357 49.7092 135.716C43.1171 134.076 37.4741 131.733 33.296 128.887C33.0381 128.712 32.7801 128.537 32.5326 128.359C31.6067 127.679 30.7504 126.989 29.987 126.263C-5.3206 96.2505 0.332739 34.5652 0.332739 34.5652H143.268C143.268 34.5652 148.759 94.5045 115.089 124.962Z" fill="#D4BFAF"/>
<path d="M115.089 124.962C112.332 128.083 108.002 130.839 102.547 133.023C95.8257 135.711 88.8829 129.515 90.8765 122.567C99.4494 92.6761 100.179 50.6606 100.179 50.6606C100.179 50.6606 98.1134 47.2407 108.873 34.5652H143.27C143.27 34.5652 148.761 94.5045 115.091 124.962H115.089Z" fill="#BEA087"/>
<path d="M17.1148 111.56C-3.80669 79.7225 0.332739 34.5652 0.332739 34.5652H25.5794C23.6683 40.2591 21.5096 43.4215 21.5096 43.4215L28.0965 107.747C28.7361 113.999 20.5708 116.817 17.1174 111.563L17.1148 111.56Z" fill="#EDEBEA"/>
<path d="M71.9125 65.5302C111.448 65.5302 143.497 50.8608 143.497 32.7651C143.497 14.6694 111.448 0 71.9125 0C32.3773 0 0.327581 14.6694 0.327581 32.7651C0.327581 50.8608 32.3773 65.5302 71.9125 65.5302Z" fill="#FEFEFE"/>
<path d="M71.9125 57.9254C105.455 57.9254 132.647 46.6608 132.647 32.7651C132.647 18.8694 105.455 7.60476 71.9125 7.60476C38.3696 7.60476 11.1778 18.8694 11.1778 32.7651C11.1778 46.6608 38.3696 57.9254 71.9125 57.9254Z" fill="#CA9E67"/>
<path d="M71.9125 50.6632C102.921 50.6632 128.059 40.2494 128.059 27.4034C128.059 14.5574 102.921 4.1436 71.9125 4.1436C40.9036 4.1436 15.766 14.5574 15.766 27.4034C15.766 40.2494 40.9036 50.6632 71.9125 50.6632Z" fill="#EDEBEA"/>
<path d="M71.7939 23.713C84.4111 23.713 94.6394 20.1077 94.6394 15.6602C94.6394 11.2127 84.4111 7.60733 71.7939 7.60733C59.1767 7.60733 48.9484 11.2127 48.9484 15.6602C48.9484 20.1077 59.1767 23.713 71.7939 23.713Z" fill="#936037"/>
<path d="M50.8621 29.0953C55.0783 29.0953 58.4962 27.8905 58.4962 26.4042C58.4962 24.9179 55.0783 23.713 50.8621 23.713C46.6459 23.713 43.228 24.9179 43.228 26.4042C43.228 27.8905 46.6459 29.0953 50.8621 29.0953Z" fill="#936037"/>
<path d="M47.0502 17.5994C51.2664 17.5994 54.6843 16.3945 54.6843 14.9082C54.6843 13.4219 51.2664 12.2171 47.0502 12.2171C42.834 12.2171 39.4161 13.4219 39.4161 14.9082C39.4161 16.3945 42.834 17.5994 47.0502 17.5994Z" fill="#936037"/>
<path d="M52.8428 21.4082C57.059 21.4082 60.4769 20.2033 60.4769 18.717C60.4769 17.2307 57.059 16.0259 52.8428 16.0259C48.6266 16.0259 45.2087 17.2307 45.2087 18.717C45.2087 20.2033 48.6266 21.4082 52.8428 21.4082Z" fill="#936037"/>
<path d="M56.1414 14.9082C60.3576 14.9082 63.7755 13.7033 63.7755 12.2171C63.7755 10.7308 60.3576 9.52591 56.1414 9.52591C51.9253 9.52591 48.5074 10.7308 48.5074 12.2171C48.5074 13.7033 51.9253 14.9082 56.1414 14.9082Z" fill="#936037"/>
<path d="M87.7429 15.6602C91.9591 15.6602 95.377 14.4553 95.377 12.969C95.377 11.4828 91.9591 10.2779 87.7429 10.2779C83.5267 10.2779 80.1088 11.4828 80.1088 12.969C80.1088 14.4553 83.5267 15.6602 87.7429 15.6602Z" fill="#936037"/>
<path d="M95.0752 21.0399C99.2914 21.0399 102.709 19.835 102.709 18.3488C102.709 16.8625 99.2914 15.6576 95.0752 15.6576C90.8591 15.6576 87.4412 16.8625 87.4412 18.3488C87.4412 19.835 90.8591 21.0399 95.0752 21.0399Z" fill="#936037"/>
<path d="M93.6103 17.5994C97.8265 17.5994 101.244 16.3945 101.244 14.9082C101.244 13.4219 97.8265 12.2171 93.6103 12.2171C89.3941 12.2171 85.9762 13.4219 85.9762 14.9082C85.9762 16.3945 89.3941 17.5994 93.6103 17.5994Z" fill="#936037"/>
<path d="M85.9762 23.7311C90.1924 23.7311 93.6103 22.5262 93.6103 21.0399C93.6103 19.5536 90.1924 18.3488 85.9762 18.3488C81.7601 18.3488 78.3422 19.5536 78.3422 21.0399C78.3422 22.5262 81.7601 23.7311 85.9762 23.7311Z" fill="#936037"/>
<path d="M67.5719 24.8307C71.7881 24.8307 75.206 23.6258 75.206 22.1396C75.206 20.6533 71.7881 19.4484 67.5719 19.4484C63.3557 19.4484 59.9379 20.6533 59.9379 22.1396C59.9379 23.6258 63.3557 24.8307 67.5719 24.8307Z" fill="#936037"/>
<path d="M59.0661 24.8307C63.2823 24.8307 66.7002 23.6258 66.7002 22.1396C66.7002 20.6533 63.2823 19.4484 59.0661 19.4484C54.8499 19.4484 51.432 20.6533 51.432 22.1396C51.432 23.6258 54.8499 24.8307 59.0661 24.8307Z" fill="#936037"/>
<path d="M77.0707 25.4153C81.2869 25.4153 84.7048 24.2104 84.7048 22.7241C84.7048 21.2379 81.2869 20.033 77.0707 20.033C72.8545 20.033 69.4366 21.2379 69.4366 22.7241C69.4366 24.2104 72.8545 25.4153 77.0707 25.4153Z" fill="#936037"/>
<path d="M70.0324 31.7865C74.2486 31.7865 77.6665 30.5816 77.6665 29.0953C77.6665 27.6091 74.2486 26.4042 70.0324 26.4042C65.8162 26.4042 62.3983 27.6091 62.3983 29.0953C62.3983 30.5816 65.8162 31.7865 70.0324 31.7865Z" fill="#936037"/>
<path d="M88.3619 27.5219C92.5781 27.5219 95.996 26.317 95.996 24.8307C95.996 23.3444 92.5781 22.1396 88.3619 22.1396C84.1457 22.1396 80.7278 23.3444 80.7278 24.8307C80.7278 26.317 84.1457 27.5219 88.3619 27.5219Z" fill="#936037"/>
<path d="M98.1624 20.033C102.379 20.033 105.796 18.8281 105.796 17.3418C105.796 15.8556 102.379 14.6507 98.1624 14.6507C93.9462 14.6507 90.5283 15.8556 90.5283 17.3418C90.5283 18.8281 93.9462 20.033 98.1624 20.033Z" fill="#936037"/>
<path d="M45.2087 19.8141C49.4249 19.8141 52.8428 18.6092 52.8428 17.1229C52.8428 15.6367 49.4249 14.4318 45.2087 14.4318C40.9925 14.4318 37.5747 15.6367 37.5747 17.1229C37.5747 18.6092 40.9925 19.8141 45.2087 19.8141Z" fill="#936037"/>
<path d="M85.071 32.5926C87.8115 32.5926 90.0331 31.8097 90.0331 30.844C90.0331 29.8782 87.8115 29.0953 85.071 29.0953C82.3305 29.0953 80.1088 29.8782 80.1088 30.844C80.1088 31.8097 82.3305 32.5926 85.071 32.5926Z" fill="#936037"/>
<path d="M95.377 29.2705C98.1175 29.2705 100.339 28.4876 100.339 27.5219C100.339 26.5561 98.1175 25.7733 95.377 25.7733C92.6365 25.7733 90.4148 26.5561 90.4148 27.5219C90.4148 28.4876 92.6365 29.2705 95.377 29.2705Z" fill="#936037"/>
<path d="M103.122 23.1568C105.862 23.1568 108.084 22.3739 108.084 21.4082C108.084 20.4425 105.862 19.6596 103.122 19.6596C100.381 19.6596 98.1598 20.4425 98.1598 21.4082C98.1598 22.3739 100.381 23.1568 103.122 23.1568Z" fill="#936037"/>
<path d="M73.2562 32.5926C73.2562 33.5583 71.0356 34.3412 68.2941 34.3412C65.5525 34.3412 63.3319 33.5583 63.3319 32.5926C63.3319 31.6268 65.5525 30.844 68.2941 30.844C71.0356 30.844 73.2562 31.6268 73.2562 32.5926Z" fill="#936037"/>
<path d="M61.818 29.698C61.818 30.6637 59.5974 31.4466 56.8559 31.4466C54.1143 31.4466 51.8937 30.6637 51.8937 29.698C51.8937 28.7322 54.1143 27.9494 56.8559 27.9494C59.5974 27.9494 61.818 28.7322 61.818 29.698Z" fill="#936037"/>
<path d="M43.5478 26.5793C46.2883 26.5793 48.51 25.7964 48.51 24.8307C48.51 23.865 46.2883 23.0821 43.5478 23.0821C40.8073 23.0821 38.5857 23.865 38.5857 24.8307C38.5857 25.7964 40.8073 26.5793 43.5478 26.5793Z" fill="#936037"/>
<path d="M45.2087 15.6602C45.2087 16.6259 42.9881 17.4088 40.2466 17.4088C37.505 17.4088 35.2844 16.6259 35.2844 15.6602C35.2844 14.6945 37.505 13.9116 40.2466 13.9116C42.9881 13.9116 45.2087 14.6945 45.2087 15.6602Z" fill="#936037"/>
<path d="M41.2498 19.8141C41.2498 20.7798 39.0293 21.5627 36.2877 21.5627C33.5461 21.5627 31.3255 20.7798 31.3255 19.8141C31.3255 18.8484 33.5461 18.0655 36.2877 18.0655C39.0293 18.0655 41.2498 18.8484 41.2498 19.8141Z" fill="#936037"/>
<path d="M109.732 17.1229C109.732 18.0887 107.512 18.8715 104.77 18.8715C102.028 18.8715 99.8078 18.0887 99.8078 17.1229C99.8078 16.1572 102.028 15.3743 104.77 15.3743C107.512 15.3743 109.732 16.1572 109.732 17.1229Z" fill="#936037"/>
<path d="M112.649 21.5035C114.26 21.5035 115.566 21.0434 115.566 20.4759C115.566 19.9084 114.26 19.4484 112.649 19.4484C111.038 19.4484 109.732 19.9084 109.732 20.4759C109.732 21.0434 111.038 21.5035 112.649 21.5035Z" fill="#936037"/>
<path d="M109.732 27.4317C111.343 27.4317 112.649 26.9717 112.649 26.4042C112.649 25.8367 111.343 25.3767 109.732 25.3767C108.121 25.3767 106.815 25.8367 106.815 26.4042C106.815 26.9717 108.121 27.4317 109.732 27.4317Z" fill="#936037"/>
<path d="M105.626 35.0288C105.626 35.5953 104.321 36.0563 102.709 36.0563C101.097 36.0563 99.7924 35.5953 99.7924 35.0288C99.7924 34.4622 101.097 34.0012 102.709 34.0012C104.321 34.0012 105.626 34.4622 105.626 35.0288Z" fill="#936037"/>
<path d="M87.7429 36.2211C89.3539 36.2211 90.6599 35.7611 90.6599 35.1936C90.6599 34.6261 89.3539 34.166 87.7429 34.166C86.1319 34.166 84.826 34.6261 84.826 35.1936C84.826 35.7611 86.1319 36.2211 87.7429 36.2211Z" fill="#936037"/>
<path d="M78.6517 38.8556C80.2626 38.8556 81.5686 38.3956 81.5686 37.8281C81.5686 37.2606 80.2626 36.8005 78.6517 36.8005C77.0407 36.8005 75.7347 37.2606 75.7347 37.8281C75.7347 38.3956 77.0407 38.8556 78.6517 38.8556Z" fill="#936037"/>
<path d="M73.8133 34.6476C75.4243 34.6476 76.7302 34.1876 76.7302 33.6201C76.7302 33.0526 75.4243 32.5926 73.8133 32.5926C72.2023 32.5926 70.8964 33.0526 70.8964 33.6201C70.8964 34.1876 72.2023 34.6476 73.8133 34.6476Z" fill="#936037"/>
<path d="M58.4962 32.8115C60.1071 32.8115 61.4131 32.3514 61.4131 31.7839C61.4131 31.2164 60.1071 30.7564 58.4962 30.7564C56.8852 30.7564 55.5792 31.2164 55.5792 31.7839C55.5792 32.3514 56.8852 32.8115 58.4962 32.8115Z" fill="#936037"/>
<path d="M47.3519 33.6201C48.9629 33.6201 50.2689 33.16 50.2689 32.5926C50.2689 32.0251 48.9629 31.565 47.3519 31.565C45.741 31.565 44.435 32.0251 44.435 32.5926C44.435 33.16 45.741 33.6201 47.3519 33.6201Z" fill="#936037"/>
<path d="M57.0209 40.9132C58.6319 40.9132 59.9379 40.4532 59.9379 39.8857C59.9379 39.3182 58.6319 38.8582 57.0209 38.8582C55.4099 38.8582 54.104 39.3182 54.104 39.8857C54.104 40.4532 55.4099 40.9132 57.0209 40.9132Z" fill="#936037"/>
<path d="M35.6687 32.4741C37.2797 32.4741 38.5857 32.0141 38.5857 31.4466C38.5857 30.8791 37.2797 30.419 35.6687 30.419C34.0577 30.419 32.7518 30.8791 32.7518 31.4466C32.7518 32.0141 34.0577 32.4741 35.6687 32.4741Z" fill="#936037"/>
<path d="M41.5026 25.9896C41.5026 26.5561 40.1976 27.0171 38.5857 27.0171C36.9737 27.0171 35.6687 26.5561 35.6687 25.9896C35.6687 25.423 36.9737 24.962 38.5857 24.962C40.1976 24.962 41.5026 25.423 41.5026 25.9896Z" fill="#936037"/>
<path d="M28.4112 23.7517C30.0222 23.7517 31.3281 23.2916 31.3281 22.7241C31.3281 22.1567 30.0222 21.6966 28.4112 21.6966C26.8002 21.6966 25.4942 22.1567 25.4942 22.7241C25.4942 23.2916 26.8002 23.7517 28.4112 23.7517Z" fill="#936037"/>
</svg>
