<svg width="206" height="239" viewBox="0 0 206 239" fill="none" xmlns="http://www.w3.org/2000/svg">
<path d="M141.084 63.8395L157.867 56.4165C163.138 54.083 169.325 55.9584 172.416 60.8259L204.255 110.976C206.894 115.131 205.741 120.628 201.659 123.377L197.696 126.047C194.724 128.048 190.688 127.228 188.733 124.225L161.398 82.2465L147.58 87.7404L141.088 63.8395H141.084Z" fill="#2B180D"/>
<path d="M94.9573 238.826C143.525 238.826 182.896 218.393 182.896 193.186C182.896 167.98 143.525 147.546 94.9573 147.546C46.3899 147.546 7.01823 167.98 7.01823 193.186C7.01823 218.393 46.3899 238.826 94.9573 238.826Z" fill="#2B180D"/>
<path d="M192.489 150.374C192.489 195.452 154.985 219.757 106.784 222.81C103.329 223.028 99.8092 223.136 96.2464 223.136C43.0869 223.136 0 198.691 0 150.374C0 102.057 43.0869 48.1489 96.2464 48.1489C115.636 48.1489 133.676 55.3214 148.786 66.785C175.101 86.7382 192.493 119.687 192.493 150.374H192.489Z" fill="#E9DFD7"/>
<path d="M176.326 147.897C176.326 185.914 144.26 206.175 103.376 208.251C101.02 208.376 98.6491 208.437 96.2464 208.437C52.0137 208.437 16.167 188.097 16.167 147.897C16.167 144.955 16.3532 141.981 16.7399 139.007C30.2392 155.102 60.679 166.318 96.0924 166.318C98.137 166.318 100.167 166.286 102.183 166.211C135.212 165.001 163.138 154.035 175.724 138.699C176.129 141.78 176.329 144.848 176.329 147.901L176.326 147.897Z" fill="#2B180D"/>
<path d="M192.489 150.374C192.489 189.922 163.621 213.483 123.99 220.727C113.957 222.563 104.332 215.681 102.745 205.609C99.0787 182.345 101.489 155.341 110.952 128.373C117.101 110.85 125.583 95.1776 135.545 81.9924C142.502 72.7871 156.123 72.0892 163.858 80.6539C181.536 100.231 192.493 126.015 192.493 150.37L192.489 150.374Z" fill="#D4BFAF"/>
<path d="M176.093 136.712C176.093 153.101 143.39 166.501 102.011 167.618C100.167 167.664 98.291 167.696 96.4147 167.696C52.4147 167.696 16.7363 153.831 16.7363 136.712C16.7363 119.594 52.4147 105.729 96.4147 105.729C104.629 105.729 112.532 106.208 119.987 107.107C152.471 111.011 176.089 122.783 176.089 136.709L176.093 136.712Z" fill="#432918"/>
<path d="M176.326 147.897C176.326 185.914 144.26 206.175 103.376 208.251C103.111 207.399 102.896 206.533 102.756 205.616C100.819 193.333 100.572 180.008 102.183 166.207C135.212 164.998 163.138 154.032 175.724 138.695C176.129 141.777 176.329 144.844 176.329 147.897H176.326Z" fill="#432918"/>
<path d="M176.093 136.712C176.093 153.101 143.39 166.501 102.011 167.618C103.376 154.837 106.319 141.609 110.952 128.377C113.556 120.94 116.596 113.832 119.987 107.107C152.471 111.011 176.089 122.783 176.089 136.709L176.093 136.712Z" fill="#683C11"/>
<path d="M166.25 83.1914C162.049 93.1519 152.797 104.369 132.806 110.829C122.529 114.161 109.434 116.237 92.6943 116.237C59.7122 116.237 33.5836 99.3365 25.8027 93.6959C24.4385 92.7188 23.6471 92.0853 23.4609 91.9314C19.7871 88.9716 19.2285 83.6137 22.1898 79.9559C25.1331 76.3017 30.4971 75.7255 34.153 78.6711C34.2926 78.7641 40.5231 83.7068 50.6745 88.6924C50.875 88.7998 51.0934 88.8928 51.3082 89.0038C51.4801 89.0825 51.6341 89.1577 51.806 89.2364C62.2975 94.2721 76.667 99.1969 92.6907 99.1969C123.843 99.1969 144.379 91.1584 150.53 76.563C152.36 72.2252 157.348 70.1959 161.688 72.0248C166.028 73.8537 168.072 78.8572 166.246 83.195L166.25 83.1914Z" fill="#432918"/>
<path d="M166.099 83.5422C162.518 91.8241 155.414 100.922 141.55 107.407C136.211 109.905 130.36 111.097 124.466 111.19C123.592 111.205 122.715 111.212 121.834 111.212C90.6998 111.212 63.7477 102.042 50.6816 88.6888C50.8821 88.7962 51.1006 88.8892 51.3154 89.0002C61.8535 94.1111 76.4235 99.1933 92.6943 99.1933C123.847 99.1933 144.382 91.1548 150.534 76.5594C152.449 72.014 157.838 70.0026 162.311 72.3111C166.328 74.3834 167.893 79.394 166.099 83.5422Z" fill="#2B180D"/>
<path d="M51.8096 89.2328C45.4394 92.0997 37.5368 93.789 28.9645 93.789C28.8177 93.789 28.6709 93.789 28.5241 93.789C26.68 93.7747 24.8896 93.1161 23.4681 91.935C23.4681 91.935 23.4645 91.935 23.4609 91.9314C19.7871 88.9716 19.2285 83.6137 22.1898 79.9559C25.1331 76.3017 30.4971 75.7255 34.153 78.6711C34.2926 78.7641 40.5231 83.7068 50.6745 88.6924C50.875 88.7998 51.0934 88.8928 51.3082 89.0038C51.4801 89.0825 51.6341 89.1577 51.806 89.2364L51.8096 89.2328Z" fill="#683C11"/>
<path d="M111.497 44.0295L16.6468 44.0151L27.901 64.3441L11.82 70.4536C12.7187 70.8294 44.7842 89.9486 44.7842 89.9486V89.9129C55.7591 97.7223 74.6868 102.894 96.2464 102.894C99.4404 102.894 102.538 102.787 105.513 102.583C132.605 100.693 150.953 90.4855 157.48 76.742L174.714 44.0259H111.497V44.0295Z" fill="#D4BFAF"/>
<path d="M174.714 44.0295L157.48 76.7455C152.299 87.6545 139.663 96.3372 121.118 100.399C113.362 102.096 106.226 95.6429 107.032 87.7475L111.497 44.0295H174.714Z" fill="#BEA087"/>
<path d="M95.6771 0C51.2689 0 15.2682 16.6318 15.2682 37.1469C15.2682 39.4912 15.7409 41.7854 16.6432 44.0116C17.8607 47.018 17.5062 50.436 15.9199 53.2634L9.91146 63.9862C7.98144 67.4293 10.889 71.5738 14.7848 70.9332L34.5863 67.6905C40.7809 66.6741 47.1439 66.9389 53.1738 68.6784C65.5058 72.2359 80.0722 74.2939 95.6842 74.2939C140.096 74.2939 176.097 57.6621 176.097 37.1469C176.097 16.6318 140.089 0 95.6771 0Z" fill="#E9DFD7"/>
<path d="M95.1328 9.74575C58.8457 9.74575 29.4264 23.3354 29.4264 40.0997C29.4264 42.0145 29.8131 43.8899 30.5472 45.708C31.5426 48.1633 31.2526 50.9549 29.9564 53.267L25.0472 62.0285C23.4717 64.8416 25.8457 68.2274 29.029 67.7049L45.2067 65.0528C50.2698 64.2224 55.4691 64.4372 60.3961 65.8616C70.4723 68.7678 82.3746 70.45 95.1292 70.45C131.416 70.45 160.836 56.8603 160.836 40.0961C160.836 23.3318 131.42 9.74575 95.1328 9.74575Z" fill="#BEA087"/>
<path d="M29.8776 156.716C31.5355 163.988 35.2738 173.498 43.6777 181.358C47.4554 184.89 53.5749 181.39 52.54 176.322C50.9609 168.584 47.2298 158.684 38.5179 151.383C34.6113 148.108 28.7461 151.745 29.8776 156.712V156.716Z" fill="#E9DFD7"/>
</svg>
