<svg width="316" height="452" viewBox="0 0 316 452" fill="none" xmlns="http://www.w3.org/2000/svg">
<path d="M314.047 146.836L300.794 240.605C299.858 247.386 297.397 253.857 293.601 259.538C290.372 264.344 288.167 269.739 287.088 275.42L269.08 369.248C269.08 380.098 266.249 390.442 261.065 399.911C247.842 424.162 219.388 442.673 184.48 448.943C177.234 450.269 169.731 451.06 162.002 451.263C160.673 451.292 159.368 451.316 158.04 451.316C155.579 451.316 153.111 451.263 150.68 451.12C143.827 450.811 137.117 450.019 130.664 448.8C119.538 446.706 109.092 443.375 99.5756 439.021C98.8963 438.712 98.217 438.396 97.5376 438.034C78.5403 428.963 63.5355 415.621 54.9843 399.911C52.41 395.164 50.3958 390.215 49.0372 385.1C47.6785 379.955 46.9694 374.673 46.9694 369.248L28.9612 275.42C27.8826 269.739 25.6778 264.344 22.448 259.538C18.6819 253.857 16.191 247.386 15.2555 240.605L2.01453 146.836L158.046 145.789L314.047 146.836Z" fill="#91837A"/>
<path d="M91.7991 398.46C94.9514 414.907 74.0114 425.007 63.3031 412.117C60.0911 408.251 57.3023 404.17 54.9902 399.917C52.4159 395.17 50.4018 390.221 49.0431 385.106C47.7977 380.389 47.0945 375.547 46.9932 370.592C46.9753 369.706 46.8919 368.814 46.7251 367.945L28.9672 275.426C27.8886 269.745 25.6838 264.35 22.454 259.544C18.6879 253.863 16.197 247.392 15.2614 240.611L4.61862 165.3C3.23613 155.527 10.7981 146.777 20.6841 146.711L28.127 146.658C34.6044 146.61 40.4979 150.393 43.1497 156.288L46.1888 163.045C46.7072 164.199 47.0886 165.413 47.3269 166.656L91.7931 398.466L91.7991 398.46Z" fill="#AEA6A0"/>
<path d="M314.047 146.836L300.794 240.605C299.858 247.386 297.397 253.857 293.601 259.538C290.372 264.344 288.167 269.739 287.088 275.42L269.08 369.248C269.08 380.098 266.249 390.442 261.065 399.911C250.196 419.838 229.047 435.892 202.482 444.476C183.121 450.733 163.796 434.613 165.977 414.413L194.932 146.039L314.041 146.83L314.047 146.836Z" fill="#77665C"/>
<path d="M292.189 146.664L280.807 227.322C279.985 233.146 277.864 238.713 274.604 243.603C273.073 245.923 271.803 248.379 270.808 250.949C270.016 252.983 269.42 255.101 268.997 257.254L253.539 337.942V337.972C253.539 347.269 251.078 356.174 246.632 364.311C235.704 384.374 212.66 399.864 184.206 405.824C175.881 407.578 167.103 408.506 158.046 408.506C117.9 408.506 83.5578 390.221 69.4289 364.305C64.9835 356.168 62.5224 347.263 62.5224 337.966V337.936L47.0647 257.248C46.6416 255.101 46.0457 253.007 45.2532 250.973C44.2878 248.403 43.0186 245.917 41.4573 243.597C38.2037 238.707 36.0763 233.14 35.2599 227.316L23.8782 146.658L158.052 145.783L292.195 146.658L292.189 146.664Z" fill="#683C11"/>
<path d="M292.189 146.664L280.754 227.661C279.931 233.508 277.584 238.963 274.384 243.942C274.354 244.001 274.324 244.025 274.3 244.084C271.1 249.087 267.024 253.524 261.87 256.493C243.975 266.837 223.053 274.581 200.206 278.876C186.726 281.422 172.603 282.778 158.046 282.778C119.371 282.778 83.7544 273.255 55.4967 257.26C50.2051 254.262 45.5035 250.193 42.3333 244.995C41.9936 244.429 41.6241 243.864 41.2309 243.299C37.9772 238.553 36.0525 233.015 35.2599 227.334L23.8782 146.676L158.052 145.801L292.195 146.676L292.189 146.664Z" fill="#936037"/>
<path d="M292.189 146.664L280.76 227.655C279.931 233.508 277.589 238.975 274.384 243.948C272.953 246.166 271.756 248.51 270.814 250.955C270.022 252.989 269.426 255.107 269.003 257.26L253.545 337.948V337.978C253.545 347.275 251.084 356.18 246.638 364.317C239.988 376.529 228.851 387.045 214.734 394.748C201.701 401.862 186.077 390.989 187.93 376.273L214.185 167.953L241.96 146.331L292.189 146.67V146.664Z" fill="#432918"/>
<path d="M292.189 146.664L280.754 227.661C279.931 233.508 277.584 238.963 274.384 243.942C274.354 244.001 274.324 244.025 274.3 244.084C271.1 249.087 267.024 253.524 261.87 256.493C243.975 266.837 223.053 274.581 200.206 278.876L214.191 167.953L241.966 146.331L292.195 146.67L292.189 146.664Z" fill="#683C11"/>
<path d="M315.179 135.671C315.179 185.696 249.409 226.561 166.65 229.214C163.79 229.297 160.93 229.357 158.046 229.357C71.2405 229.357 0.912109 187.415 0.912109 135.671C0.912109 83.9275 71.2405 41.9565 158.046 41.9565C239.333 41.9565 306.205 78.7525 314.333 125.976C314.899 129.17 315.185 132.394 315.185 135.671H315.179Z" fill="#FEFEFE"/>
<path d="M315.179 135.671C315.179 183.817 254.248 223.486 175.881 228.756C170.542 229.113 165.81 224.985 165.798 219.649C165.798 219.613 165.798 219.584 165.798 219.548C165.798 171.403 226.729 131.71 305.09 126.434C310.43 126.077 315.161 130.205 315.173 135.541C315.173 135.582 315.173 135.624 315.173 135.665L315.179 135.671Z" fill="#CBC9C7"/>
<path d="M288.733 135.671C288.733 142.512 287.261 149.126 284.484 155.426C283.096 158.62 281.367 161.755 279.306 164.782C259.969 193.411 212.97 213.617 158.046 213.617C103.121 213.617 56.0926 193.411 36.7556 164.782C36.416 164.271 36.1061 163.795 35.7903 163.283C34.1456 160.737 32.7333 158.114 31.5713 155.426C28.7944 149.12 27.3225 142.512 27.3225 135.671C27.3225 92.6 85.846 57.7015 158.04 57.7015C159.821 57.7015 161.609 57.7313 163.361 57.7848C233.064 59.4265 288.727 93.6767 288.727 135.671H288.733Z" fill="#77665C"/>
<path d="M171.805 85.3967C171.805 92.2372 170.333 98.8517 167.556 105.151C166.168 108.345 164.44 111.48 162.378 114.507C143.041 143.136 96.0419 163.343 41.1176 163.343H41.064C37.7091 163.343 34.5687 161.505 33.0372 158.525C32.5128 157.502 32.0242 156.472 31.5772 155.432C28.8003 149.126 27.3285 142.518 27.3285 135.677C27.3285 92.606 85.852 57.7075 158.046 57.7075H158.099C161.46 57.7075 164.583 59.5931 166.114 62.5791C169.821 69.8003 171.805 77.4617 171.805 85.4026V85.3967Z" fill="#AEA6A0"/>
<path d="M279.365 164.693C279.365 164.693 279.335 164.752 279.306 164.776C264.241 187.076 232.366 204.285 193.067 210.786C181.911 212.624 170.16 213.612 158.046 213.612C121.1 213.612 87.7172 204.457 63.9347 189.729C52.3563 182.609 43.0662 174.127 36.7556 164.776C36.7258 164.717 36.696 164.693 36.6722 164.633C32.9895 159.149 32.9061 151.857 36.5888 146.349C55.8126 117.577 102.954 97.2575 158.052 97.2575C169.034 97.2575 179.683 98.0784 189.849 99.6011C225.096 104.83 254.653 118.624 272.012 137.045C274.842 140.043 277.333 143.119 279.484 146.343C283.191 151.851 283.108 159.203 279.371 164.687L279.365 164.693Z" fill="#683C11"/>
<path d="M279.365 164.693C279.365 164.693 279.335 164.752 279.306 164.776C268.496 180.777 249.022 194.161 224.363 202.845C213.321 206.735 204.395 193.358 212.082 184.542C221.342 173.919 232.271 163.729 244.678 154.462C250.482 150.12 256.375 146.158 262.299 142.571C268.055 139.086 275.665 140.668 279.407 146.253C279.431 146.283 279.449 146.319 279.473 146.349C283.179 151.857 283.096 159.209 279.359 164.693H279.365Z" fill="#936037"/>
<path d="M158.373 97.2635C174.105 97.2873 182.609 115.804 172.532 127.861C155.757 147.925 130.33 166.287 99.3849 178.826C95.893 180.248 92.395 181.562 88.903 182.77C71.0677 188.962 51.1645 183.46 39.5444 168.607C38.5612 167.346 37.6316 166.073 36.7556 164.776C36.559 164.39 36.3683 165.335 36.1716 149.228C36.1538 147.794 36.553 146.372 37.3754 145.201C57.0759 117.041 103.687 97.2635 158.046 97.2635C158.153 97.2635 158.266 97.2635 158.373 97.2635Z" fill="#432918"/>
<path d="M67.1883 229.267L73.1831 257.456C74.4941 263.613 77.3068 269.347 81.3708 274.153C84.3027 277.621 86.287 281.779 87.1451 286.234L88.5872 293.747C89.2725 297.304 93.4974 298.862 96.3339 296.596C99.6233 293.967 100.773 289.488 99.1525 285.603L91.5012 267.295C90.5656 265.052 89.8028 262.744 89.2248 260.389L83.9749 239.017C82.4732 232.896 78.3198 227.762 72.6468 225.002C69.7626 223.605 66.5329 226.127 67.1943 229.255L67.1883 229.267Z" fill="#FEFEFE"/>
<path d="M118.037 433.079C115.611 432.401 113.228 431.663 110.886 430.86C103.556 428.362 98.5388 421.587 98.0322 413.872L92.1209 323.565C91.954 319.776 97.049 318.42 98.7771 321.787L100.732 325.576C101.637 327.33 102.317 329.139 102.829 331.03L126.951 424.353C128.334 429.706 123.376 434.578 118.043 433.085L118.037 433.079Z" fill="#FEFEFE"/>
<path d="M283.078 151.75C283.078 182.556 238.683 208.175 180.189 213.415H180.165C172.985 214.064 165.584 214.397 158.028 214.397C114.545 214.397 76.2401 203.273 53.8342 186.398C40.6588 176.477 32.9776 164.562 32.9776 151.75C32.9776 143.975 35.8022 136.534 40.9687 129.664C42.6789 127.391 44.6454 125.185 46.8502 123.043C49.1265 120.836 50.3899 117.725 50.3779 114.496V114.442C50.3779 103.777 54.7221 93.7124 62.4211 84.8554C68.9939 77.2713 78.0218 70.5736 88.8792 65.125C91.3045 63.9115 93.0386 61.556 93.5451 58.802C98.354 32.9151 109.122 17.6221 121.737 9.18155C140.002 -3.05403 162.145 -0.954292 175.75 4.11363C175.762 4.11958 175.768 4.11958 175.78 4.12553C182.507 6.62975 183.485 16.2005 177.317 19.9301C176.524 20.4119 175.815 20.9175 175.19 21.4409C170.035 25.7237 172.907 34.7531 179.51 34.7531C184.408 34.7531 188.734 35.1041 192.56 35.7227H192.566C214.483 39.25 219.936 51.6046 221.271 58.2488C221.813 60.9434 223.571 63.1918 226.026 64.2446C237.122 69.0092 265.648 84.207 265.648 114.436V114.49C265.648 117.725 266.911 120.83 269.175 123.037C278.042 131.638 283.06 141.4 283.06 151.744L283.078 151.75Z" fill="#BEA087"/>
<path d="M261.84 139.895C261.84 139.895 261.649 141.257 259.718 143.279C261.19 141.168 261.84 139.895 261.84 139.895Z" fill="#936037"/>
<path d="M269.199 123.043C266.929 120.836 265.671 117.725 265.671 114.496V114.442C265.671 84.2189 237.14 69.0152 226.05 64.2506C223.595 63.1918 221.843 60.9493 221.295 58.2547C220.305 53.3058 217.028 45.1864 206.361 39.9103C202.315 37.9057 197.995 42.0695 199.896 46.156C199.908 46.1738 199.914 46.1976 199.926 46.2155C202.851 52.5206 200.974 60.0571 195.486 64.3339C189.765 68.7951 181.298 71.8168 173.861 73.7738C169.844 74.8326 170.047 80.6202 174.129 81.3756C186.023 83.5706 195.617 82.833 202.047 81.6374C206.802 80.7511 211.611 82.9995 213.935 87.2347C216.587 92.0587 218.536 98.5661 218.536 107.257C218.536 108.827 218.482 110.326 218.393 111.759C217.892 119.32 216.14 125.101 214.013 129.467C213.22 131.091 212.38 132.519 211.522 133.768C208.667 137.932 209.573 143.624 213.59 146.705C216.611 149.031 219.686 152.333 221.849 156.936C223.642 160.737 224.804 165.448 224.804 171.23C224.804 179.909 221.259 187.79 215.526 194.369C211.027 199.538 216.063 207.384 222.629 205.397C258.866 194.428 283.096 174.502 283.096 151.744C283.096 141.4 278.084 131.633 269.211 123.037L269.199 123.043Z" fill="#A9805F"/>
<path d="M226.86 126.565C184.11 137.254 101.858 147.657 89.9876 74.5351C89.2725 70.1394 90.1663 65.6365 92.4367 61.8059C92.973 60.8958 93.3604 59.8846 93.557 58.8079C95.9347 46.0311 99.7544 35.8357 104.539 27.7699C107.841 22.1964 116.41 25.1764 115.48 31.5827C112.453 52.4314 116.064 82.0775 155.775 94.3369C186.905 103.943 210.592 110.034 226.735 113.74C233.505 115.293 233.6 124.881 226.86 126.565Z" fill="#D4BFAF"/>
<path d="M226.86 126.559C222.886 127.552 218.571 128.545 214.001 129.467C216.128 125.101 217.88 119.32 218.381 111.759C221.36 112.479 224.143 113.139 226.735 113.734C233.505 115.293 233.6 124.875 226.86 126.559Z" fill="#BEA087"/>
<path d="M227.921 155.878C234.822 154.557 238.266 163.902 232.17 167.388C216.045 176.613 192.215 184.602 158.034 184.602C102.358 184.602 64.0658 162.403 45.6167 136.879C42.5537 132.638 43.0424 126.755 46.7906 123.109C46.8144 123.085 46.8323 123.067 46.8562 123.043C49.1325 120.836 50.3958 117.725 50.3839 114.496V114.442C50.3839 108.464 51.7485 102.676 54.3049 97.1802C56.4264 92.6179 63.166 93.3554 64.2327 98.2687C69.4289 122.341 88.5932 160.975 158.034 160.975C190.326 160.975 212.583 158.81 227.921 155.872V155.878Z" fill="#D4BFAF"/>
<path d="M232.176 167.388C229.876 168.702 227.415 169.993 224.793 171.242C224.793 165.46 223.631 160.749 221.837 156.948C223.97 156.609 226.002 156.252 227.921 155.884C234.822 154.557 238.266 163.902 232.176 167.388Z" fill="#BEA087"/>
<path d="M161.49 13.8093C165 13.2502 167.574 17.1165 165.566 20.0431C163.021 23.7548 160.805 29.6317 160.805 38.8634C160.805 48.791 166.102 54.0493 171.853 56.8331C174.183 57.9633 173.307 61.4787 170.714 61.443C158.272 61.2646 142.844 57.2792 142.844 38.6493C142.844 20.0193 152.962 15.1655 161.484 13.8034L161.49 13.8093Z" fill="#D4BFAF"/>
<path d="M253.712 107.471C250.142 110.421 243.307 108.208 237.557 102.575C236.806 101.832 236.067 101.035 235.358 100.178C229.262 92.8142 227.593 84.1475 231.633 80.8165C233.016 79.6804 234.881 79.3056 236.985 79.615C241.037 80.1919 245.977 83.2612 249.987 88.1091C256.083 95.473 257.752 104.146 253.712 107.477V107.471Z" fill="#D4BFAF"/>
<path d="M273.242 162.384C278.683 158.988 278.06 148.196 271.85 138.279C265.64 128.362 256.194 123.076 250.752 126.471C245.31 129.867 245.933 140.659 252.143 150.576C258.354 160.493 267.8 165.779 273.242 162.384Z" fill="#D4BFAF"/>
<path d="M149.882 13.155C141.855 17.069 134.305 22.1071 128.304 28.5551C120.682 36.7339 117.226 46.3285 115.969 55.4293C114.759 64.2506 115.611 72.602 116.779 78.7525C117.774 83.9988 114.366 89.0846 109.122 90.1255C103.914 91.1546 99.516 92.7249 95.8214 94.676C80.3876 102.783 77.0148 117.375 76.5083 126.356C76.5023 126.487 76.4904 126.624 76.4785 126.755C76.109 131.169 73.7492 135.213 69.995 137.605C64.3519 141.197 60.4368 145.688 57.7671 150.489C54.3109 156.675 52.9224 163.372 52.5232 169.285C52.0941 175.656 43.9124 178.005 40.2119 172.795C35.5281 166.222 32.9776 159.131 32.9776 151.75C32.9776 143.975 35.8022 136.534 40.9687 129.664C42.661 127.409 44.6096 125.226 46.7906 123.109C46.8085 123.091 46.8323 123.067 46.8562 123.043C49.1325 120.836 50.3958 117.725 50.3839 114.496V114.442C50.3839 114.067 50.3899 113.693 50.4018 113.324C50.4137 112.866 50.4316 112.414 50.4673 111.956C50.4793 111.67 50.5031 111.391 50.5329 111.117C50.5269 111.111 50.5329 111.099 50.5329 111.087C50.5567 110.802 50.5865 110.516 50.6163 110.231C50.6401 110.011 50.6699 109.779 50.6997 109.559C50.6997 109.505 50.7057 109.457 50.7176 109.404C50.7414 109.166 50.7772 108.916 50.813 108.678C50.8368 108.518 50.8666 108.363 50.8904 108.196C50.9202 107.976 50.9619 107.756 51.0036 107.53C51.0632 107.209 51.1169 106.882 51.1884 106.561C51.4565 105.27 51.7783 103.991 52.1716 102.724C52.2252 102.551 52.2729 102.385 52.3325 102.218C52.4278 101.927 52.5232 101.635 52.6245 101.35C52.7437 100.993 52.8688 100.642 53.0059 100.291C53.131 99.9402 53.274 99.5952 53.4111 99.2442C53.5481 98.8933 53.6971 98.5483 53.8461 98.1973C53.9891 97.8583 54.15 97.5073 54.3109 97.1683C54.3169 97.1505 54.3288 97.1326 54.3347 97.1088C56.337 92.8201 59.0722 88.7158 62.433 84.8375C69.0058 77.2535 78.0338 70.5557 88.8911 65.1071C90.3689 64.3696 91.5846 63.2096 92.4308 61.794C92.4308 61.788 92.4367 61.788 92.4367 61.7821C92.4844 61.7047 92.5321 61.6215 92.5678 61.5501C92.7287 61.2646 92.8717 60.9731 92.9909 60.6697C93.0505 60.5448 93.0982 60.4259 93.1458 60.289C93.2054 60.1284 93.2591 59.9738 93.3127 59.8072C93.414 59.4741 93.4974 59.1351 93.557 58.7901C94.0814 55.9528 94.6773 53.2522 95.3447 50.6707C95.5235 49.9748 95.7082 49.2848 95.8989 48.6066C96.2922 47.191 96.7034 45.811 97.1384 44.4607C97.2457 44.1276 97.3529 43.7886 97.4661 43.4614C97.5734 43.1342 97.6866 42.8011 97.7998 42.474C98.4136 40.7014 99.0631 38.9943 99.7484 37.3525C99.8557 37.0968 99.963 36.8469 100.07 36.5912C100.72 35.0803 101.387 33.623 102.09 32.2251C102.227 31.9456 102.37 31.666 102.513 31.3983C102.615 31.1901 102.722 30.9938 102.823 30.7916C102.954 30.5537 103.085 30.3098 103.217 30.0719C103.503 29.5425 103.795 29.019 104.093 28.5075C104.236 28.2457 104.385 27.9959 104.534 27.7401C109.438 19.4721 115.355 13.4346 121.743 9.16371C129.532 3.94113 138.035 1.32984 146.276 0.443551C153.713 -0.353517 156.592 9.85371 149.876 13.1312L149.882 13.155Z" fill="#D4BFAF"/>
<path d="M76.4785 126.749C76.109 131.163 73.7492 135.207 69.995 137.599C64.3519 141.191 60.4368 145.682 57.7671 150.483C53.0595 146.134 49.0014 141.56 45.6167 136.873C42.5537 132.632 43.0424 126.749 46.7966 123.103C46.8145 123.085 46.8383 123.061 46.8621 123.037C49.1385 120.83 50.4018 117.72 50.3899 114.49V114.436C50.3899 114.061 50.3958 113.687 50.4077 113.318C50.4197 112.86 50.4375 112.408 50.4733 111.95C50.4852 111.664 50.509 111.385 50.5388 111.111C50.5329 111.105 50.5388 111.093 50.5388 111.081C50.5627 110.796 50.5925 110.51 50.6223 110.225C50.6461 110.005 50.6759 109.773 50.7057 109.553C50.7057 109.499 50.7117 109.451 50.7236 109.398C50.7474 109.16 50.7832 108.91 50.8189 108.672C50.8428 108.512 50.8725 108.357 50.8964 108.19C50.9262 107.97 50.9679 107.75 51.0096 107.524C51.0692 107.203 51.1228 106.876 51.1943 106.555C51.4625 105.264 51.7843 103.985 52.1776 102.718C52.2312 102.546 52.2789 102.379 52.3385 102.212C52.4338 101.921 52.5292 101.629 52.6305 101.344C52.7496 100.987 52.8748 100.636 53.0118 100.285C53.137 99.9342 53.28 99.5892 53.417 99.2383C53.5541 98.8873 53.7031 98.5423 53.8521 98.1914C53.9951 97.8523 54.156 97.5014 54.3169 97.1623C54.3228 97.1445 54.3347 97.1267 54.3407 97.1029C56.4979 92.606 63.1898 93.3495 64.2446 98.2568C66.068 106.715 69.6256 116.982 76.4904 126.731L76.4785 126.749Z" fill="#E9DFD7"/>
<path d="M109.122 90.1196C103.914 91.1486 99.516 92.719 95.8214 94.67C93.2054 88.7931 91.2151 82.1132 89.9816 74.5292C89.2665 70.1394 90.1604 65.6484 92.4248 61.8118C92.4248 61.8059 92.4308 61.8059 92.4308 61.7999C92.4725 61.7226 92.5201 61.6393 92.5619 61.5679C92.7228 61.2824 92.8658 60.9909 92.9849 60.6876C93.0445 60.5627 93.0922 60.4318 93.1399 60.3069C93.2054 60.1463 93.2531 59.9857 93.3067 59.8251C93.408 59.492 93.4915 59.1529 93.5511 58.8079C94.0755 55.9706 94.6714 53.2701 95.3388 50.6885C95.5175 49.9926 95.7023 49.3026 95.893 48.6245C96.2862 47.2088 96.6974 45.8288 97.1324 44.4786C97.2397 44.1455 97.347 43.8064 97.4602 43.4792C97.5674 43.1521 97.6807 42.819 97.7939 42.4918C98.4077 40.7192 99.0572 39.0121 99.7425 37.3704C99.8497 37.1146 99.957 36.8648 100.064 36.609C100.714 35.0981 101.381 33.6408 102.084 32.243C102.221 31.9634 102.364 31.6838 102.507 31.4162C102.609 31.208 102.716 31.0117 102.817 30.8094C102.948 30.5715 103.08 30.3276 103.211 30.0897C103.497 29.5603 103.789 29.0369 104.087 28.5253C104.23 28.2636 104.379 28.0138 104.528 27.758C107.829 22.1904 116.392 25.1705 115.462 31.5708C114.408 38.8218 114.157 47.1434 115.957 55.4174C114.747 64.2387 115.599 72.5901 116.767 78.7406C117.763 83.9869 114.354 89.0727 109.11 90.1137L109.122 90.1196Z" fill="#E9DFD7"/>
<path d="M132.022 37.2693C126.665 49.1123 118.412 56.9461 113.591 54.775C108.77 52.6039 109.211 41.2427 114.569 29.3997C119.926 17.5567 132.279 12.0784 137.1 14.2554C141.92 16.4265 137.38 25.4322 132.022 37.2752V37.2693Z" fill="white"/>
<path d="M87.7529 96.6448C79.6725 103.581 70.8293 106.543 68.0047 103.265C65.1802 99.9878 69.4468 91.7078 77.5273 84.7721C85.6077 77.8364 96.6736 78.0387 99.4982 81.3162C102.323 84.5937 95.8334 89.7092 87.7529 96.6448Z" fill="white"/>
<path d="M93.3187 118.493C99.4565 118.493 104.432 114.922 104.432 110.516C104.432 106.111 99.4565 102.54 93.3187 102.54C87.1808 102.54 82.2051 106.111 82.2051 110.516C82.2051 114.922 87.1808 118.493 93.3187 118.493Z" fill="#683C11"/>
<path d="M165.804 63.1085C171.942 63.1085 176.918 59.5373 176.918 55.1319C176.918 50.7265 171.942 47.1553 165.804 47.1553C159.666 47.1553 154.691 50.7265 154.691 55.1319C154.691 59.5373 159.666 63.1085 165.804 63.1085Z" fill="#683C11"/>
<path d="M217.469 115.233C223.607 115.233 228.582 111.662 228.582 107.257C228.582 102.851 223.607 99.2799 217.469 99.2799C211.331 99.2799 206.355 102.851 206.355 107.257C206.355 111.662 211.331 115.233 217.469 115.233Z" fill="#683C11"/>
<path d="M165.816 166.436C171.954 166.436 176.93 162.865 176.93 158.459C176.93 154.054 171.954 150.483 165.816 150.483C159.678 150.483 154.703 154.054 154.703 158.459C154.703 162.865 159.678 166.436 165.816 166.436Z" fill="#683C11"/>
<path d="M153.66 161.302C156.207 161.302 158.272 159.819 158.272 157.989C158.272 156.159 156.207 154.676 153.66 154.676C151.112 154.676 149.047 156.159 149.047 157.989C149.047 159.819 151.112 161.302 153.66 161.302Z" fill="#683C11"/>
<path d="M155.561 146.045C155.561 147.871 153.493 149.358 150.948 149.358C148.404 149.358 146.336 147.877 146.336 146.045C146.336 144.213 148.404 142.732 150.948 142.732C153.493 142.732 155.561 144.213 155.561 146.045Z" fill="#683C11"/>
<path d="M180.672 152.666C183.219 152.666 185.284 151.182 185.284 149.352C185.284 147.523 183.219 146.039 180.672 146.039C178.125 146.039 176.06 147.523 176.06 149.352C176.06 151.182 178.125 152.666 180.672 152.666Z" fill="#683C11"/>
<path d="M120.641 110.516C120.641 112.342 118.573 113.829 116.028 113.829C113.484 113.829 111.416 112.348 111.416 110.516C111.416 108.684 113.484 107.203 116.028 107.203C118.573 107.203 120.641 108.684 120.641 110.516Z" fill="#683C11"/>
<path d="M171.805 79.5079C171.805 81.334 169.737 82.8211 167.193 82.8211C164.648 82.8211 162.58 81.34 162.58 79.5079C162.58 77.6758 164.648 76.1947 167.193 76.1947C169.737 76.1947 171.805 77.6758 171.805 79.5079Z" fill="#683C11"/>
<path d="M190.653 61.0088C190.653 62.8349 188.586 64.322 186.041 64.322C183.497 64.322 181.429 62.8409 181.429 61.0088C181.429 59.1767 183.497 57.6956 186.041 57.6956C188.586 57.6956 190.653 59.1767 190.653 61.0088Z" fill="#683C11"/>
<path d="M177.824 55.4472C180.371 55.4472 182.436 53.9638 182.436 52.134C182.436 50.3042 180.371 48.8208 177.824 48.8208C175.276 48.8208 173.211 50.3042 173.211 52.134C173.211 53.9638 175.276 55.4472 177.824 55.4472Z" fill="#683C11"/>
<path d="M172.162 62.8171C172.162 64.6432 170.095 66.1302 167.55 66.1302C165.006 66.1302 162.938 64.6491 162.938 62.8171C162.938 60.985 165.006 59.5039 167.55 59.5039C170.095 59.5039 172.162 60.985 172.162 62.8171Z" fill="#683C11"/>
<path d="M154.19 59.5098C156.737 59.5098 158.802 58.0265 158.802 56.1966C158.802 54.3668 156.737 52.8835 154.19 52.8835C151.643 52.8835 149.578 54.3668 149.578 56.1966C149.578 58.0265 151.643 59.5098 154.19 59.5098Z" fill="#683C11"/>
<path d="M135.789 67.6352C138.336 67.6352 140.401 66.1518 140.401 64.322C140.401 62.4922 138.336 61.0088 135.789 61.0088C133.241 61.0088 131.176 62.4922 131.176 64.322C131.176 66.1518 133.241 67.6352 135.789 67.6352Z" fill="#683C11"/>
<path d="M202.232 78.1517C204.779 78.1517 206.844 76.6683 206.844 74.8385C206.844 73.0087 204.779 71.5253 202.232 71.5253C199.684 71.5253 197.619 73.0087 197.619 74.8385C197.619 76.6683 199.684 78.1517 202.232 78.1517Z" fill="#683C11"/>
<path d="M181.983 112.087C181.983 113.913 179.915 115.4 177.371 115.4C174.826 115.4 172.758 113.919 172.758 112.087C172.758 110.254 174.826 108.773 177.371 108.773C179.915 108.773 181.983 110.254 181.983 112.087Z" fill="#683C11"/>
<path d="M229.923 92.7904C232.471 92.7904 234.536 91.307 234.536 89.4772C234.536 87.6474 232.471 86.164 229.923 86.164C227.376 86.164 225.311 87.6474 225.311 89.4772C225.311 91.307 227.376 92.7904 229.923 92.7904Z" fill="#683C11"/>
<path d="M231.252 109.927C233.799 109.927 235.864 108.444 235.864 106.614C235.864 104.784 233.799 103.301 231.252 103.301C228.705 103.301 226.64 104.784 226.64 106.614C226.64 108.444 228.705 109.927 231.252 109.927Z" fill="#683C11"/>
<path d="M232.158 111.2C232.158 113.026 230.09 114.513 227.546 114.513C225.001 114.513 222.933 113.032 222.933 111.2C222.933 109.368 225.001 107.887 227.546 107.887C230.09 107.887 232.158 109.368 232.158 111.2Z" fill="#683C11"/>
<path d="M210.485 107.257C210.485 109.083 208.417 110.57 205.873 110.57C203.328 110.57 201.26 109.089 201.26 107.257C201.26 105.424 203.328 103.943 205.873 103.943C208.417 103.943 210.485 105.424 210.485 107.257Z" fill="#683C11"/>
<path d="M209.388 107.257C211.936 107.257 214.001 105.773 214.001 103.943C214.001 102.114 211.936 100.63 209.388 100.63C206.841 100.63 204.776 102.114 204.776 103.943C204.776 105.773 206.841 107.257 209.388 107.257Z" fill="#683C11"/>
<path d="M214.001 119.754C214.001 121.58 211.933 123.067 209.388 123.067C206.844 123.067 204.776 121.586 204.776 119.754C204.776 117.922 206.844 116.441 209.388 116.441C211.933 116.441 214.001 117.922 214.001 119.754Z" fill="#683C11"/>
<path d="M262.751 127.748C262.751 129.574 260.684 131.062 258.139 131.062C255.595 131.062 253.527 129.58 253.527 127.748C253.527 125.916 255.595 124.435 258.139 124.435C260.684 124.435 262.751 125.916 262.751 127.748Z" fill="#683C11"/>
<path d="M231.866 155.979C234.413 155.979 236.478 154.495 236.478 152.666C236.478 150.836 234.413 149.352 231.866 149.352C229.319 149.352 227.254 150.836 227.254 152.666C227.254 154.495 229.319 155.979 231.866 155.979Z" fill="#683C11"/>
<path d="M116.028 63.1085C116.028 64.9346 113.961 66.4217 111.416 66.4217C108.872 66.4217 106.804 64.9406 106.804 63.1085C106.804 61.2765 108.872 59.7953 111.416 59.7953C113.961 59.7953 116.028 61.2765 116.028 63.1085Z" fill="#683C11"/>
<path d="M101.918 121.134C104.465 121.134 106.53 119.65 106.53 117.821C106.53 115.991 104.465 114.507 101.918 114.507C99.3702 114.507 97.3052 115.991 97.3052 117.821C97.3052 119.65 99.3702 121.134 101.918 121.134Z" fill="#683C11"/>
<path d="M87.5086 107.209C90.0559 107.209 92.1209 105.726 92.1209 103.896C92.1209 102.066 90.0559 100.583 87.5086 100.583C84.9613 100.583 82.8963 102.066 82.8963 103.896C82.8963 105.726 84.9613 107.209 87.5086 107.209Z" fill="#683C11"/>
<path d="M75.3701 122.312C75.3701 124.138 73.3023 125.625 70.7578 125.625C68.2133 125.625 66.1455 124.144 66.1455 122.312C66.1455 120.48 68.2133 118.998 70.7578 118.998C73.3023 118.998 75.3701 120.48 75.3701 122.312Z" fill="#683C11"/>
<path d="M104.438 140.739C106.985 140.739 109.05 139.256 109.05 137.426C109.05 135.596 106.985 134.113 104.438 134.113C101.891 134.113 99.8259 135.596 99.8259 137.426C99.8259 139.256 101.891 140.739 104.438 140.739Z" fill="#683C11"/>
<path d="M156.371 66.0291C155.865 64.2744 157.438 62.2758 159.887 61.5739C162.336 60.872 164.732 61.7285 165.238 63.4833C165.745 65.238 164.171 67.2366 161.722 67.9385C159.273 68.6404 156.878 67.7839 156.371 66.0291Z" fill="#683C11"/>
</svg>
