<svg width="168" height="180" viewBox="0 0 168 180" fill="none" xmlns="http://www.w3.org/2000/svg">
<path d="M138.471 148.09C138.471 160.155 127.035 170.658 110.163 176.079C102.398 178.575 93.4826 180 83.9944 180C67.7378 180 53.1417 175.829 43.1618 169.202C34.671 163.573 29.5266 156.192 29.5266 148.09C29.5266 130.468 53.9115 116.182 83.9944 116.182C87.5261 116.182 90.9792 116.382 94.3226 116.759C110.096 118.529 123.442 124.274 131.199 132.157C135.821 136.842 138.471 142.283 138.471 148.09Z" fill="#77665C"/>
<path d="M166.21 49.0316C166.21 49.0316 150.378 107.119 150.378 128.029C150.378 146.094 126.176 164.483 97.756 169.168C93.2578 169.916 88.6387 170.318 84.0056 170.318C72.1517 170.318 60.6575 167.701 50.7141 163.415C32.2126 155.431 19.1028 141.637 19.1028 128.029C19.1028 107.119 1.78974 49.0316 1.78974 49.0316H166.21Z" fill="#AEA6A0"/>
<path d="M166.21 49.0316C166.21 49.0316 150.378 107.119 150.378 128.029C150.378 140.847 138.204 153.815 120.983 161.945C110.197 167.046 97.756 159.261 97.756 147.323V129.257C97.756 123.889 98.6102 118.667 99.9728 113.74C102.631 104.207 107.247 95.739 111.481 89.3564C116.488 81.785 120.947 77.1505 120.947 77.1505L120.332 49.0288H166.213L166.21 49.0316Z" fill="#91837A"/>
<path d="M168 40.648C168 56.0185 150.367 69.3964 124.349 76.3017C112.375 79.4804 98.6242 81.2959 83.9944 81.2959C58.9239 81.2959 36.4186 75.9813 21.0274 67.5415C7.92882 60.3691 0 50.9681 0 40.648C0 18.2007 37.6043 0 83.9916 0C89.4367 0 94.7637 0.252943 99.9166 0.733535C124.24 2.99035 144.823 10.3088 156.784 20.3479C163.912 26.3173 167.997 33.248 167.997 40.6452L168 40.648Z" fill="#CBC9C7"/>
<path d="M32.1311 151.904C24.0421 144.799 19.1028 136.373 19.1028 128.029C19.1028 107.119 1.78974 49.0316 1.78974 49.0316H14.3517C14.3517 49.0316 23.6825 60.5968 33.0667 84.4437C35.5505 90.7476 38.0314 97.9031 40.3297 105.93C43.454 116.733 46.258 129.111 48.34 143.104C49.7026 152.199 39.0344 157.966 32.1339 151.904H32.1311Z" fill="#CBC9C7"/>
<path d="M168 40.648C168 54.1889 154.311 66.1868 133.262 73.5699C127.238 75.6834 120.45 73.5503 116.974 68.1963C114.476 64.3487 113.133 60.2539 113.133 56.0044C113.133 42.4635 126.819 30.4684 147.866 23.0853C153.887 20.9718 160.675 23.105 164.151 28.4589C166.649 32.3065 167.997 36.4013 167.997 40.6508L168 40.648Z" fill="white"/>
<path d="M120.944 27.627C120.944 50.0743 83.3397 68.275 36.9525 68.275C35.3959 68.275 33.8506 68.2553 32.3166 68.2132C22.5839 67.9546 13.1969 63.9216 6.74315 56.6312C2.39944 51.7269 0 46.3251 0 40.648C0 18.2007 37.6043 0 83.9916 0C85.5256 0 87.0541 0.0196734 88.5685 0.0590201C98.9305 0.331637 108.877 4.89023 115.342 12.9985C118.96 17.5374 120.944 22.4726 120.944 27.627Z" fill="#AEA6A0"/>
<path d="M151.072 40.648C151.072 50.7573 140.325 59.7283 123.773 65.2987C112.642 69.0507 98.8911 71.2681 83.9944 71.2681C67.1618 71.2681 51.7818 68.438 40.0094 63.7501C25.874 58.1432 16.9281 49.8776 16.9281 40.648C16.9281 31.4184 25.2166 23.7682 38.4472 18.1894C50.4079 13.1278 66.4144 10.0306 83.9944 10.0306C105.1 10.0306 123.922 14.4768 136.217 21.4468C145.509 26.6939 151.075 33.3716 151.075 40.648H151.072Z" fill="#936037"/>
<path d="M151.072 40.648C151.072 49.5347 142.764 57.5474 129.505 63.1374C125.808 64.6972 121.509 64.1689 118.323 61.7266C112.349 57.1511 108.916 51.7971 108.916 46.0834C108.916 37.2023 117.204 29.2065 130.435 23.6249C130.455 23.6165 130.472 23.608 130.491 23.6024C134.183 22.0426 138.476 22.5766 141.66 25.0133C147.638 29.5887 151.075 34.9343 151.075 40.6508L151.072 40.648Z" fill="#683C11"/>
<path d="M61.5004 41.2888C61.5004 47.9552 56.8195 54.1327 48.8794 59.1662C43.4512 62.6063 36.4833 62.6344 30.9454 59.3742C22.1597 54.2001 16.9281 47.7051 16.9281 40.648C16.9281 33.9675 21.6202 27.7872 29.5743 22.7593C35.0026 19.3277 41.9677 19.3024 47.4999 22.5653C56.2772 27.7394 61.5004 34.2345 61.5004 41.2916V41.2888Z" fill="#CA9E67"/>
<path d="M144.545 33.6639C144.545 48.9276 117.432 61.305 83.9944 61.305C55.7743 61.305 32.0665 52.4913 25.3655 40.5552C24.1096 38.3518 23.4577 36.0416 23.4577 33.6639C23.4577 19.0832 48.1798 7.14424 79.5242 6.1156C80.9937 6.04815 82.4884 6.02286 83.9972 6.02286C117.438 6.02286 144.548 18.4002 144.548 33.6639H144.545Z" fill="#A9805F"/>
<path d="M81.4292 13.0069C81.4292 26.7473 59.4746 38.141 30.7151 40.2686C26.8939 40.5524 23.4746 37.5677 23.4549 33.7342C23.4549 33.7117 23.4549 33.6864 23.4549 33.6639C23.4549 19.9235 45.4095 8.52981 74.1691 6.40227C77.9902 6.11841 81.4095 9.10314 81.4292 12.9366C81.4292 12.9591 81.4292 12.9844 81.4292 13.0069Z" fill="#DDBD9E"/>
<path d="M83.778 36.3423C102.253 36.3423 117.23 29.5047 117.23 21.0702C117.23 12.6356 102.253 5.79802 83.778 5.79802C65.3032 5.79802 50.3264 12.6356 50.3264 21.0702C50.3264 29.5047 65.3032 36.3423 83.778 36.3423Z" fill="#432918"/>
<path d="M48.4552 23.7851C51.7386 23.7851 54.4004 22.5696 54.4004 21.0702C54.4004 19.5708 51.7386 18.3552 48.4552 18.3552C45.1717 18.3552 42.51 19.5708 42.51 21.0702C42.51 22.5696 45.1717 23.7851 48.4552 23.7851Z" fill="#432918"/>
<path d="M46.7862 34.1361C50.0697 34.1361 52.7314 32.9206 52.7314 31.4212C52.7314 29.9218 50.0697 28.7062 46.7862 28.7062C43.5028 28.7062 40.841 29.9218 40.841 31.4212C40.841 32.9206 43.5028 34.1361 46.7862 34.1361Z" fill="#432918"/>
<path d="M62.3601 35.5835C65.6435 35.5835 68.3053 34.368 68.3053 32.8686C68.3053 31.3692 65.6435 30.1536 62.3601 30.1536C59.0766 30.1536 56.4149 31.3692 56.4149 32.8686C56.4149 34.368 59.0766 35.5835 62.3601 35.5835Z" fill="#432918"/>
<path d="M62.9164 40.648C66.1999 40.648 68.8616 39.4325 68.8616 37.933C68.8616 36.4336 66.1999 35.2181 62.9164 35.2181C59.633 35.2181 56.9712 36.4336 56.9712 37.933C56.9712 39.4325 59.633 40.648 62.9164 40.648Z" fill="#432918"/>
<path d="M70.1484 39.0572C73.4319 39.0572 76.0937 37.8417 76.0937 36.3423C76.0937 34.8429 73.4319 33.6274 70.1484 33.6274C66.865 33.6274 64.2032 34.8429 64.2032 36.3423C64.2032 37.8417 66.865 39.0572 70.1484 39.0572Z" fill="#432918"/>
<path d="M77.83 46.0778C81.1135 46.0778 83.7752 44.8623 83.7752 43.3629C83.7752 41.8635 81.1135 40.648 77.83 40.648C74.5466 40.648 71.8848 41.8635 71.8848 43.3629C71.8848 44.8623 74.5466 46.0778 77.83 46.0778Z" fill="#432918"/>
<path d="M89.7233 39.0572C93.0067 39.0572 95.6685 37.8417 95.6685 36.3423C95.6685 34.8429 93.0067 33.6274 89.7233 33.6274C86.4398 33.6274 83.778 34.8429 83.778 36.3423C83.778 37.8417 86.4398 39.0572 89.7233 39.0572Z" fill="#432918"/>
<path d="M104.401 41.2831C107.684 41.2831 110.346 40.0676 110.346 38.5682C110.346 37.0688 107.684 35.8533 104.401 35.8533C101.117 35.8533 98.4556 37.0688 98.4556 38.5682C98.4556 40.0676 101.117 41.2831 104.401 41.2831Z" fill="#432918"/>
<path d="M112.633 34.1361C115.917 34.1361 118.578 32.9206 118.578 31.4212C118.578 29.9218 115.917 28.7062 112.633 28.7062C109.35 28.7062 106.688 29.9218 106.688 31.4212C106.688 32.9206 109.35 34.1361 112.633 34.1361Z" fill="#432918"/>
<path d="M115.859 36.851C119.142 36.851 121.804 35.6355 121.804 34.1361C121.804 32.6367 119.142 31.4212 115.859 31.4212C112.575 31.4212 109.913 32.6367 109.913 34.1361C109.913 35.6355 112.575 36.851 115.859 36.851Z" fill="#432918"/>
<path d="M117.23 30.9546C120.513 30.9546 123.175 29.7391 123.175 28.2397C123.175 26.7403 120.513 25.5248 117.23 25.5248C113.946 25.5248 111.284 26.7403 111.284 28.2397C111.284 29.7391 113.946 30.9546 117.23 30.9546Z" fill="#432918"/>
<path d="M131.357 30.1536C134.64 30.1536 137.302 28.9381 137.302 27.4387C137.302 25.9393 134.64 24.7238 131.357 24.7238C128.073 24.7238 125.411 25.9393 125.411 27.4387C125.411 28.9381 128.073 30.1536 131.357 30.1536Z" fill="#432918"/>
<path d="M115.859 21.0702C119.142 21.0702 121.804 19.8547 121.804 18.3552C121.804 16.8558 119.142 15.6403 115.859 15.6403C112.575 15.6403 109.913 16.8558 109.913 18.3552C109.913 19.8547 112.575 21.0702 115.859 21.0702Z" fill="#432918"/>
<path d="M111.855 16.9528C115.138 16.9528 117.8 15.7373 117.8 14.2379C117.8 12.7385 115.138 11.523 111.855 11.523C108.571 11.523 105.91 12.7385 105.91 14.2379C105.91 15.7373 108.571 16.9528 111.855 16.9528Z" fill="#432918"/>
<path d="M53.4535 21.0702C56.737 21.0702 59.3987 19.8547 59.3987 18.3552C59.3987 16.8558 56.737 15.6403 53.4535 15.6403C50.1701 15.6403 47.5083 16.8558 47.5083 18.3552C47.5083 19.8547 50.1701 21.0702 53.4535 21.0702Z" fill="#432918"/>
<path d="M42.51 26.1515C42.51 26.8626 41.2484 27.4387 39.6891 27.4387C38.1297 27.4387 36.8682 26.8626 36.8682 26.1515C36.8682 25.4405 38.1297 24.8643 39.6891 24.8643C41.2484 24.8643 42.51 25.4405 42.51 26.1515Z" fill="#432918"/>
<path d="M39.2423 37.1405C40.8003 37.1405 42.0632 36.5642 42.0632 35.8533C42.0632 35.1424 40.8003 34.5661 39.2423 34.5661C37.6844 34.5661 36.4214 35.1424 36.4214 35.8533C36.4214 36.5642 37.6844 37.1405 39.2423 37.1405Z" fill="#432918"/>
<path d="M62.3601 48.6522C63.918 48.6522 65.181 48.0759 65.181 47.365C65.181 46.6541 63.918 46.0778 62.3601 46.0778C60.8022 46.0778 59.5392 46.6541 59.5392 47.365C59.5392 48.0759 60.8022 48.6522 62.3601 48.6522Z" fill="#432918"/>
<path d="M85.3177 56.0438C85.3177 56.7548 84.0562 57.331 82.4968 57.331C80.9375 57.331 79.6759 56.7548 79.6759 56.0438C79.6759 55.3327 80.9375 54.7566 82.4968 54.7566C84.0562 54.7566 85.3177 55.3327 85.3177 56.0438Z" fill="#432918"/>
<path d="M92.5441 48.6522C94.1021 48.6522 95.365 48.0759 95.365 47.365C95.365 46.6541 94.1021 46.0778 92.5441 46.0778C90.9862 46.0778 89.7233 46.6541 89.7233 47.365C89.7233 48.0759 90.9862 48.6522 92.5441 48.6522Z" fill="#432918"/>
<path d="M108.731 44.6501C110.288 44.6501 111.551 44.0738 111.551 43.3629C111.551 42.652 110.288 42.0757 108.731 42.0757C107.173 42.0757 105.91 42.652 105.91 43.3629C105.91 44.0738 107.173 44.6501 108.731 44.6501Z" fill="#432918"/>
<path d="M125.996 22.897C125.996 23.608 124.734 24.1842 123.175 24.1842C121.616 24.1842 120.354 23.608 120.354 22.897C120.354 22.1859 121.616 21.6098 123.175 21.6098C124.734 21.6098 125.996 22.1859 125.996 22.897Z" fill="#432918"/>
<path d="M128.232 35.8533C129.79 35.8533 131.053 35.277 131.053 34.5661C131.053 33.8552 129.79 33.2789 128.232 33.2789C126.674 33.2789 125.411 33.8552 125.411 34.5661C125.411 35.277 126.674 35.8533 128.232 35.8533Z" fill="#432918"/>
<path d="M138.659 83.2324C126.948 87.2738 109.276 91.0202 84 91.0202C58.7244 91.0202 41.0517 87.2738 29.3411 83.2324C22.9885 81.0402 18.0323 88.932 22.7638 93.7042C45.609 116.75 84 114.564 84 114.564C84 114.564 122.388 116.747 145.236 93.7042C149.968 88.932 145.011 81.0402 138.659 83.2324Z" fill="#91837A"/>
<path d="M40.3269 105.93C34.0782 102.965 28.0066 98.9992 22.7581 93.6986C18.0323 88.932 22.9857 81.0402 29.3383 83.2296C30.5128 83.6427 31.7546 84.0446 33.0639 84.4437C35.5476 90.7476 38.0286 97.9031 40.3269 105.93Z" fill="#AEA6A0"/>
<path d="M145.239 93.6986C131.862 107.186 113.175 112.031 99.9728 113.743C102.631 104.21 107.247 95.7418 111.481 89.3592C122.829 87.8781 131.772 85.6072 138.659 83.2296C145.014 81.0402 149.965 88.932 145.239 93.6986Z" fill="#77665C"/>
<path d="M165.311 108.108C162.007 134.259 146.329 142.174 136.372 151.67C134.863 153.095 133.495 154.557 132.317 156.128C129.8 159.478 124.467 158.368 123.47 154.298C123.313 153.618 123.172 152.856 123.057 151.996C121.708 141.831 135.315 133.964 135.315 133.964C135.315 133.964 153.876 119.769 151.69 103.288C150.162 91.7594 140.64 94.0864 136.942 93.8363C135.596 93.7464 134.402 94.5783 133.919 95.8261C133.298 97.4309 131.559 99.668 126.788 100.84C125.822 101.076 124.962 101.191 124.2 101.236C118.651 101.433 117.988 96.8351 117.988 96.8351C117.988 96.8351 115.78 86.0681 126.372 80.7451C133.453 77.1786 150.313 75.8577 159.487 85.2138C159.487 85.2138 159.487 85.2278 159.49 85.239C164.05 89.8735 166.699 97.1611 165.308 108.108H165.311Z" fill="#CBC9C7"/>
<path d="M151.693 103.288C150.164 91.7594 140.642 94.0864 136.945 93.8363C135.599 93.7464 134.405 94.5783 133.922 95.8261C133.301 97.4309 131.562 99.668 126.791 100.84C126.782 100.84 126.771 100.846 126.763 100.846C125.47 101.16 124.316 99.9688 124.608 98.6703C125.386 95.2275 127.614 89.4407 133.857 88.6116C142.817 87.4228 149.69 88.1676 151.693 103.285V103.288Z" fill="#AEA6A0"/>
<path d="M165.311 108.108C163.322 123.849 156.849 132.983 149.841 139.833C146.801 142.803 142.067 138.832 144.461 135.319C150.799 126.016 158.88 115.44 161.018 109.137C162.162 105.741 162.549 102.377 162.51 99.2943C162.487 97.3859 165.336 97.2454 165.522 99.1453C165.783 101.815 165.733 104.794 165.311 108.111V108.108Z" fill="#AEA6A0"/>
</svg>
